<?xml version="1.0" encoding="utf-8"?>
<!-- Generator: Adobe Illustrator 25.1.0, SVG Export Plug-In . SVG Version: 6.00 Build 0)  -->
<svg version="1.1" id="Layer_1" xmlns="http://www.w3.org/2000/svg" xmlns:xlink="http://www.w3.org/1999/xlink" x="0px" y="0px"
	 viewBox="0 0 123.5 47" style="enable-background:new 0 0 123.5 47;" xml:space="preserve">
<style type="text/css">
	.st0{fill:#FFFFFF;}
</style>
<image style="overflow:visible;" width="62" height="60" xlink:href="FA13F1F0.png"  transform="matrix(0.7899 0 0 0.7899 -1.2842 -0.1981)">
</image>
<g>
	<path class="st0" d="M55.1,14.8l-0.6,1.9h-1.3l2.2-6.9H57l2.2,6.9h-1.3l-0.6-1.9H55.1z M57.1,13.8l-0.5-1.7
		c-0.1-0.4-0.2-0.9-0.3-1.3h0c-0.1,0.4-0.2,0.9-0.3,1.3l-0.5,1.7H57.1z"/>
	<path class="st0" d="M60.2,9.9h1.3v5.8h2.8v1h-4.1V9.9z"/>
	<path class="st0" d="M65.2,9.9h1.3v5.8h2.8v1h-4.1V9.9z"/>
	<path class="st0" d="M71.5,9.9v6.9h-1.3V9.9H71.5z"/>
	<path class="st0" d="M74.3,14.8l-0.6,1.9h-1.3l2.2-6.9h1.6l2.2,6.9h-1.3l-0.6-1.9H74.3z M76.3,13.8l-0.5-1.7
		c-0.1-0.4-0.2-0.9-0.3-1.3h0c-0.1,0.4-0.2,0.9-0.3,1.3l-0.5,1.7H76.3z"/>
	<path class="st0" d="M79.4,16.7V9.9h1.4l1.8,2.9c0.5,0.8,0.9,1.6,1.2,2.3h0c-0.1-0.9-0.1-1.8-0.1-2.8V9.9h1.2v6.9h-1.3l-1.8-3
		c-0.4-0.8-0.9-1.6-1.2-2.4l0,0c0.1,0.9,0.1,1.8,0.1,2.9v2.5H79.4z"/>
	<path class="st0" d="M91.2,16.5c-0.3,0.2-0.9,0.3-1.8,0.3c-2.2,0-3.5-1.4-3.5-3.5c0-2.3,1.6-3.6,3.7-3.6c0.8,0,1.4,0.2,1.7,0.3
		l-0.3,1c-0.3-0.1-0.8-0.3-1.3-0.3c-1.4,0-2.4,0.9-2.4,2.5c0,1.5,0.9,2.5,2.4,2.5c0.5,0,1-0.1,1.4-0.3L91.2,16.5z"/>
	<path class="st0" d="M96.1,13.7h-2.6v2h2.9v1h-4.1V9.9h4v1h-2.7v1.8h2.6V13.7z"/>
	<path class="st0" d="M99.6,9.9h4v1h-2.7v1.9h2.5v1h-2.5v2.9h-1.3V9.9z"/>
	<path class="st0" d="M110.9,13.2c0,2.3-1.4,3.6-3.3,3.6c-1.9,0-3.2-1.5-3.2-3.5c0-2.1,1.3-3.6,3.3-3.6
		C109.7,9.7,110.9,11.3,110.9,13.2z M105.7,13.3c0,1.4,0.7,2.5,1.9,2.5c1.2,0,1.9-1.1,1.9-2.6c0-1.3-0.6-2.5-1.9-2.5
		C106.4,10.8,105.7,11.9,105.7,13.3z"/>
	<path class="st0" d="M111.9,10c0.5-0.1,1.2-0.1,1.9-0.1c1,0,1.7,0.2,2.1,0.5c0.4,0.3,0.6,0.8,0.6,1.4c0,0.9-0.6,1.5-1.2,1.7v0
		c0.5,0.2,0.8,0.7,1,1.3c0.2,0.9,0.4,1.6,0.5,1.9h-1.3c-0.1-0.2-0.3-0.8-0.5-1.6c-0.2-0.9-0.5-1.2-1.2-1.2h-0.6v2.8h-1.2V10z
		 M113.2,13h0.7c0.8,0,1.4-0.4,1.4-1.1c0-0.8-0.5-1.1-1.3-1.1c-0.4,0-0.7,0-0.8,0.1V13z"/>
	<path class="st0" d="M49.8,22.2c0.4-0.1,1.1-0.1,1.8-0.1c0.9,0,1.5,0.1,2,0.4c0.4,0.3,0.7,0.7,0.7,1.3c0,0.6-0.4,1.2-1.1,1.5v0
		c0.7,0.2,1.4,0.8,1.4,1.7c0,0.6-0.3,1.1-0.7,1.4c-0.5,0.4-1.3,0.6-2.5,0.6c-0.7,0-1.2-0.1-1.5-0.1V22.2z M51,24.9h0.6
		c0.9,0,1.4-0.4,1.4-1c0-0.6-0.5-0.9-1.3-0.9c-0.4,0-0.6,0-0.7,0.1V24.9z M51,28c0.2,0,0.4,0,0.7,0c0.8,0,1.5-0.3,1.5-1.2
		c0-0.8-0.7-1.1-1.6-1.1H51V28z"/>
	<path class="st0" d="M59.5,25.9h-2.6v2h2.9v1h-4.1v-6.9h4v1h-2.7v1.8h2.6V25.9z"/>
	<path class="st0" d="M62.3,23.1h-2v-1h5.2v1h-2v5.8h-1.3V23.1z"/>
	<path class="st0" d="M67.9,23.1h-2v-1h5.2v1h-2v5.8h-1.3V23.1z"/>
	<path class="st0" d="M75.8,25.9h-2.6v2h2.9v1h-4.1v-6.9h4v1h-2.7v1.8h2.6V25.9z"/>
	<path class="st0" d="M77.2,22.2c0.5-0.1,1.2-0.1,1.9-0.1c1,0,1.7,0.2,2.1,0.5c0.4,0.3,0.6,0.8,0.6,1.4c0,0.9-0.6,1.5-1.2,1.7v0
		c0.5,0.2,0.8,0.7,1,1.3c0.2,0.9,0.4,1.6,0.5,1.9h-1.3c-0.1-0.2-0.3-0.8-0.5-1.6c-0.2-0.9-0.5-1.2-1.2-1.2h-0.6v2.8h-1.2V22.2z
		 M78.4,25.2h0.7c0.8,0,1.4-0.4,1.4-1.1c0-0.8-0.5-1.1-1.3-1.1c-0.4,0-0.7,0-0.8,0.1V25.2z"/>
	<path class="st0" d="M90.9,26.1c0-0.9-0.1-2-0.1-2.9h0c-0.2,0.8-0.5,1.8-0.8,2.6l-1,3h-1l-0.9-2.9c-0.3-0.9-0.5-1.8-0.7-2.7h0
		c0,0.9-0.1,2-0.1,2.9l-0.2,2.8h-1.2l0.5-6.9H87l0.9,2.8c0.2,0.8,0.5,1.6,0.6,2.4h0c0.2-0.7,0.4-1.6,0.7-2.4l0.9-2.7h1.6l0.4,6.9H91
		L90.9,26.1z"/>
	<path class="st0" d="M97.3,25.9h-2.6v2h2.9v1h-4.1v-6.9h4v1h-2.7v1.8h2.6V25.9z"/>
	<path class="st0" d="M98.7,28.9v-6.9h1.4l1.8,2.9c0.5,0.8,0.9,1.6,1.2,2.3h0c-0.1-0.9-0.1-1.8-0.1-2.8v-2.4h1.2v6.9h-1.3l-1.8-3
		c-0.4-0.8-0.9-1.6-1.2-2.4l0,0c0.1,0.9,0.1,1.8,0.1,2.9v2.5H98.7z"/>
	<path class="st0" d="M106.9,23.1h-2v-1h5.2v1h-2v5.8h-1.3V23.1z"/>
	<path class="st0" d="M111.6,27l-0.6,1.9h-1.3l2.2-6.9h1.6l2.2,6.9h-1.3l-0.6-1.9H111.6z M113.5,26l-0.5-1.7
		c-0.1-0.4-0.2-0.9-0.3-1.3h0c-0.1,0.4-0.2,0.9-0.3,1.3l-0.5,1.7H113.5z"/>
	<path class="st0" d="M116.7,22.1h1.3v5.8h2.8v1h-4.1V22.1z"/>
	<path class="st0" d="M69.6,34.3V37h2.9v-2.7h1.3v6.9h-1.3v-3h-2.9v3h-1.3v-6.9H69.6z"/>
	<path class="st0" d="M79,38.1h-2.6v2h2.9v1h-4.1v-6.9h4v1h-2.7v1.8H79V38.1z"/>
	<path class="st0" d="M81.8,39.2l-0.6,1.9h-1.3l2.2-6.9h1.6l2.2,6.9h-1.3L84,39.2H81.8z M83.8,38.2l-0.5-1.7
		c-0.1-0.4-0.2-0.9-0.3-1.3h0c-0.1,0.4-0.2,0.9-0.3,1.3L82,38.2H83.8z"/>
	<path class="st0" d="M86.9,34.3h1.3v5.8H91v1h-4.1V34.3z"/>
	<path class="st0" d="M92.2,35.3h-2v-1h5.2v1h-2v5.8h-1.3V35.3z"/>
	<path class="st0" d="M97.5,34.3V37h2.9v-2.7h1.3v6.9h-1.3v-3h-2.9v3h-1.3v-6.9H97.5z"/>
</g>
</svg>
