<svg id="Layer_1" data-name="Layer 1" xmlns="http://www.w3.org/2000/svg" viewBox="0 0 539.91 115.75"><defs><style>.cls-1{fill:#ba2026;}.cls-2{fill:#363537;}.cls-3{fill:#eaf5ef;}</style></defs><path class="cls-1" d="M9.06,37.63,0,.6H7.19l3.52,16.81c.93,4.51,1.81,9.23,2.42,12.91h.11c.6-3.9,1.64-8.29,2.69-13L19.94.6H27l3.68,17c.94,4.4,1.71,8.52,2.25,12.52h.11c.66-4.06,1.54-8.29,2.53-12.79L39.44.6H46.3l-9.94,37H29.11L25.27,20.21a103.85,103.85,0,0,1-2-11.75h-.11c-.65,3.95-1.37,7.53-2.47,11.75L16.37,37.63Z"/><path class="cls-1" d="M50.79,1.1A58.34,58.34,0,0,1,61.11.33c5,0,8.57,1,10.93,3a10.45,10.45,0,0,1,3.63,8.18,11.22,11.22,0,0,1-3.19,8.41c-2.69,2.69-6.92,4-11.7,4a18.4,18.4,0,0,1-3.29-.23v14h-6.7Zm6.7,17.25a13.6,13.6,0,0,0,3.29.27c5.06,0,8.13-2.47,8.13-6.81,0-4.12-2.85-6.32-7.52-6.32a19,19,0,0,0-3.9.33Z"/><path class="cls-1" d="M85,27.13l-3.18,10.5h-7L86.7.6h8.62l12,37H100.1l-3.35-10.5ZM95.59,22l-2.91-9.12C92,10.66,91.36,8.13,90.82,6h-.11c-.55,2.14-1.1,4.72-1.76,6.92L86.09,22Z"/><path class="cls-1" d="M140.11,6.26H129.57V.6h28V6.26H146.87V37.63h-6.76Z"/><path class="cls-1" d="M168.61.6V15.43h15.66V.6H191v37h-6.75V21.31H168.61V37.63h-6.75V.6Z"/><path class="cls-1" d="M219.46,21.2h-14V32.08h15.6v5.55H198.75V.6h21.53V6.15H205.51v9.56h14Z"/><path class="cls-1" d="M258.28,22.52c-.22-4.78-.5-10.54-.44-15.54h-.17c-1.2,4.5-2.74,9.5-4.39,14.17l-5.38,16h-5.22l-5-15.81C236.31,16.64,235,11.59,234,7h-.11c-.17,4.83-.38,10.71-.66,15.76l-.82,14.89h-6.32l2.47-37h8.9l4.84,14.89c1.31,4.34,2.47,8.73,3.4,12.85h.16c1-4,2.26-8.57,3.68-12.91L254.65.6h8.79l2.14,37H259Z"/><path class="cls-1" d="M279.52,27.13l-3.19,10.5h-7L281.22.6h8.62l12,37h-7.25l-3.35-10.5Zm10.6-5.1-2.92-9.12c-.71-2.25-1.31-4.78-1.86-6.92h-.11c-.55,2.14-1.1,4.72-1.76,6.92L280.62,22Z"/><path class="cls-1" d="M309.66,6.26H299.11V.6h28V6.26H316.41V37.63h-6.75Z"/><path class="cls-1" d="M338.16.6v37H331.4V.6Z"/><path class="cls-1" d="M372.42,36.53c-1.59.82-5.11,1.64-9.56,1.64-11.75,0-18.89-7.35-18.89-18.62C344,7.36,352.43,0,363.74,0a21.32,21.32,0,0,1,9,1.65L371.27,7A18,18,0,0,0,364,5.6c-7.53,0-13,4.73-13,13.62,0,8.13,4.78,13.35,12.91,13.35a18.94,18.94,0,0,0,7.36-1.37Z"/><path class="cls-2" d="M42.68,112.45c-2.17,1.08-7.06,2.24-13.42,2.24-18.06,0-27.37-11.24-27.37-26.13,0-17.83,12.72-27.76,28.54-27.76,6.12,0,10.78,1.24,12.87,2.33l-2.4,9.38A25.52,25.52,0,0,0,31,70.57c-9.38,0-16.67,5.66-16.67,17.29,0,10.47,6.2,17.06,16.75,17.06a29.62,29.62,0,0,0,9.85-1.7Z"/><path class="cls-2" d="M96,87.24c0,17.14-10.39,27.53-25.67,27.53-15.51,0-24.58-11.71-24.58-26.6,0-15.66,10-27.37,25.43-27.37C87.21,60.8,96,72.82,96,87.24Zm-37.77.7c0,10.24,4.81,17.45,12.72,17.45s12.57-7.6,12.57-17.76c0-9.38-4.5-17.45-12.65-17.45C62.86,70.18,58.2,77.78,58.2,87.94Z"/><path class="cls-2" d="M103.75,113.92V61.65h13.8l10.86,19.16a152.18,152.18,0,0,1,8.53,17.91h.23a195.24,195.24,0,0,1-1-21.79V61.65H147v52.27H134.61L123.45,93.76a192.88,192.88,0,0,1-9.08-18.46l-.23.08c.31,6.9.46,14.27.46,22.8v15.74Z"/><path class="cls-2" d="M200.94,111.52a58.6,58.6,0,0,1-17.45,2.94c-9.54,0-16.44-2.4-21.25-7-4.81-4.5-7.45-11.33-7.37-19,.08-17.37,12.72-27.3,29.86-27.3,6.75,0,11.94,1.32,14.5,2.56l-2.48,9.46a29,29,0,0,0-12.18-2.25c-9.85,0-17.29,5.58-17.29,16.9,0,10.79,6.75,17.14,16.44,17.14a16,16,0,0,0,5.82-.77V93.21h-8.07V84h19.47Z"/><path class="cls-2" d="M210.19,62.35a103.81,103.81,0,0,1,15.74-1.09c7.76,0,13.18,1.17,16.9,4.11,3.11,2.48,4.81,6.13,4.81,10.94a13.87,13.87,0,0,1-9.23,12.87v.23c3.65,1.48,5.67,5,7,9.77,1.63,5.9,3.26,12.73,4.27,14.74h-12.1c-.85-1.47-2.09-5.74-3.64-12.17-1.4-6.52-3.65-8.3-8.46-8.38H221.9v20.55H210.19ZM221.9,84.84h4.65c5.89,0,9.38-3,9.38-7.52,0-4.81-3.25-7.22-8.68-7.29a30.25,30.25,0,0,0-5.35.38Z"/><path class="cls-2" d="M287.29,91.82H268.06v12.41h21.48v9.69H256.19V61.65h32.26v9.7H268.06V82.2h19.23Z"/><path class="cls-2" d="M298,101.75A30.34,30.34,0,0,0,311.11,105c5.43,0,8.3-2.25,8.3-5.66s-2.48-5.12-8.77-7.37C302,89,296.3,84.14,296.3,76.54c0-8.92,7.44-15.74,19.77-15.74a31.93,31.93,0,0,1,13.34,2.64L326.78,73a25,25,0,0,0-10.94-2.48c-5.12,0-7.6,2.33-7.6,5,0,3.34,2.95,4.81,9.69,7.37,9.23,3.41,13.58,8.22,13.58,15.59,0,8.76-6.75,16.2-21.1,16.2-6,0-11.86-1.55-14.81-3.17Z"/><path class="cls-2" d="M339.9,101.75A30.26,30.26,0,0,0,353,105c5.43,0,8.3-2.25,8.3-5.66s-2.48-5.12-8.76-7.37c-8.69-3-14.35-7.83-14.35-15.43,0-8.92,7.45-15.74,19.78-15.74a31.91,31.91,0,0,1,13.33,2.64L368.67,73a25,25,0,0,0-10.94-2.48c-5.12,0-7.6,2.33-7.6,5,0,3.34,2.95,4.81,9.7,7.37,9.22,3.41,13.57,8.22,13.57,15.59,0,8.76-6.75,16.2-21.1,16.2-6,0-11.86-1.55-14.81-3.17Z"/><rect class="cls-1" x="397.83" y="57.24" width="142.08" height="58.5" rx="3.34"/><path class="cls-3" d="M427.58,75.91v8h8.49v-8h3.66V96h-3.66V87.14h-8.49V96h-3.67V75.91Z"/><path class="cls-3" d="M446.19,81.48l2.62,7.77c.29.9.59,2,.8,2.83h.09c.24-.83.51-1.9.77-2.86l2.27-7.74h3.93L453,91.37c-2,5.42-3.34,7.83-5.07,9.32a7.4,7.4,0,0,1-3.84,1.88l-.83-3.1a6.59,6.59,0,0,0,4.14-3.31,1.38,1.38,0,0,0,.23-.65,1.65,1.65,0,0,0-.2-.72l-5.31-13.31Z"/><path class="cls-3" d="M458.66,96c.06-1,.12-2.6.12-4.09V74.83h3.66v8.64h.06a5.26,5.26,0,0,1,4.65-2.32c3.55,0,6.08,2.95,6.05,7.36,0,5.21-3.31,7.8-6.58,7.8a5,5,0,0,1-4.59-2.5H462L461.79,96Zm3.78-6a4,4,0,0,0,.09.86,3.38,3.38,0,0,0,3.25,2.56c2.3,0,3.7-1.84,3.7-4.76,0-2.57-1.23-4.65-3.67-4.65a3.43,3.43,0,0,0-3.25,2.68,4.39,4.39,0,0,0-.12,1Z"/><path class="cls-3" d="M476.2,86.15c0-2,0-3.36-.12-4.67h3.19l.12,2.77h.12a4.31,4.31,0,0,1,4-3.1,3.79,3.79,0,0,1,.86.09v3.45a5.1,5.1,0,0,0-1.07-.11A3.23,3.23,0,0,0,480,87.35a6.12,6.12,0,0,0-.12,1.13V96H476.2Z"/><path class="cls-3" d="M490.7,77.43a2.06,2.06,0,0,1-4.11,0,2.06,2.06,0,0,1,4.11,0ZM486.8,96V81.48h3.69V96Z"/><path class="cls-3" d="M507.79,74.83V91.9c0,1.49.06,3.1.12,4.09h-3.27l-.15-2.3h-.06a5.22,5.22,0,0,1-4.74,2.62c-3.45,0-6.19-3-6.19-7.41,0-4.86,3-7.75,6.49-7.75a4.59,4.59,0,0,1,4.08,1.91h.06V74.83Zm-3.66,12.69a5.17,5.17,0,0,0-.09-1A3.21,3.21,0,0,0,500.88,84c-2.35,0-3.66,2.08-3.66,4.8s1.31,4.58,3.63,4.58A3.23,3.23,0,0,0,504,90.77a4,4,0,0,0,.12-1.07Z"/></svg>