<svg id="Layer_1" data-name="Layer 1" xmlns="http://www.w3.org/2000/svg" viewBox="0 0 1467.28 258.53"><defs><style>.cls-1{fill:#fefefe;}.cls-2{fill:#bc1a21;}.cls-3{fill:#60799c;}.cls-4{fill:#bd1a21;}.cls-5{fill:#bd1b21;}.cls-6{fill:#bd1b20;}.cls-7{fill:#bf1c23;}.cls-8{fill:#bd1c22;}.cls-9{fill:#be1b23;}.cls-10{fill:#6f82a3;}.cls-11{fill:#bb1d1a;}.cls-12{fill:#bf1a1c;}.cls-13{fill:#363537;}.cls-14{fill:#be1b1f;}.cls-15{fill:#eafff4;}</style></defs><path class="cls-1" d="M139.22,94.51a.52.52,0,0,0,.19,0h1.51C140.38,94.54,139.77,94.54,139.22,94.51Zm0,0a.52.52,0,0,0,.19,0h1.51C140.38,94.54,139.77,94.54,139.22,94.51Zm0,0a.52.52,0,0,0,.19,0h1.51C140.38,94.54,139.77,94.54,139.22,94.51Zm0,0a.52.52,0,0,0,.19,0h1.51C140.38,94.54,139.77,94.54,139.22,94.51Zm0,0a.52.52,0,0,0,.19,0h1.51C140.38,94.54,139.77,94.54,139.22,94.51Zm0,0a.52.52,0,0,0,.19,0h1.51C140.38,94.54,139.77,94.54,139.22,94.51Zm0,0a.52.52,0,0,0,.19,0h1.51C140.38,94.54,139.77,94.54,139.22,94.51Zm0,0a.52.52,0,0,0,.19,0h1.51C140.38,94.54,139.77,94.54,139.22,94.51Zm-26.89,37.37v0a2.28,2.28,0,0,1,.28.22A1,1,0,0,0,112.33,131.88Zm26.89-37.37a.52.52,0,0,0,.19,0h1.51C140.38,94.54,139.77,94.54,139.22,94.51Zm0,0a.52.52,0,0,0,.19,0h1.51C140.38,94.54,139.77,94.54,139.22,94.51Zm-26.89,37.37v0a2.28,2.28,0,0,1,.28.22A1,1,0,0,0,112.33,131.88ZM261.77,95.7a.68.68,0,0,0-.25-.36,2.14,2.14,0,0,0-1.41-.33c-11.05.07-22.17,0-33.29,0-.79,0-1.26.18-1.52.62a5.14,5.14,0,0,0-.21.68c0,.15,0,.29,0,.43-.11,1.2-.18,2.39-.32,3.62s-.22,2.38-.44,3.57c-.11.79-.25,1.59-.43,2.38q-4.67,21.24-15.35,36.9a85.39,85.39,0,0,1-10,12.06q-16.57,16.68-42.6,24.48c-6,1.77-5.74,3.15-5.2-4.65.43-.08.83-.08,1.26-.18a86.44,86.44,0,0,0,42.9-24.41c19.42-20.29,27.44-44.59,23.86-72.36-2.85-22-13.1-40.26-30.07-54.56C168.83,6.84,145.69.16,120.05,3.48,96,6.55,76.33,18,61.67,37.31,46.39,57.39,40.94,80.17,45.09,104.9c3.61,21,13.9,38.35,30.3,52a83.07,83.07,0,0,0,37.51,18.23,23.8,23.8,0,0,0,.11,3.58c.36,2.24-.65,2.34-2.56,1.95A91.41,91.41,0,0,1,66,156.18c-.76-.76-1.55-1.56-2.24-2.31-1.48-1.52-2.89-3.15-4.26-4.77a96.47,96.47,0,0,1-9.17-13.18c-.61-1-1.23-2.13-1.77-3.21-.83-1.59-1.66-3.25-2.42-4.91s-1.44-3.4-2.13-5.09c-.87-2.28-1.66-4.59-2.35-6.94s-1.26-4.73-1.77-7.11-.86-4.84-1.15-7.29c-.11-1.23-.25-2.46-.33-3.69a5,5,0,0,0-.1-.76,2.31,2.31,0,0,0-.19-.61c-.07-.18-.14-.32-.21-.47a1.43,1.43,0,0,0-.29-.36,2,2,0,0,0-.83-.36A6,6,0,0,0,35.31,95c-10.26.07-20.47.15-30.76,0a7.54,7.54,0,0,0-1.77.15l-.29.1a.67.67,0,0,0-.33.22c-.54.43-.68,1.19-.58,2.49A132.87,132.87,0,0,0,9,133.54c.94,2.56,2,5.12,3.11,7.65s2.34,5,3.68,7.51,2.6,4.7,3.93,6.94,2.78,4.47,4.23,6.6a140,140,0,0,0,9.21,12.13c1.62,1.92,3.28,3.76,5,5.53a123.15,123.15,0,0,0,45.72,30.22c2.34.9,4.73,1.73,7.18,2.53s4.91,1.51,7.44,2.16c3.79,1,7.69,1.85,11.66,2.57a8.68,8.68,0,0,1,1.45.4c1.15.5,1.51,1.33,1.51,3.1-.14,8.16-.07,16.25-.07,24.37,0,3,0,6,0,9a3.63,3.63,0,0,0,.26,1.59,1,1,0,0,0,.21.29,2.81,2.81,0,0,0,1.88.43q16.41-.11,32.82,0a6.57,6.57,0,0,0,.94,0,2.83,2.83,0,0,0,.4-.11.8.8,0,0,0,.36-.14.88.88,0,0,0,.29-.25,2.71,2.71,0,0,0,.4-1.81c0-3.18,0-6.32,0-9.46,0-2.56,0-5.09,0-7.62v-1.84c0-4.22,0-8.45,0-12.64a13.36,13.36,0,0,1,.22-3.46,1.24,1.24,0,0,1,.32-.58c.58-.65,1.7-.87,3.87-1.34q42.24-8.65,69.43-36.32a129.77,129.77,0,0,0,14.91-18.34,148,148,0,0,0,10.29-17.95c.65-1.26,1.23-2.56,1.84-3.86A108.47,108.47,0,0,0,257.15,125c1-3.58,1.88-7.19,2.53-10.84s1.19-7.33,1.55-11c.18-1.88.33-3.72.43-5.6A5.46,5.46,0,0,0,261.77,95.7ZM151.18,158.63c-.15.18-.4.36-.58.54,0-6.35.07-12.06,0-17.8v0a1.82,1.82,0,0,1,.18-.83,1.1,1.1,0,0,1,.14-.26c.08-.07.11-.14.18-.18l0,0a2.84,2.84,0,0,1,1.23-.36c4.08-.65,8.16-1.41,12.2-2.46.47-.14,1.05-.43,1.37.11.15.22,0,.83-.18,1.19C162.26,145.92,157.89,152.71,151.18,158.63Zm30.33-6.21A69.82,69.82,0,0,1,154.57,166a74.19,74.19,0,0,0,11.05-12.49,84.91,84.91,0,0,0,9.5-17.91,3.8,3.8,0,0,1,2.31-2.42c12-4.62,22.78-11.16,31.23-21.09A77.59,77.59,0,0,1,181.51,152.42Zm-2.57-27.76c.91-4.27,1.66-8,2.39-11.7a131.37,131.37,0,0,0,1.95-17.41c0-1-.08-1.84,1.33-1.77h24.23C204.94,110,192.81,117.79,178.94,124.66Zm-.07-69.4c13,6.32,24.44,13.54,29.14,27.87,1,3.07.87,3.07-2.38,3.07H185.3c-1,0-2,.18-2.1-1.44a132.15,132.15,0,0,0-4-28.09C179.12,56.38,179.05,56.09,178.87,55.26Zm-1.12-30.55c15.09,10.54,27.48,27.8,31.09,43.62a69.45,69.45,0,0,0-11-10.47,83,83,0,0,0-20-10.94,3.86,3.86,0,0,1-2.6-2.13c-4.55-11.74-10.9-22.32-20.54-30.8A66.16,66.16,0,0,1,177.75,24.71Zm-42.32-9.35c0-1.55.33-1.88,1.84-1.55a33.35,33.35,0,0,1,15.35,8.66c.87.87,1.84,1.77,2.71,2.64v0h0v0c.11.22.22.4.33.58a3.78,3.78,0,0,0,.65.68,3.61,3.61,0,0,1,.43.29,0,0,0,0,1,0,0v0a77.78,77.78,0,0,1,8.41,13.54c.36.68,1.23,1.51.65,2.23s-1.59-.07-2.38-.25a130.75,130.75,0,0,0-25.93-3.47c-1.51-.07-2.13-.46-2.13-2.2C135.58,29.55,135.51,22.47,135.43,15.36Zm0,32.86c0-1.3.26-1.92,1.84-1.85a119.87,119.87,0,0,1,31.2,5.1,2.79,2.79,0,0,1,2,2,131.36,131.36,0,0,1,5.2,30.66c.11,1.73-.47,2.13-2.13,2.13-6-.11-12,0-18,0s-12.09-.07-18.05,0c-1.55,0-2.1-.33-2.1-1.95Q135.55,66.2,135.43,48.22ZM127.85,74c0,3.47-.07,6.93,0,10.4,0,1.48-.47,1.88-1.92,1.88-6.1-.07-12.2,0-18.3,0s-12,0-18.06,0c-1.55,0-2-.36-1.91-2A124.59,124.59,0,0,1,93,53.34a2.36,2.36,0,0,1,1.8-1.84,124.92,124.92,0,0,1,31.74-5.2c1.91-.07,1.26,1.19,1.26,2Q127.87,61.13,127.85,74Zm0-60.26V37.56c0,.84-.36,1.16-1.19,1.23a136.7,136.7,0,0,0-28.81,4.08,1.39,1.39,0,0,1-.47-.21C101.89,30,114.67,15,127.81,13.7Zm-18.52,0c-9,7.51-15.31,17-19.71,27.69a11.36,11.36,0,0,1-6.9,6.83C72.61,52.3,63.54,58.07,56.32,66.31c-.36.47-.65,1-1.41.9C61.41,42.51,83.91,20,109.29,13.7ZM84.49,55.29c-1.23,5.56-2.42,10.65-3.14,15.82-.58,4.26-.87,8.59-1.16,12.85-.14,1.7-.54,2.28-2.31,2.28q-10.56-.17-21.12,0c-1.95,0-2-.76-1.66-2.24a33.22,33.22,0,0,1,7.14-13.25C68.27,63.89,75.86,59.34,84.49,55.29ZM59.9,93.78H78.17c1.12,0,1.88-.07,2,1.48a133.92,133.92,0,0,0,4.51,29.47c-12.31-5.92-23-12.68-28.34-25.35C53.9,93.78,54,93.78,59.9,93.78Zm48.2,72.36a79.67,79.67,0,0,1-53.37-54.09,105,105,0,0,0,8.34,8.13,80.79,80.79,0,0,0,22.21,12.64A5.19,5.19,0,0,1,88.46,136C93,147,98.89,157.08,108.1,165a2.18,2.18,0,0,1,.36.61C108.35,165.75,108.24,165.93,108.1,166.14Zm4.8-6.86-.57-.54h0c-7-5.89-11.52-13.43-15.49-21.88,5.34,1.12,10.33,2.31,15.49,3h0a1.7,1.7,0,0,0,.57.14Zm14.95-64.45a90.78,90.78,0,0,1-12.13.18c-1.3,0-2.06.11-2.46.8a1.27,1.27,0,0,0-.14.43,1.15,1.15,0,0,0-.11.5,1.91,1.91,0,0,0,0,.65v.33c.11,10.43,0,20.91,0,31.38,0,1.12-.07,2.2-.11,3.32a2.87,2.87,0,0,1-.57-.11h0a143.35,143.35,0,0,1-17.19-3.79,3,3,0,0,1-2.2-2.2,126,126,0,0,1-5.2-30.41c-.11-1.55.18-2.2,2-2.2,12.06.07,24.16.07,36.14.07.73,0,1.66-.36,1.95.47a1.55,1.55,0,0,1,.15.58Zm22.06.72a2.17,2.17,0,0,0-1.48-.54,5.2,5.2,0,0,0-1.08-.07,73,73,0,0,1-11.92-.11.64.64,0,0,1,0-.29s0-.11,0-.14v0s0-.07.07-.11c.18-.54.83-.47,1.41-.47,12.38,0,24.73,0,37.11-.07,1.41,0,1.67.58,1.59,1.84a129.17,129.17,0,0,1-5.2,30.87,2.92,2.92,0,0,1-2.27,2.1,122.09,122.09,0,0,1-16.9,3.79c0-.11,0-.22,0-.29v.29a3.82,3.82,0,0,0-.57.11v-.07c-.47-11.41-.26-22.79-.18-34.2a4.76,4.76,0,0,0-.22-1.87A1.4,1.4,0,0,0,149.91,95.55Zm1.37,36.33V132c0-.07,0-.11,0-.14ZM139.41,94.54h1.51c-.54,0-1.15,0-1.7,0A.52.52,0,0,0,139.41,94.54Zm-27.08,37.37a2.28,2.28,0,0,1,.28.22,1,1,0,0,0-.28-.25Zm0,0v0a2.28,2.28,0,0,1,.28.22A1,1,0,0,0,112.33,131.88Zm26.89-37.37a.52.52,0,0,0,.19,0h1.51C140.38,94.54,139.77,94.54,139.22,94.51Zm0,0a.52.52,0,0,0,.19,0h1.51C140.38,94.54,139.77,94.54,139.22,94.51Zm-26.89,37.37v0a2.28,2.28,0,0,1,.28.22A1,1,0,0,0,112.33,131.88Zm26.89-37.37a.52.52,0,0,0,.19,0h1.51C140.38,94.54,139.77,94.54,139.22,94.51Zm0,0a.52.52,0,0,0,.19,0h1.51C140.38,94.54,139.77,94.54,139.22,94.51Zm0,0a.52.52,0,0,0,.19,0h1.51C140.38,94.54,139.77,94.54,139.22,94.51Zm0,0a.52.52,0,0,0,.19,0h1.51C140.38,94.54,139.77,94.54,139.22,94.51Zm0,0a.52.52,0,0,0,.19,0h1.51C140.38,94.54,139.77,94.54,139.22,94.51Zm0,0a.52.52,0,0,0,.19,0h1.51C140.38,94.54,139.77,94.54,139.22,94.51Zm0,0a.52.52,0,0,0,.19,0h1.51C140.38,94.54,139.77,94.54,139.22,94.51Zm0,0a.52.52,0,0,0,.19,0h1.51C140.38,94.54,139.77,94.54,139.22,94.51Z"/><path class="cls-1" d="M311.64,217.88c-.29-1.33-1-1.48-2.13-1.48-3,0-6.11.11-9.14-.07-1.59-.07-2.06.65-2.35,1.95-.83,3.79-1.73,7.58-2.56,11.37-1.88,8.24-3.72,16.51-5.6,24.74-.36,1.51-.25,2.16,1.63,2.13,4.51-.07,4.51,0,5.52-4.26a19.72,19.72,0,0,0,.47-1.95c.18-1.27.76-1.84,2.2-1.77,3.25.11,6.43.14,9.65,0,1.87-.15,2.41.68,2.81,2.27,1.48,6,1.48,6,8.05,5.53C317.31,243.45,314.45,230.67,311.64,217.88ZM308.39,242c-1.27-.1-2.57,0-3.79,0-5.24,0-5.28,0-4.16-5.09.91-4.16,1.84-8.24,2.78-12.32.18-.9.26-1.77,1.66-1.77s1.41.87,1.59,1.81c1.12,5.16,2.24,10.36,3.43,15.53C310.26,241.61,310,242.15,308.39,242Z"/><path class="cls-1" d="M319.07,167.08c-.83-7.44-4.83-11.05-12.52-11.16-4-.14-7.95,0-12-.07-1.73-.07-2.31.4-2.27,2.24.14,5.92,0,11.84,0,17.76v15.5c0,4.69,0,4.62,4.62,4.69,1.84,0,2.13-.65,2.09-2.2-.14-2.71,0-5.46-.07-8.09-.07-1.48.4-2,1.84-1.92,2.32.08,4.63.08,6.86,0a11,11,0,0,0,10.87-8.7A23.31,23.31,0,0,0,319.07,167.08Zm-6.78,4.51c-.8,4.08-2.57,5.64-6.76,5.64h-2c-4.55,0-4.55,0-4.55-4.44,0-2.78.07-5.64,0-8.42-.07-1.37.29-2,1.84-1.91,2.42.18,4.84-.22,7.33.32a5,5,0,0,1,4,4.08A10.48,10.48,0,0,1,312.29,171.59Z"/><path class="cls-1" d="M319.42,135.09c-1.65-1.48-1.24-4.62-1.71-7-1.25-6.57-2.43-13.13-3.61-19.7-.06-.3-.06-.71-.77-.77-1.25,6.8-2.49,13.67-3.73,20.47-.36,2-.77,3.85-1,5.8-.17,1.13-.53,1.6-1.71,1.6-2.49-.06-4.92-.06-7.4,0a1.43,1.43,0,0,1-1.66-1.42q-3.9-18.56-7.87-37.22c-.24-1.07-.12-1.6,1.13-1.48h.23c5.21-.24,5.15-.24,6.16,4.85,1.59,8.76,3.25,17.46,4.91,26.22.12.65-.06,1.53,1.06,2a52.46,52.46,0,0,0,1.9-8.82c1.48-7.28,2.9-14.62,4.14-22,.3-1.72.95-2.19,2.6-2.19,5.27,0,5.27-.06,6.22,4.91,1.65,8.82,3.37,17.63,5.09,26.39.12.59.06,1.24,1,1.66,1.07-3,1.31-6,1.9-9,1.42-7.28,2.78-14.61,4-21.95.3-1.72.89-2.19,2.6-2.19,4.68.06,4.68,0,3.73,4.55-2.25,10.89-4.55,21.84-6.74,32.79-.42,2.25-1.19,3.14-3.55,2.84S321,136.39,319.42,135.09Z"/><path class="cls-1" d="M322.91,164.68c.83-5.57,4.74-8.94,10.95-9.35,4.09-.3,8.11.47,12.13,1.06,1.07.18,1.31.71,1.31,1.72.11,4.67.11,4.61-4.5,4.32-2.84-.18-5.74-.77-8.64-.42-3.32.48-4.8,2.07-4.8,4.85a4.14,4.14,0,0,0,3,4c2.49,1,5.09,1.72,7.64,2.66,7.39,2.66,9.82,7.28,7.81,14.91-1.42,5.39-5.8,8.17-12.78,8.11a78.86,78.86,0,0,1-9.83-1.12c-1.06-.18-1.36-.59-1.42-1.72-.06-4.32.3-4.73,4.56-4.32a67.37,67.37,0,0,0,7.63.48c3.38-.12,5.21-1.43,5.62-4,.54-3-.59-4.85-4-6-2.31-.83-4.73-1.37-7-2.25C324.33,175.21,322,171.13,322.91,164.68Z"/><path class="cls-1" d="M348.48,247.47c-1.07,6.09-5.21,9.41-11.84,9.52-3.67.12-7.22-.59-10.83-1.06-1.3-.18-1.83-.71-1.54-2a18.22,18.22,0,0,0,.18-2.55c.06-1.66.71-2.07,2.43-1.77a52.6,52.6,0,0,0,9.59.77c3.43-.18,5.08-1.42,5.56-4.15s-.65-4.73-3.91-5.91c-2.42-.89-5-1.42-7.45-2.37-6-2.37-8.29-6.57-7.28-13.14.83-5.21,4.79-8.52,10.77-9,.89-.06,1.83,0,2.78,0a66.57,66.57,0,0,1,9.05.94c1.42.18,1.84.71,1.78,2.13-.12,4.32-.06,4.32-4.32,4-2.9-.18-5.74-.71-8.64-.42-3.49.36-5,2-5,4.91a4,4,0,0,0,3,4c2.6,1,5.26,1.77,7.93,2.72C347.35,236.46,349.72,240.54,348.48,247.47Z"/><path class="cls-1" d="M370.74,104.62c-1.4-5.71-5.2-9-11.05-9.61C350,94,343.63,97.5,342,107.58c-.43,2.63-.43,5.38-.61,7.72.07,4.08.18,8,1.3,11.59,1.3,4.16,3.79,7.19,8.05,8.42a22.66,22.66,0,0,0,10.54.36,11.21,11.21,0,0,0,9.39-8.52A42.54,42.54,0,0,0,370.74,104.62Zm-6.57,20c-.94,3.5-3.36,4.8-7.4,4.8s-6.25-1.41-7.51-4.8a13.89,13.89,0,0,1-.72-2.89c-.22-2-.33-4.08-.47-6.11.14-3,.14-6.1,1.19-9a7,7,0,0,1,7.22-5.2c4-.07,6.57,1.41,7.62,5A31.65,31.65,0,0,1,364.17,124.66Z"/><path class="cls-1" d="M376.53,251c-1.84,3.78-5.21,5.44-9.17,5.91-4.32.48-8.58-.35-12.84-1.06-.89-.18-1.19-.65-1.25-1.6-.12-4.2.36-4.73,4.5-4.38a58.77,58.77,0,0,0,7.87.48c3.37-.24,5.09-1.54,5.5-4.21.42-2.95-.71-4.73-4-5.85-2.49-.89-5-1.48-7.46-2.43-6-2.37-8.28-6.57-7.28-12.84.89-5.45,4.8-8.82,10.83-9.23,1-.06,1.9,0,2.78,0a70,70,0,0,1,9.35,1c1.07.18,1.54.59,1.43,1.66-.06.83-.12,1.66-.12,2.54,0,1.78-.54,2.43-2.55,2.13a46.69,46.69,0,0,0-9.88-.71c-3.73.3-5.45,2-5.33,5.09a4.14,4.14,0,0,0,3.08,3.91c2.49,1,5.15,1.71,7.69,2.66C377.24,236.81,380,243.74,376.53,251Z"/><path class="cls-1" d="M380.44,155.86c-2,4.08-3.67,8-5.8,11.6-4.5,7.39-6.93,15.15-5.74,23.85v.23c-.06,4.91-.48,5.21-5.57,4.5-1.3-.24-1.06-1.07-1.06-1.83-.06-4.27-.12-8.47,0-12.73a10.91,10.91,0,0,0-1.19-5.09c-3.43-6.57-6.74-13.25-10.12-19.88,0-.06,0-.18,0-.59h6.16c1.24,0,1.36,1.06,1.77,1.83,2.19,4.26,4.32,8.52,6.69,13.32,2.19-4.5,4.26-8.47,6.1-12.49.88-2,2.07-3.08,4.38-2.72A35.38,35.38,0,0,0,380.44,155.86Z"/><path class="cls-1" d="M400.75,119.38c5.74-3.82,5.63-9.56,4.62-15.41-.9-5.06-3.86-7.59-8.95-8.24-5.49-.72-11-.18-16.51-.36-1.22-.07-1.37.54-1.37,1.52v9.89c0,8.81,0,17.66,0,26.47,0,1.7.39,2.31,2.24,2.24,4.36-.08,4.36,0,4.44-4.62v-2.78c0-6.5,0-6.43,6.57-6.32a2.08,2.08,0,0,1,2.31,1.69c.68,2.1,1.59,4.16,2.35,6.18,2.31,6.14,2.31,6.14,9.42,5.67-1.84-4.73-3.54-9.17-5.27-13.65C400.28,120.86,399.7,120.11,400.75,119.38Zm-1.88-8.73c-.65,3-2.27,4.44-5.16,4.55-1.12.07-2.24,0-3.32,0-5.2,0-5.2,0-5.2-5.35a3.93,3.93,0,0,1,0-1c.29-2.28-1-6.11.65-6.58a16.09,16.09,0,0,1,10.47.51C398.69,103.89,399.63,107.14,398.87,110.65Z"/><path class="cls-1" d="M396.06,155.33a47.62,47.62,0,0,1,10.06,1c1.77.24,2.37.95,2.25,2.78-.3,3.73-.18,3.67-3.73,3.43-2.72-.17-5.39-.76-8.11-.35A6,6,0,0,0,391,167a39.93,39.93,0,0,0-.18,17.34c.77,3.67,2.72,5.15,6.63,5.45a47.9,47.9,0,0,0,9.11-.77c1.19-.18,1.72,0,1.66,1.36-.24,5.86,1.48,4.38-4.74,5.56a32.46,32.46,0,0,1-6.27.59c-8.05-.06-12.25-3.73-13.31-11.66a48.88,48.88,0,0,1-.54-8.7,42,42,0,0,1,1-11.24C385.94,158.7,389.61,155.68,396.06,155.33Z"/><path class="cls-1" d="M412.34,230.3c-1-8.7-4.62-13.39-11.84-14.26-9.39-1.26-16,1.66-17.88,12.13a45,45,0,0,0,.36,18.64c1.09,4.62,3.61,8.16,8.49,9.53a23.6,23.6,0,0,0,10,.36c5.23-.9,8.34-4,9.89-9,1.08-3.58,1.12-7.19,1.3-11.45C412.59,234.67,412.59,232.47,412.34,230.3Zm-7.58,15.31a6.66,6.66,0,0,1-6.43,4.73c-3.5.18-6.93-.28-8.16-4a29.62,29.62,0,0,1,.11-19.9c1.19-3.14,4-4.08,7.22-4s5.56,1.23,6.86,4.26c1.48,3.25,1.41,6.68,1.55,10.19C405.77,239.84,405.84,242.8,404.76,245.61Z"/><path class="cls-1" d="M429.2,135.44c-5,0-10,0-15,.06-1.42,0-1.84-.41-1.84-1.83.12-6.1.06-12.2.06-18.29,0-5.92.06-11.9-.06-17.81,0-1.78.48-2.25,2.25-2.25,4.32.12,4.32,0,4.32,4.26,0,9,.06,18.11,0,27.16,0,1.66.36,2.19,2.07,2.13,3.49-.12,6.93.06,10.42-.06,1.66-.06,2.37.3,2.37,2.19C433.64,135.44,433.76,135.44,429.2,135.44Z"/><path class="cls-1" d="M424.7,228.35a46.17,46.17,0,0,0,0,16.16c.65,3.84,3,5.68,7.16,5.8a46.49,46.49,0,0,0,8.58-.77c1.19-.18,1.84.06,1.72,1.36v.24c.29,4.67.29,4.67-4.44,5.32a42.74,42.74,0,0,1-7.81.53c-6-.11-9.88-3.19-11.42-8.93a37.69,37.69,0,0,1-1.07-11.54,40,40,0,0,1,1.07-11.6c1.54-5.8,5.32-8.82,11.3-9.11a45.22,45.22,0,0,1,10.59,1.06c1.54.24,2.07.95,2,2.55-.3,3.78-.24,3.78-3.91,3.55a60.36,60.36,0,0,0-6.57-.42C427.72,222.61,425.41,224.39,424.7,228.35Z"/><path class="cls-1" d="M443.16,160.24c0,11.18-.05,22.37.06,33.55,0,1.78-.41,2.25-2.25,2.25-4.43-.12-4.43,0-4.43-4.38,0-3.43-.06-6.92.06-10.41,0-1.66-.24-2.43-2.19-2.37-3.79.18-7.58.12-11.43,0-1.47,0-2,.35-2,2,.18,4.44,0,8.82.12,13.26.06,1.59-.47,1.95-2,1.95-4.68-.06-4.68,0-4.68-4.62v-15.5c0-5.92.06-11.84,0-17.75-.06-1.66.3-2.37,2.13-2.31,4.5.06,4.5-.06,4.5,4.55,0,3.32.06,6.57,0,9.89-.06,1.42.18,2.13,1.84,2.07,4-.12,8-.12,11.95-.06,1.36.06,1.78-.36,1.78-1.72-.12-4.14,0-8.28-.06-12.42-.06-1.66.29-2.37,2.19-2.31C443.16,156,443.16,155.86,443.16,160.24Z"/><path class="cls-1" d="M454.94,220.78c-.06,11.18-.12,22.31,0,33.49,0,1.78-.47,2.31-2.25,2.25-4.5-.06-4.44,0-4.44-4.32.06-5.38,0-10.71,0-16h.06c0-5.86.06-11.66-.06-17.51-.06-1.78.48-2.31,2.25-2.31C454.88,216.46,454.94,216.34,454.94,220.78Z"/><path class="cls-1" d="M457.78,160.06c0,11.18-.06,22.37.06,33.55,0,1.78-.3,2.49-2.31,2.43-4.2-.18-4.2-.06-4.2-4.32V176c0-5.92.06-11.84-.06-17.81-.06-2,.59-2.37,2.43-2.31C457.78,156,457.78,155.86,457.78,160.06Z"/><path class="cls-1" d="M467.22,107.43c-1.15-8-4.91-11.34-13-11.84-4.23-.29-8.49-.11-12.67-.29-1.67,0-2.21.47-2.13,2.13.07,6,0,12.1,0,18s.07,12,0,18.06c-.08,1.55.39,2,2,2,4.26-.11,8.44.07,12.7-.08,6.87-.14,11.31-3.82,12.68-10.5A49.17,49.17,0,0,0,467.22,107.43Zm-7.11,15.71c-.94,3.9-3.5,5.74-7.66,5.67-2.05,0-4.76.94-6.06-.36s-.33-4-.36-6.14c-.08-2.28,0-4.59,0-6.9,0-3.75,0-7.62-.08-11.41,0-1.7.55-2.16,2.13-2.06,2.21.18,4.45-.07,6.65.29a6.33,6.33,0,0,1,5.49,5.27A36.35,36.35,0,0,1,460.11,123.14Z"/><path class="cls-1" d="M490.66,255.07c-2.75-12.34-5.57-24.73-8.31-37.08-.29-1.26-.76-1.66-2-1.59-3.11,0-6.25,0-9.39,0-1.44-.07-1.91.47-2.13,1.81-.83,4-1.84,8-2.78,12.09-1.95,8.63-3.9,17.26-5.81,26,6.35.79,6.35.79,7.76-5.1a4.74,4.74,0,0,0,.29-.93c.07-1.3.65-1.7,2-1.67,3.5.08,6.93.08,10.43,0a1.76,1.76,0,0,1,2.06,1.62,34.17,34.17,0,0,0,1.23,4.7c.18.58,0,1.66,1.19,1.59,1.84,0,3.68-.11,5.56-.18A5,5,0,0,0,490.66,255.07Zm-12-13.07a20.49,20.49,0,0,0-3.32,0c-5.31,0-5.31,0-4.15-5.17,1-4.15,1.91-8.23,2.78-12.38.18-1,.5-1.63,1.73-1.63s1.23.83,1.48,1.63c1.05,5.09,2.2,10.25,3.36,15.34C480.94,241.53,480.47,242.26,478.63,242Z"/><path class="cls-1" d="M485.31,157.4c-.29-1.19-.76-1.55-1.88-1.55-3.21.07-6.46.07-9.64,0-1.26,0-1.73.4-2,1.66-.65,3.14-1.41,6.29-2.13,9.39-2.06,9.06-4.08,18.13-6.21,27.19-.29,1.34-.18,1.88,1.44,1.95,4.77,0,4.77.11,5.92-4.51a9,9,0,0,1,.29-1.48c.18-1.49.83-2.06,2.49-2,3,.11,5.89.14,8.85,0,2-.15,2.92.4,3.43,2.53,1.37,5.67,1.48,5.63,7.4,5.3a1.76,1.76,0,0,0,.54-.14C491,182.9,488.09,170.19,485.31,157.4ZM482,181.52c-1.19-.1-2.38,0-3.61,0-5.45,0-5.45,0-4.22-5.38,1-4.15,1.95-8.23,2.85-12.34.18-1,.47-1.49,1.55-1.49s1.41.65,1.59,1.52c1.12,5.2,2.24,10.44,3.43,15.64C483.9,181,483.65,181.7,482,181.52Z"/><path class="cls-1" d="M519.27,218.88c-.18,4.15-.06,4.15-4.2,4.15-6.39,0-6.39,0-6.39,6.39v10.41c0,4.91-.06,9.83.05,14.74,0,1.6-.41,1.95-2,1.95-4.67,0-4.67.06-4.67-4.62,0-8.75-.06-17.57.06-26.39,0-1.89-.36-2.72-2.49-2.54s-4.38,0-6.57.06c-1.06.05-1.42-.3-1.54-1.42-.35-5.21-.41-5.21,4.86-5.21,6.8,0,13.55.06,20.35-.06C518.68,216.34,519.33,216.87,519.27,218.88Z"/><path class="cls-1" d="M522.11,158c-.06,4.5,0,4.5-4.56,4.5-5.92,0-5.92,0-5.92,5.91v10.89c0,4.85-.06,9.65.06,14.5.06,1.72-.41,2.31-2.19,2.25-4.49-.12-4.49,0-4.49-4.56,0-8.93,0-17.93.06-26.92,0-1.66-.48-2.19-2.13-2.07-2.19.11-4.38-.06-6.63,0-1.25,0-1.72-.23-1.78-1.65-.06-5-.18-5,4.85-5,6.87,0,13.73.06,20.6,0C521.69,155.8,522.11,156.39,522.11,158Z"/><path class="cls-1" d="M529.27,254.15c0,1.9-.47,2.43-2.43,2.37-4.08-.12-4.08,0-4.08-4.08,0-11.19.06-22.37-.06-33.5,0-1.95.41-2.9,2.49-2.54a8,8,0,0,0,2.07,0c1.6-.24,2,.47,2,2-.06,6,0,12,0,18S529.09,248.24,529.27,254.15Z"/><path class="cls-1" d="M547.85,179.86c5.81-3.9,5.63-9.64,4.69-15.49-.83-4.84-3.86-7.47-8.77-8.12-5.49-.76-11-.18-16.5-.4-1.19,0-1.41.47-1.41,1.55v37.09c0,.61-.25,1.48.83,1.48,1.77-.08,3.79.36,5.27-.36,1-.4.18-2.5.29-3.8,0-1,0-2,0-3,0-6.68,0-6.65,6.68-6.5,1.23,0,1.84.32,2.24,1.44.79,2.17,1.62,4.3,2.42,6.43,2.38,6.14,2.38,6.14,9.35,5.67-1.77-4.62-3.47-9.17-5.2-13.72C547.45,181.34,546.87,180.59,547.85,179.86Zm-1.63-9.53c-.54,3.68-2.38,5.34-6.17,5.42-2,0-4-.15-6.1,0-1.34,0-1.77-.51-1.7-1.81,0-1.62,0-3.36,0-5.38.18-1.7-.9-4.37.4-5.56,1.62-1.48,4.33-.47,6.57-.47C544.49,162.46,546.87,165.2,546.22,170.33Z"/><path class="cls-1" d="M559.39,191.54c0-11,.06-22.07,0-33.08-.06-2.07.53-2.9,2.66-2.6a4.44,4.44,0,0,0,1.78,0c1.78-.24,2.31.47,2.25,2.25-.12,6-.06,12-.06,18s-.06,11.83.06,17.75c0,1.72-.53,2.13-2.13,2.13C559.45,196,559.39,196,559.39,191.54Z"/><path class="cls-1" d="M566.08,230.67c-.83-8.78-4.47-13.69-11.7-14.63-10.11-1.3-16.28,2.06-18,12.24a45.37,45.37,0,0,0,.36,18.42c1,4.66,3.61,8.23,8.38,9.57a22.68,22.68,0,0,0,10.07.43c5.35-.83,8.52-4,10-9.17,1.09-3.5,1.09-7.19,1.3-10.65C566.34,234.75,566.26,232.65,566.08,230.67Zm-7.51,14.84a6.65,6.65,0,0,1-6.68,4.83c-4.33.26-7-.93-8.12-4.11a30.36,30.36,0,0,1,.18-19.68c1.08-3.11,4-4.19,7.18-4.12s5.6,1.19,7,4.12c1.48,3.29,1.41,6.75,1.48,10.18C559.51,239.69,559.58,242.65,558.57,245.51Z"/><path class="cls-1" d="M573.54,187.34a49.9,49.9,0,0,1,.11-22.9c1.48-5.86,5-8.58,11-9.11,3.85-.3,7.58.47,11.36,1.18,1.3.24,1.36,1,1.3,2.13-.29,4.14-.23,4-4.26,3.85-2.42-.12-4.85-.66-7.33-.3-3.38.41-5.09,2.31-5.86,5.39-.71,2.84-.59,5.74-.59,8.93a32.88,32.88,0,0,0,.53,7.52c1,4,2.84,5.56,6.86,5.8a42.49,42.49,0,0,0,8.58-.71c1.42-.24,1.9-.06,2,1.48.23,4.73.29,4.73-4.5,5.44a38.71,38.71,0,0,1-7.81.47C578.62,196.22,574.9,193.44,573.54,187.34Z"/><path class="cls-1" d="M602.83,254.74c0,1.48-.53,1.84-1.9,1.78-2.72-.12-5.91.83-8-.35s-2.31-4.74-3.32-7.22c-3-7.28-5.8-14.62-8.64-21.9a4.08,4.08,0,0,0-1.24-2.19,4,4,0,0,0-.36,2.54c-.06,8.88-.11,17.82,0,26.69.06,2.08-.59,2.49-2.54,2.43-4-.12-4,0-4-4,0-11.25.06-22.49-.05-33.8,0-1.83.41-2.54,2.36-2.42,2.73.23,6.1-.77,7.93.47s2.31,4.74,3.26,7.22c2.78,7.28,5.56,14.56,8.34,21.78a21.91,21.91,0,0,0,1,2.19c.89-.89.53-1.78.53-2.55.06-8.81.12-17.63,0-26.39-.06-2.13.47-3,2.66-2.66a9.41,9.41,0,0,0,2.25,0c1.42-.18,1.72.47,1.66,1.77Q602.77,236.46,602.83,254.74Z"/><path class="cls-2" d="M139.4,94.55c-.3,0-.65-.06-1-.06.83.06,1.72.06,2.55.06Z"/><path class="cls-2" d="M151.28,131.91a.21.21,0,0,0-.18.11.66.66,0,0,1,.18-.14Z"/><path class="cls-2" d="M261.66,97.57c-.1,1.88-.25,3.72-.43,5.6-.4,3.68-.9,7.37-1.55,11s-1.52,7.3-2.53,10.84a108.47,108.47,0,0,1-5.78,15.74c-.61,1.3-1.19,2.6-1.84,3.86a148,148,0,0,1-10.29,17.95,129.77,129.77,0,0,1-14.91,18.34q-27.14,27.68-69.43,36.32c-2.17.47-3.29.69-3.87,1.34a1.24,1.24,0,0,0-.32.58,11.36,11.36,0,0,0-.26,3.46v14.48c0,2.53,0,5.06,0,7.62,0,3.14,0,6.28,0,9.46a2.71,2.71,0,0,1-.4,1.81.88.88,0,0,1-.29.25.8.8,0,0,1-.36.14,2.83,2.83,0,0,1-.4.11,6.57,6.57,0,0,1-.94,0q-16.41-.11-32.82,0a2.81,2.81,0,0,1-1.88-.43,1,1,0,0,1-.21-.29,3.09,3.09,0,0,1-.29-1.59c0-3,.07-6,.07-9,0-8.12-.07-16.21.07-24.37,0-1.77-.36-2.6-1.51-3.1a8.92,8.92,0,0,0-1.45-.37c-4-.72-7.87-1.58-11.66-2.6-2.53-.65-5-1.37-7.44-2.16s-4.84-1.63-7.18-2.53A123.15,123.15,0,0,1,38.12,179.9c-1.73-1.77-3.39-3.61-5-5.53a140,140,0,0,1-9.21-12.13c-1.45-2.13-2.85-4.33-4.23-6.6s-2.7-4.55-4-6.94-2.53-5-3.64-7.51S9.89,136.1,9,133.54A132.87,132.87,0,0,1,1.58,98c-.1-1.3,0-2.06.58-2.49a.67.67,0,0,1,.33-.22l.29-.1A7.54,7.54,0,0,1,4.55,95c10.29.15,20.5.07,30.76,0a6,6,0,0,1,1.48.11,2,2,0,0,1,.83.36,1.43,1.43,0,0,1,.29.36c.07.15.14.29.21.47a2.31,2.31,0,0,1,.19.61c0,.22,0,.47.07.76.07,1.23.21,2.46.36,3.69a72.2,72.2,0,0,0,1.15,7.29c.47,2.38,1.09,4.77,1.77,7.11s1.45,4.66,2.35,6.94c.65,1.69,1.34,3.43,2.13,5.09s1.55,3.32,2.42,4.91c.54,1.08,1.16,2.16,1.77,3.21A96.47,96.47,0,0,0,59.5,149.1c1.34,1.62,2.74,3.21,4.26,4.77.69.75,1.48,1.55,2.24,2.31a91.41,91.41,0,0,0,44.45,24.48c1.91.39,2.92.29,2.56-1.95a23.8,23.8,0,0,1-.11-3.58,4.76,4.76,0,0,1-.65-2.89c0-4.29-.07-8.55,0-12.81v-.69h0l.57.54V140a1.7,1.7,0,0,1-.57-.14v.47a.61.61,0,0,0,.28-.08.45.45,0,0,1-.32.11v-.5c0-2.5,0-5,0-7.51v-.47h0v.43a2.87,2.87,0,0,0,.57.11c0-1.12.11-2.2.11-3.32,0-10.47.07-20.95-.07-31.34a1.38,1.38,0,0,1,0-.37,1.91,1.91,0,0,1,0-.65,1.15,1.15,0,0,1,.11-.5,1.27,1.27,0,0,1,.14-.43c.4-.69,1.16-.83,2.46-.8a90.78,90.78,0,0,0,12.13-.18,1.54,1.54,0,0,0-.11-.58c2.6,0,5.2-.47,7.8,0a.17.17,0,0,0,0,.11v0s0,.11,0,.14a.64.64,0,0,0,0,.29,72.59,72.59,0,0,0,11.88.15c.44,0,.8,0,1.12,0a2.17,2.17,0,0,1,1.48.54,1.4,1.4,0,0,1,.4.73,4.76,4.76,0,0,1,.22,1.87c-.08,11.41-.29,22.79.18,34.2v.07a3.82,3.82,0,0,1,.57-.11v.4c.62,2.49.15,4.91-.18,7.36-.07,0-.1.11-.18.18a1.1,1.1,0,0,0-.14.26,1.82,1.82,0,0,0-.18.83v0c0,5.74,0,11.48,0,17.8.18-.18.43-.36.58-.54.18,4.23.36,8.41.36,12.6,0,1.38.21,2.75-.83,3.87-.54,7.8-.76,6.42,5.2,4.65q26-7.78,42.6-24.48a85.39,85.39,0,0,0,10-12.06q10.73-15.65,15.35-36.9c.18-.79.32-1.59.43-2.38.22-1.19.33-2.38.44-3.57s.18-2.42.29-3.62a1.68,1.68,0,0,1,.07-.43,5.14,5.14,0,0,1,.21-.68c.26-.44.73-.62,1.52-.62,11.12,0,22.24.07,33.29,0a2.14,2.14,0,0,1,1.41.33.68.68,0,0,1,.25.36A5.46,5.46,0,0,1,261.66,97.57Z"/><path class="cls-3" d="M139.22,94.51a.52.52,0,0,0,.19,0h1.51C140.38,94.54,139.77,94.54,139.22,94.51Zm79.51-16.36c-2.85-22-13.1-40.26-30.07-54.56C168.83,6.84,145.69.16,120.05,3.48,96,6.55,76.33,18,61.67,37.31,46.39,57.39,40.94,80.17,45.09,104.9c3.61,21,13.9,38.35,30.3,52a83.07,83.07,0,0,0,37.51,18.23V159.28l-.57-.54h0c-7-5.89-11.52-13.43-15.49-21.88,5.34,1.12,10.33,2.31,15.49,3h0a1.7,1.7,0,0,0,.57.14v-7.58a2.87,2.87,0,0,1-.57-.11h0a143.35,143.35,0,0,1-17.19-3.79,3,3,0,0,1-2.2-2.2,126,126,0,0,1-5.2-30.41c-.11-1.55.18-2.2,2-2.2,12.06.07,24.16.07,36.14.07.73,0,1.66-.36,1.95.47a1.55,1.55,0,0,1,.15.58h7.54a.64.64,0,0,1,0-.29s0-.11,0-.14v0s0-.07.07-.11c.18-.54.83-.47,1.41-.47,12.38,0,24.73,0,37.11-.07,1.41,0,1.67.58,1.59,1.84a129.17,129.17,0,0,1-5.2,30.87,2.92,2.92,0,0,1-2.27,2.1,122.09,122.09,0,0,1-16.9,3.79c0-.11,0-.22,0-.29v.29a3.82,3.82,0,0,0-.57.11h0c-.79,14.19-.07,28.45,0,42.68.43-.08.83-.08,1.26-.18a86.44,86.44,0,0,0,42.9-24.41C214.29,130.22,222.31,105.92,218.73,78.15Zm-83.3-62.79c0-1.55.33-1.88,1.84-1.55a33.35,33.35,0,0,1,15.35,8.66c.87.87,1.84,1.77,2.71,2.64v0h0v0c.11.22.22.4.33.58a3.78,3.78,0,0,0,.65.68,3.61,3.61,0,0,1,.43.29,0,0,0,0,1,0,0v0a77.78,77.78,0,0,1,8.41,13.54c.36.68,1.23,1.51.65,2.23s-1.59-.07-2.38-.25a130.75,130.75,0,0,0-25.93-3.47c-1.51-.07-2.13-.46-2.13-2.2C135.58,29.55,135.51,22.47,135.43,15.36Zm-7.62-1.66V37.56c0,.84-.36,1.16-1.19,1.23a136.7,136.7,0,0,0-28.81,4.08,1.39,1.39,0,0,1-.47-.21C101.89,30,114.67,15,127.81,13.7ZM59.9,93.78H78.17c1.12,0,1.88-.07,2,1.48a133.92,133.92,0,0,0,4.51,29.47c-12.31-5.92-23-12.68-28.34-25.35C53.9,93.78,54,93.78,59.9,93.78ZM55.1,84a33.22,33.22,0,0,1,7.14-13.25c6-6.86,13.62-11.41,22.25-15.46-1.23,5.56-2.42,10.65-3.14,15.82-.58,4.26-.87,8.59-1.16,12.85-.14,1.7-.54,2.28-2.31,2.28q-10.56-.17-21.12,0C54.81,86.24,54.73,85.48,55.1,84Zm33.36,52C93,147,98.89,157.08,108.1,165a2.18,2.18,0,0,1,.36.61c-.11.19-.22.37-.36.58a79.67,79.67,0,0,1-53.37-54.09,105,105,0,0,0,8.34,8.13,80.79,80.79,0,0,0,22.21,12.64A5.19,5.19,0,0,1,88.46,136ZM82.68,48.22C72.61,52.3,63.54,58.07,56.32,66.31c-.36.47-.65,1-1.41.9,6.5-24.7,29-47.19,54.38-53.51-9,7.51-15.31,17-19.71,27.69A11.36,11.36,0,0,1,82.68,48.22Zm43.29,38c-6.1-.07-12.2,0-18.3,0s-12,0-18.06,0c-1.55,0-2-.36-1.91-2A124.59,124.59,0,0,1,93,53.34a2.36,2.36,0,0,1,1.8-1.84,124.92,124.92,0,0,1,31.74-5.2c1.91-.07,1.26,1.19,1.26,2q.06,12.84,0,25.67c0,3.47-.07,6.93,0,10.4C127.92,85.84,127.42,86.24,126,86.24Zm47.59,0c-6-.11-12,0-18,0s-12.09-.07-18.05,0c-1.55,0-2.1-.33-2.1-1.95q.12-18.09,0-36.07c0-1.3.26-1.92,1.84-1.85a119.87,119.87,0,0,1,31.2,5.1,2.79,2.79,0,0,1,2,2,131.36,131.36,0,0,1,5.2,30.66C175.8,85.84,175.22,86.24,173.56,86.24Zm-22.38,72.39c-.15.18-.4.36-.58.54,0-6.35.07-12.06,0-17.8v0a1.82,1.82,0,0,1,.18-.83,1.1,1.1,0,0,1,.14-.26c.08-.07.11-.14.18-.18l0,0a2.84,2.84,0,0,1,1.23-.36c4.08-.65,8.16-1.41,12.2-2.46.47-.14,1.05-.43,1.37.11.15.22,0,.83-.18,1.19C162.26,145.92,157.89,152.71,151.18,158.63Zm30.33-6.21A69.82,69.82,0,0,1,154.57,166a74.19,74.19,0,0,0,11.05-12.49,84.91,84.91,0,0,0,9.5-17.91,3.8,3.8,0,0,1,2.31-2.42c12-4.62,22.78-11.16,31.23-21.09A77.59,77.59,0,0,1,181.51,152.42Zm-2.57-27.76c.91-4.27,1.66-8,2.39-11.7a131.37,131.37,0,0,0,1.95-17.41c0-1-.08-1.84,1.33-1.77h24.23C204.94,110,192.81,117.79,178.94,124.66Zm-.07-69.4c13,6.32,24.44,13.54,29.14,27.87,1,3.07.87,3.07-2.38,3.07H185.3c-1,0-2,.18-2.1-1.44a132.15,132.15,0,0,0-4-28.09C179.12,56.38,179.05,56.09,178.87,55.26Zm19,2.6a83,83,0,0,0-20-10.94,3.86,3.86,0,0,1-2.6-2.13c-4.55-11.74-10.9-22.32-20.54-30.8a66.16,66.16,0,0,1,23.07,10.72c15.09,10.54,27.48,27.8,31.09,43.62A69.45,69.45,0,0,0,197.83,57.86Zm-46.55,74V132c0-.07,0-.11,0-.14Zm-38.95,0v0a2.28,2.28,0,0,1,.28.22A1,1,0,0,0,112.33,131.88Z"/><path class="cls-4" d="M336.64,99.87c-2.25,10.89-4.55,21.84-6.74,32.79-.42,2.25-1.19,3.14-3.55,2.84s-5.33.89-6.93-.41c-1.65-1.48-1.24-4.62-1.71-7-1.25-6.57-2.43-13.13-3.61-19.7-.06-.3-.06-.71-.77-.77-1.25,6.8-2.49,13.67-3.73,20.47-.36,2-.77,3.85-1,5.8-.17,1.13-.53,1.6-1.71,1.6-2.49-.06-4.92-.06-7.4,0a1.43,1.43,0,0,1-1.66-1.42q-3.9-18.56-7.87-37.22c-.24-1.07-.12-1.6,1.13-1.48h.23c5.21-.24,5.15-.24,6.16,4.85,1.59,8.76,3.25,17.46,4.91,26.22.12.65-.06,1.53,1.06,2a52.46,52.46,0,0,0,1.9-8.82c1.48-7.28,2.9-14.62,4.14-22,.3-1.72.95-2.19,2.6-2.19,5.27,0,5.27-.06,6.22,4.91,1.65,8.82,3.37,17.63,5.09,26.39.12.59.06,1.24,1,1.66,1.07-3,1.31-6,1.9-9,1.42-7.28,2.78-14.61,4-21.95.3-1.72.89-2.19,2.6-2.19C337.59,95.38,337.59,95.32,336.64,99.87Z"/><path class="cls-5" d="M602.83,254.74c0,1.48-.53,1.84-1.9,1.78-2.72-.12-5.91.83-8-.35s-2.31-4.74-3.32-7.22c-3-7.28-5.8-14.62-8.64-21.9a4.08,4.08,0,0,0-1.24-2.19,4,4,0,0,0-.36,2.54c-.06,8.88-.11,17.82,0,26.69.06,2.08-.59,2.49-2.54,2.43-4-.12-4,0-4-4,0-11.25.06-22.49-.05-33.8,0-1.83.41-2.54,2.36-2.42,2.73.23,6.1-.77,7.93.47s2.31,4.74,3.26,7.22c2.78,7.28,5.56,14.56,8.34,21.78a21.91,21.91,0,0,0,1,2.19c.89-.89.53-1.78.53-2.55.06-8.81.12-17.63,0-26.39-.06-2.13.47-3,2.66-2.66a9.41,9.41,0,0,0,2.25,0c1.42-.18,1.72.47,1.66,1.77Q602.77,236.46,602.83,254.74Z"/><path class="cls-5" d="M400.75,119.38c5.74-3.82,5.63-9.56,4.62-15.41-.9-5.06-3.86-7.59-8.95-8.24-5.49-.72-11-.18-16.51-.36-1.22-.07-1.37.54-1.37,1.52v9.89c0,8.81,0,17.66,0,26.47,0,1.7.39,2.31,2.24,2.24,4.36-.08,4.36,0,4.44-4.62v-2.78c0-6.5,0-6.43,6.57-6.32a2.08,2.08,0,0,1,2.31,1.69c.68,2.1,1.59,4.16,2.35,6.18,2.31,6.14,2.31,6.14,9.42,5.67-1.84-4.73-3.54-9.17-5.27-13.65C400.28,120.86,399.7,120.11,400.75,119.38Zm-1.88-8.73c-.65,3-2.27,4.44-5.16,4.55-1.12.07-2.24,0-3.32,0-5.2,0-5.2,0-5.2-5.35a3.93,3.93,0,0,1,0-1c.29-2.28-1-6.11.65-6.58a16.09,16.09,0,0,1,10.47.51C398.69,103.89,399.63,107.14,398.87,110.65Z"/><path class="cls-4" d="M467.22,107.43c-1.15-8-4.91-11.34-13-11.84-4.23-.29-8.49-.11-12.67-.29-1.67,0-2.21.47-2.13,2.13.07,6,0,12.1,0,18s.07,12,0,18.06c-.08,1.55.39,2,2,2,4.26-.11,8.44.07,12.7-.08,6.87-.14,11.31-3.82,12.68-10.5A49.17,49.17,0,0,0,467.22,107.43Zm-7.11,15.71c-.94,3.9-3.5,5.74-7.66,5.67-2.05,0-4.76.94-6.06-.36s-.33-4-.36-6.14c-.08-2.28,0-4.59,0-6.9,0-3.75,0-7.62-.08-11.41,0-1.7.55-2.16,2.13-2.06,2.21.18,4.45-.07,6.65.29a6.33,6.33,0,0,1,5.49,5.27A36.35,36.35,0,0,1,460.11,123.14Z"/><path class="cls-4" d="M547.85,179.86c5.81-3.9,5.63-9.64,4.69-15.49-.83-4.84-3.86-7.47-8.77-8.12-5.49-.76-11-.18-16.5-.4-1.19,0-1.41.47-1.41,1.55v37.09c0,.61-.25,1.48.83,1.48,1.77-.08,3.79.36,5.27-.36,1-.4.18-2.5.29-3.8,0-1,0-2,0-3,0-6.68,0-6.65,6.68-6.5,1.23,0,1.84.32,2.24,1.44.79,2.17,1.62,4.3,2.42,6.43,2.38,6.14,2.38,6.14,9.35,5.67-1.77-4.62-3.47-9.17-5.2-13.72C547.45,181.34,546.87,180.59,547.85,179.86Zm-1.63-9.53c-.54,3.68-2.38,5.34-6.17,5.42-2,0-4-.15-6.1,0-1.34,0-1.77-.51-1.7-1.81,0-1.62,0-3.36,0-5.38.18-1.7-.9-4.37.4-5.56,1.62-1.48,4.33-.47,6.57-.47C544.49,162.46,546.87,165.2,546.22,170.33Z"/><path class="cls-5" d="M412.34,230.3c-1-8.7-4.62-13.39-11.84-14.26-9.39-1.26-16,1.66-17.88,12.13a45,45,0,0,0,.36,18.64c1.09,4.62,3.61,8.16,8.49,9.53a23.6,23.6,0,0,0,10,.36c5.23-.9,8.34-4,9.89-9,1.08-3.58,1.12-7.19,1.3-11.45C412.59,234.67,412.59,232.47,412.34,230.3Zm-7.58,15.31a6.66,6.66,0,0,1-6.43,4.73c-3.5.18-6.93-.28-8.16-4a29.62,29.62,0,0,1,.11-19.9c1.19-3.14,4-4.08,7.22-4s5.56,1.23,6.86,4.26c1.48,3.25,1.41,6.68,1.55,10.19C405.77,239.84,405.84,242.8,404.76,245.61Z"/><path class="cls-5" d="M566.08,230.67c-.83-8.78-4.47-13.69-11.7-14.63-10.11-1.3-16.28,2.06-18,12.24a45.37,45.37,0,0,0,.36,18.42c1,4.66,3.61,8.23,8.38,9.57a22.68,22.68,0,0,0,10.07.43c5.35-.83,8.52-4,10-9.17,1.09-3.5,1.09-7.19,1.3-10.65C566.34,234.75,566.26,232.65,566.08,230.67Zm-7.51,14.84a6.65,6.65,0,0,1-6.68,4.83c-4.33.26-7-.93-8.12-4.11a30.36,30.36,0,0,1,.18-19.68c1.08-3.11,4-4.19,7.18-4.12s5.6,1.19,7,4.12c1.48,3.29,1.41,6.75,1.48,10.18C559.51,239.69,559.58,242.65,558.57,245.51Z"/><path class="cls-6" d="M370.74,104.62c-1.4-5.71-5.2-9-11.05-9.61C350,94,343.63,97.5,342,107.58c-.43,2.63-.43,5.38-.61,7.72.07,4.08.18,8,1.3,11.59,1.3,4.16,3.79,7.19,8.05,8.42a22.66,22.66,0,0,0,10.54.36,11.21,11.21,0,0,0,9.39-8.52A42.54,42.54,0,0,0,370.74,104.62Zm-6.57,20c-.94,3.5-3.36,4.8-7.4,4.8s-6.25-1.41-7.51-4.8a13.89,13.89,0,0,1-.72-2.89c-.22-2-.33-4.08-.47-6.11.14-3,.14-6.1,1.19-9a7,7,0,0,1,7.22-5.2c4-.07,6.57,1.41,7.62,5A31.65,31.65,0,0,1,364.17,124.66Z"/><path class="cls-4" d="M443.22,193.79c0,1.78-.41,2.25-2.25,2.25-4.43-.12-4.43,0-4.43-4.38,0-3.43-.06-6.92.06-10.41,0-1.66-.24-2.43-2.19-2.37-3.79.18-7.58.12-11.43,0-1.47,0-2,.35-2,2,.18,4.44,0,8.82.12,13.26.06,1.59-.47,1.95-2,1.95-4.68-.06-4.68,0-4.68-4.62v-15.5c0-5.92.06-11.84,0-17.75-.06-1.66.3-2.37,2.13-2.31,4.5.06,4.5-.06,4.5,4.55,0,3.32.06,6.57,0,9.89-.06,1.42.18,2.13,1.84,2.07,4-.12,8-.12,11.95-.06,1.36.06,1.78-.36,1.78-1.72-.12-4.14,0-8.28-.06-12.42-.06-1.66.29-2.37,2.19-2.31,4.43.12,4.43,0,4.43,4.38C443.16,171.42,443.11,182.61,443.22,193.79Z"/><path class="cls-5" d="M490.66,255.07c-2.75-12.34-5.57-24.73-8.31-37.08-.29-1.26-.76-1.66-2-1.59-3.11,0-6.25,0-9.39,0-1.44-.07-1.91.47-2.13,1.81-.83,4-1.84,8-2.78,12.09-1.95,8.63-3.9,17.26-5.81,26,6.35.79,6.35.79,7.76-5.1a4.74,4.74,0,0,0,.29-.93c.07-1.3.65-1.7,2-1.67,3.5.08,6.93.08,10.43,0a1.76,1.76,0,0,1,2.06,1.62,34.17,34.17,0,0,0,1.23,4.7c.18.58,0,1.66,1.19,1.59,1.84,0,3.68-.11,5.56-.18A5,5,0,0,0,490.66,255.07Zm-12-13.07a20.49,20.49,0,0,0-3.32,0c-5.31,0-5.31,0-4.15-5.17,1-4.15,1.91-8.23,2.78-12.38.18-1,.5-1.63,1.73-1.63s1.23.83,1.48,1.63c1.05,5.09,2.2,10.25,3.36,15.34C480.94,241.53,480.47,242.26,478.63,242Z"/><path class="cls-5" d="M311.64,217.88c-.29-1.33-1-1.48-2.13-1.48-3,0-6.11.11-9.14-.07-1.59-.07-2.06.65-2.35,1.95-.83,3.79-1.73,7.58-2.56,11.37-1.88,8.24-3.72,16.51-5.6,24.74-.36,1.51-.25,2.16,1.63,2.13,4.51-.07,4.51,0,5.52-4.26a19.72,19.72,0,0,0,.47-1.95c.18-1.27.76-1.84,2.2-1.77,3.25.11,6.43.14,9.65,0,1.87-.15,2.41.68,2.81,2.27,1.48,6,1.48,6,8.05,5.53C317.31,243.45,314.45,230.67,311.64,217.88ZM308.39,242c-1.27-.1-2.57,0-3.79,0-5.24,0-5.28,0-4.16-5.09.91-4.16,1.84-8.24,2.78-12.32.18-.9.26-1.77,1.66-1.77s1.41.87,1.59,1.81c1.12,5.16,2.24,10.36,3.43,15.53C310.26,241.61,310,242.15,308.39,242Z"/><path class="cls-5" d="M485.31,157.4c-.29-1.19-.76-1.55-1.88-1.55-3.21.07-6.46.07-9.64,0-1.26,0-1.73.4-2,1.66-.65,3.14-1.41,6.29-2.13,9.39-2.06,9.06-4.08,18.13-6.21,27.19-.29,1.34-.18,1.88,1.44,1.95,4.77,0,4.77.11,5.92-4.51a9,9,0,0,1,.29-1.48c.18-1.49.83-2.06,2.49-2,3,.11,5.89.14,8.85,0,2-.15,2.92.4,3.43,2.53,1.37,5.67,1.48,5.63,7.4,5.3a1.76,1.76,0,0,0,.54-.14C491,182.9,488.09,170.19,485.31,157.4ZM482,181.52c-1.19-.1-2.38,0-3.61,0-5.45,0-5.45,0-4.22-5.38,1-4.15,1.95-8.23,2.85-12.34.18-1,.47-1.49,1.55-1.49s1.41.65,1.59,1.52c1.12,5.2,2.24,10.44,3.43,15.64C483.9,181,483.65,181.7,482,181.52Z"/><path class="cls-5" d="M319.07,167.08c-.83-7.44-4.83-11.05-12.52-11.16-4-.14-7.95,0-12-.07-1.73-.07-2.31.4-2.27,2.24.14,5.92,0,11.84,0,17.76v15.5c0,4.69,0,4.62,4.62,4.69,1.84,0,2.13-.65,2.09-2.2-.14-2.71,0-5.46-.07-8.09-.07-1.48.4-2,1.84-1.92,2.32.08,4.63.08,6.86,0a11,11,0,0,0,10.87-8.7A23.31,23.31,0,0,0,319.07,167.08Zm-6.78,4.51c-.8,4.08-2.57,5.64-6.76,5.64h-2c-4.55,0-4.55,0-4.55-4.44,0-2.78.07-5.64,0-8.42-.07-1.37.29-2,1.84-1.91,2.42.18,4.84-.22,7.33.32a5,5,0,0,1,4,4.08A10.48,10.48,0,0,1,312.29,171.59Z"/><path class="cls-5" d="M347.77,188.46c-1.42,5.39-5.8,8.17-12.78,8.11a78.86,78.86,0,0,1-9.83-1.12c-1.06-.18-1.36-.59-1.42-1.72-.06-4.32.3-4.73,4.56-4.32a67.37,67.37,0,0,0,7.63.48c3.38-.12,5.21-1.43,5.62-4,.54-3-.59-4.85-4-6-2.31-.83-4.73-1.37-7-2.25-6.22-2.37-8.58-6.45-7.64-12.9.83-5.57,4.74-8.94,10.95-9.35,4.09-.3,8.11.47,12.13,1.06,1.07.18,1.31.71,1.31,1.72.11,4.67.11,4.61-4.5,4.32-2.84-.18-5.74-.77-8.64-.42-3.32.48-4.8,2.07-4.8,4.85a4.14,4.14,0,0,0,3,4c2.49,1,5.09,1.72,7.64,2.66C347.35,176.21,349.78,180.83,347.77,188.46Z"/><path class="cls-5" d="M348.48,247.47c-1.07,6.09-5.21,9.41-11.84,9.52-3.67.12-7.22-.59-10.83-1.06-1.3-.18-1.83-.71-1.54-2a18.22,18.22,0,0,0,.18-2.55c.06-1.66.71-2.07,2.43-1.77a52.6,52.6,0,0,0,9.59.77c3.43-.18,5.08-1.42,5.56-4.15s-.65-4.73-3.91-5.91c-2.42-.89-5-1.42-7.45-2.37-6-2.37-8.29-6.57-7.28-13.14.83-5.21,4.79-8.52,10.77-9,.89-.06,1.83,0,2.78,0a66.57,66.57,0,0,1,9.05.94c1.42.18,1.84.71,1.78,2.13-.12,4.32-.06,4.32-4.32,4-2.9-.18-5.74-.71-8.64-.42-3.49.36-5,2-5,4.91a4,4,0,0,0,3,4c2.6,1,5.26,1.77,7.93,2.72C347.35,236.46,349.72,240.54,348.48,247.47Z"/><path class="cls-5" d="M376.53,251c-1.84,3.78-5.21,5.44-9.17,5.91-4.32.48-8.58-.35-12.84-1.06-.89-.18-1.19-.65-1.25-1.6-.12-4.2.36-4.73,4.5-4.38a58.77,58.77,0,0,0,7.87.48c3.37-.24,5.09-1.54,5.5-4.21.42-2.95-.71-4.73-4-5.85-2.49-.89-5-1.48-7.46-2.43-6-2.37-8.28-6.57-7.28-12.84.89-5.45,4.8-8.82,10.83-9.23,1-.06,1.9,0,2.78,0a70,70,0,0,1,9.35,1c1.07.18,1.54.59,1.43,1.66-.06.83-.12,1.66-.12,2.54,0,1.78-.54,2.43-2.55,2.13a46.69,46.69,0,0,0-9.88-.71c-3.73.3-5.45,2-5.33,5.09a4.14,4.14,0,0,0,3.08,3.91c2.49,1,5.15,1.71,7.69,2.66C377.24,236.81,380,243.74,376.53,251Z"/><path class="cls-5" d="M592.77,196a38.71,38.71,0,0,1-7.81.47c-6.34-.29-10.06-3.07-11.42-9.17a49.9,49.9,0,0,1,.11-22.9c1.48-5.86,5-8.58,11-9.11,3.85-.3,7.58.47,11.36,1.18,1.3.24,1.36,1,1.3,2.13-.29,4.14-.23,4-4.26,3.85-2.42-.12-4.85-.66-7.33-.3-3.38.41-5.09,2.31-5.86,5.39-.71,2.84-.59,5.74-.59,8.93a32.88,32.88,0,0,0,.53,7.52c1,4,2.84,5.56,6.86,5.8a42.49,42.49,0,0,0,8.58-.71c1.42-.24,1.9-.06,2,1.48C597.5,195.33,597.56,195.33,592.77,196Z"/><path class="cls-4" d="M403.51,196a32.46,32.46,0,0,1-6.27.59c-8.05-.06-12.25-3.73-13.31-11.66a48.88,48.88,0,0,1-.54-8.7,42,42,0,0,1,1-11.24c1.54-6.27,5.21-9.29,11.66-9.64a47.62,47.62,0,0,1,10.06,1c1.77.24,2.37.95,2.25,2.78-.3,3.73-.18,3.67-3.73,3.43-2.72-.17-5.39-.76-8.11-.35A6,6,0,0,0,391,167a39.93,39.93,0,0,0-.18,17.34c.77,3.67,2.72,5.15,6.63,5.45a47.9,47.9,0,0,0,9.11-.77c1.19-.18,1.72,0,1.66,1.36C408,196.28,409.73,194.8,403.51,196Z"/><path class="cls-6" d="M442.16,251.14c.29,4.67.29,4.67-4.44,5.32a42.74,42.74,0,0,1-7.81.53c-6-.11-9.88-3.19-11.42-8.93a37.69,37.69,0,0,1-1.07-11.54,40,40,0,0,1,1.07-11.6c1.54-5.8,5.32-8.82,11.3-9.11a45.22,45.22,0,0,1,10.59,1.06c1.54.24,2.07.95,2,2.55-.3,3.78-.24,3.78-3.91,3.55a60.36,60.36,0,0,0-6.57-.42c-4.14.06-6.45,1.84-7.16,5.8a46.17,46.17,0,0,0,0,16.16c.65,3.84,3,5.68,7.16,5.8a46.49,46.49,0,0,0,8.58-.77c1.19-.18,1.84.06,1.72,1.36Z"/><path class="cls-5" d="M374.64,167.46c-4.5,7.39-6.93,15.15-5.74,23.85v.23c-.06,4.91-.48,5.21-5.57,4.5-1.3-.24-1.06-1.07-1.06-1.83-.06-4.27-.12-8.47,0-12.73a10.91,10.91,0,0,0-1.19-5.09c-3.43-6.57-6.74-13.25-10.12-19.88,0-.06,0-.18,0-.59h6.16c1.24,0,1.36,1.06,1.77,1.83,2.19,4.26,4.32,8.52,6.69,13.32,2.19-4.5,4.26-8.47,6.1-12.49.88-2,2.07-3.08,4.38-2.72a35.38,35.38,0,0,0,4.38,0C378.42,159.94,376.77,163.85,374.64,167.46Z"/><path class="cls-5" d="M519.27,218.88c-.18,4.15-.06,4.15-4.2,4.15-6.39,0-6.39,0-6.39,6.39v10.41c0,4.91-.06,9.83.05,14.74,0,1.6-.41,1.95-2,1.95-4.67,0-4.67.06-4.67-4.62,0-8.75-.06-17.57.06-26.39,0-1.89-.36-2.72-2.49-2.54s-4.38,0-6.57.06c-1.06.05-1.42-.3-1.54-1.42-.35-5.21-.41-5.21,4.86-5.21,6.8,0,13.55.06,20.35-.06C518.68,216.34,519.33,216.87,519.27,218.88Z"/><path class="cls-5" d="M522.11,158c-.06,4.5,0,4.5-4.56,4.5-5.92,0-5.92,0-5.92,5.91v10.89c0,4.85-.06,9.65.06,14.5.06,1.72-.41,2.31-2.19,2.25-4.49-.12-4.49,0-4.49-4.56,0-8.93,0-17.93.06-26.92,0-1.66-.48-2.19-2.13-2.07-2.19.11-4.38-.06-6.63,0-1.25,0-1.72-.23-1.78-1.65-.06-5-.18-5,4.85-5,6.87,0,13.73.06,20.6,0C521.69,155.8,522.11,156.39,522.11,158Z"/><path class="cls-5" d="M433.76,131c-.12,4.44,0,4.44-4.56,4.44-5,0-10,0-15,.06-1.42,0-1.84-.41-1.84-1.83.12-6.1.06-12.2.06-18.29,0-5.92.06-11.9-.06-17.81,0-1.78.48-2.25,2.25-2.25,4.32.12,4.32,0,4.32,4.26,0,9,.06,18.11,0,27.16,0,1.66.36,2.19,2.07,2.13,3.49-.12,6.93.06,10.42-.06C433.05,128.75,433.76,129.11,433.76,131Z"/><path class="cls-7" d="M454.94,220.78c-.06,11.18-.12,22.31,0,33.49,0,1.78-.47,2.31-2.25,2.25-4.5-.06-4.44,0-4.44-4.32.06-5.38,0-10.71,0-16h.06c0-5.86.06-11.66-.06-17.51-.06-1.78.48-2.31,2.25-2.31C454.88,216.46,454.94,216.34,454.94,220.78Z"/><path class="cls-5" d="M566,176.16c0,5.91-.06,11.83.06,17.75,0,1.72-.53,2.13-2.13,2.13-4.5-.06-4.56,0-4.56-4.5,0-11,.06-22.07,0-33.08-.06-2.07.53-2.9,2.66-2.6a4.44,4.44,0,0,0,1.78,0c1.78-.24,2.31.47,2.25,2.25C566,164.14,566,170.12,566,176.16Z"/><path class="cls-8" d="M529.27,254.15c0,1.9-.47,2.43-2.43,2.37-4.08-.12-4.08,0-4.08-4.08,0-11.19.06-22.37-.06-33.5,0-1.95.41-2.9,2.49-2.54a8,8,0,0,0,2.07,0c1.6-.24,2,.47,2,2-.06,6,0,12,0,18S529.09,248.24,529.27,254.15Z"/><path class="cls-9" d="M457.84,193.61c0,1.78-.3,2.49-2.31,2.43-4.2-.18-4.2-.06-4.2-4.32V176c0-5.92.06-11.84-.06-17.81-.06-2,.59-2.37,2.43-2.31,4.08.12,4.08,0,4.08,4.2C457.78,171.24,457.72,182.43,457.84,193.61Z"/><path class="cls-1" d="M151.28,131.88V132c0-.07,0-.11,0-.14Zm0,.43h0c0-.11,0-.22,0-.29Zm-12.06-37.8a.52.52,0,0,0,.19,0h1.51C140.38,94.54,139.77,94.54,139.22,94.51Z"/><path class="cls-1" d="M112.33,131.88v0a2.28,2.28,0,0,1,.28.22A1,1,0,0,0,112.33,131.88Z"/><path class="cls-1" d="M156.8,26.79a4,4,0,0,1-1.48-1.66A3.19,3.19,0,0,1,156.8,26.79Z"/><path class="cls-10" d="M156.8,26.79a4,4,0,0,1-1.48-1.66A1.4,1.4,0,0,1,156.8,26.79Z"/><path class="cls-11" d="M452.6,159.53v35.26h-.32V159.43Z"/><path class="cls-12" d="M746.57,94.63l-5.48,23.72c-1.36,6.32-2.63,12.31-3.52,18.05h-.16c-.79-5.63-1.89-11.47-3.21-17.68L729,94.63H719l-5.68,23.72c-1.48,6.58-3,12.79-3.79,18.31h-.16c-.84-5.21-2.1-11.89-3.42-18.25L701,94.63H690.8L703.64,147H714l6-24.62a158.85,158.85,0,0,0,3.47-16.57h.16a153,153,0,0,0,2.89,16.57L731.94,147H742.2l14-52.34Z"/><path class="cls-12" d="M792.65,98.52c-3.36-2.79-8.47-4.26-15.46-4.26a81.72,81.72,0,0,0-14.58,1.1V147h9.47V127.24a23.08,23.08,0,0,0,4.63.32c6.79,0,12.73-1.79,16.52-5.58,2.95-2.79,4.53-6.89,4.53-11.89A14.79,14.79,0,0,0,792.65,98.52Zm-15.94,21.62a18.32,18.32,0,0,1-4.63-.42V102a24.08,24.08,0,0,1,5.47-.47c6.63,0,10.68,3.1,10.68,8.89C788.23,116.62,783.87,120.14,776.71,120.14Z"/><path class="cls-12" d="M825.53,94.63h-12.2L796.6,147h9.84L811,132.14h16.57L832.27,147h10.26Zm-13,30.3,4-12.89c.89-3.1,1.68-6.73,2.47-9.79h.16c.79,3.06,1.63,6.63,2.63,9.79l4.1,12.89Z"/><path class="cls-12" d="M873.94,94.63v8h14.88V147h9.58V102.62h15.05v-8Z"/><path class="cls-12" d="M951.22,94.63v21h-22.1v-21h-9.57V147h9.57v-23h22.1v23h9.57V94.63Z"/><path class="cls-12" d="M981.26,139.13V123.77H1001V116H981.26V102.52h20.89V94.63H971.69V147h31.61v-7.84Z"/><path class="cls-12" d="M1063.12,94.63h-12.41l-7.21,21c-2,6.1-3.79,12.57-5.21,18.25h-.21c-1.32-5.84-2.95-12.05-4.84-18.2l-6.84-21h-12.57L1010.35,147h8.95l1.15-21c.37-7.16.69-15.47.9-22.26h.16c1.42,6.53,3.26,13.63,5.31,20.31l7,22.36h7.36l7.58-22.67c2.37-6.58,4.52-13.63,6.21-20h.26c-.11,7,.32,15.21.63,21.94l1,21.36h9.31Z"/><path class="cls-12" d="M1100.42,94.63h-12.15L1071.49,147h9.89l4.47-14.83h16.62l4.74,14.83h10.26Zm-13,30.3,4-12.89c.94-3.1,1.73-6.73,2.52-9.79h.11c.79,3.06,1.68,6.63,2.68,9.79l4.1,12.89Z"/><path class="cls-12" d="M1113.57,94.63v8h14.89V147H1138V102.62h15.1v-8Z"/><path class="cls-12" d="M1159.19,94.63V147h9.52V94.63Z"/><path class="cls-12" d="M1205.22,139.82c-11.52,0-18.25-7.37-18.25-18.84,0-12.57,7.68-19.25,18.3-19.25a25,25,0,0,1,10.26,2l2.11-7.58c-2-1.05-6.47-2.37-12.73-2.37-16,0-27.94,10.42-27.94,27.68,0,15.89,10,26.3,26.67,26.3,6.32,0,11.26-1.16,13.52-2.37l-1.57-7.52A26.77,26.77,0,0,1,1205.22,139.82Z"/><path class="cls-13" d="M734.68,242.09c-14.89,0-23.68-9.31-23.68-24.09,0-16.47,10.31-24.47,23.57-24.47a36.24,36.24,0,0,1,14,2.74L752,183c-3-1.53-9.58-3.26-18.21-3.26-22.35,0-40.35,14-40.35,39.19,0,21.05,13.16,36.94,38.67,36.94,9,0,15.94-1.64,19-3.16l-2.52-13.05A41.84,41.84,0,0,1,734.68,242.09Z"/><path class="cls-13" d="M791.39,179.75c-21.83,0-35.93,16.52-35.93,38.67,0,21,12.78,37.56,34.72,37.56,21.57,0,36.25-14.68,36.25-38.88C826.43,196.69,814.06,179.75,791.39,179.75Zm-.32,63c-11.2,0-18-10.15-18-24.62S779.66,193,790.92,193c11.52,0,17.88,11.36,17.88,24.62C808.8,232,802.33,242.72,791.07,242.72Z"/><path class="cls-13" d="M883.25,180.91v21.62a270.64,270.64,0,0,0,1.42,30.78h-.32A213.18,213.18,0,0,0,872.3,208l-15.36-27.09H837.42v73.91h15.37V232.57c0-12.1-.21-22.47-.64-32.25l.32-.11a256,256,0,0,0,12.84,26.1l15.78,28.51h17.52V180.91Z"/><path class="cls-13" d="M947.27,212.47v13.05h11.42V241c-1.31.68-4.37,1.1-8.21,1.1-13.73,0-23.25-9-23.25-24.25,0-16,10.52-23.89,24.46-23.89,8.11,0,13.16,1.42,17.21,3.21l3.47-13.36c-3.58-1.79-10.94-3.63-20.47-3.63-24.25,0-42.08,14.05-42.19,38.56-.11,10.84,3.58,20.52,10.42,26.89,6.78,6.57,16.52,9.94,30,9.94a83.11,83.11,0,0,0,24.68-4.16V212.47Z"/><path class="cls-13" d="M1037.61,234c-1.85-6.79-4.69-11.73-9.84-13.84v-.31c6.36-2.32,13-8.79,13-18.21,0-6.78-2.42-11.94-6.78-15.46-5.26-4.16-12.94-5.79-23.89-5.79a150.34,150.34,0,0,0-22.25,1.53v72.91h16.52V225.73h5.05c6.79.16,10,2.63,11.94,11.89,2.21,9,3.95,15.1,5.16,17.2h17.1C1042.24,251.93,1039.92,242.3,1037.61,234ZM1011,213.68h-6.57V193.32a41.67,41.67,0,0,1,7.57-.58c7.69.11,12.26,3.53,12.26,10.32C1024.24,209.53,1019.35,213.68,1011,213.68Z"/><path class="cls-13" d="M1069.65,241.09V223.57h27.19V210h-27.19V194.64h28.83V180.91h-45.62v73.91H1100V241.09Z"/><path class="cls-13" d="M1140.14,211c-9.52-3.63-13.68-5.69-13.68-10.42,0-3.84,3.48-7.1,10.74-7.1a34.73,34.73,0,0,1,15.46,3.52l3.69-13.52a45.46,45.46,0,0,0-18.84-3.68c-17.41,0-27.93,9.63-27.93,22.2,0,10.79,8,17.57,20.25,21.83,8.89,3.16,12.42,5.79,12.42,10.42,0,4.84-4,8-11.73,8a43,43,0,0,1-18.52-4.58l-3.42,13.78c4.15,2.32,12.52,4.48,20.94,4.48,20.25,0,29.83-10.53,29.83-22.89C1159.35,222.57,1153.19,215.79,1140.14,211Z"/><path class="cls-13" d="M1199.38,211c-9.57-3.63-13.73-5.69-13.73-10.42,0-3.84,3.53-7.1,10.73-7.1a34.41,34.41,0,0,1,15.47,3.52l3.74-13.52a45.68,45.68,0,0,0-18.84-3.68c-17.47,0-28,9.63-28,22.2,0,10.79,8,17.57,20.31,21.83,8.84,3.16,12.36,5.79,12.36,10.42,0,4.84-4,8-11.73,8a43.44,43.44,0,0,1-18.52-4.58l-3.36,13.78c4.15,2.32,12.46,4.48,20.88,4.48,20.31,0,29.83-10.53,29.83-22.89C1218.53,222.57,1212.38,215.79,1199.38,211Z"/><rect class="cls-14" x="1267.66" y="172.61" width="195.61" height="80.54" rx="3.34"/><path class="cls-15" d="M1320.32,198.28v11.07h-11.69V198.28h-5.07V226h5.07v-12.2h11.69V226h5V198.28Z"/><path class="cls-15" d="M1343.22,206l-3.07,10.66c-.41,1.33-.77,2.82-1.08,4h-.15c-.26-1.13-.67-2.67-1.08-3.9L1334.2,206h-5.53l7.33,18.35a1.82,1.82,0,0,1,.25,1,2.18,2.18,0,0,1-.3.93,8.81,8.81,0,0,1-2.77,3.12,8,8,0,0,1-2.92,1.39l1.13,4.3a10.13,10.13,0,0,0,5.27-2.61c2.41-2,4.26-5.39,7-12.82l5-13.63Z"/><path class="cls-15" d="M1363.11,205.51a7.19,7.19,0,0,0-6.41,3.23h-.1V196.85h-5v23.47c0,2.05-.1,4.26-.16,5.64h4.31l.2-3h.11a6.91,6.91,0,0,0,6.3,3.49c4.51,0,9.07-3.59,9.07-10.76C1371.46,209.56,1368,205.51,1363.11,205.51Zm-1.9,16.91a4.63,4.63,0,0,1-4.46-3.53,4.49,4.49,0,0,1-.15-1.18v-3.23a8.78,8.78,0,0,1,.15-1.33,4.81,4.81,0,0,1,4.51-3.69c3.34,0,5,2.87,5,6.4C1366.29,219.86,1364.34,222.42,1361.21,222.42Z"/><path class="cls-15" d="M1385.56,205.51a6,6,0,0,0-5.49,4.25h-.15l-.15-3.79h-4.41c.15,1.79.2,3.74.2,6.46V226h5V215.61a12.17,12.17,0,0,1,.15-1.54,4.49,4.49,0,0,1,4.51-3.85,10.28,10.28,0,0,1,1.49.16v-4.72A4.23,4.23,0,0,0,1385.56,205.51Z"/><path class="cls-15" d="M1390.12,206v20h5.12V206Zm2.56-8.3a2.67,2.67,0,0,0-2.82,2.71,2.63,2.63,0,0,0,2.77,2.72,2.72,2.72,0,1,0,0-5.43Z"/><path class="cls-15" d="M1419,220.32V196.85h-5v11.27h-.1a6.4,6.4,0,0,0-5.59-2.61c-4.81,0-9,4-9,10.66,0,6.15,3.8,10.25,8.56,10.25a7.18,7.18,0,0,0,6.51-3.64h.1l.21,3.18h4.51C1419.13,224.58,1419,222.37,1419,220.32Zm-5-3a7.07,7.07,0,0,1-.15,1.48,4.47,4.47,0,0,1-4.36,3.54c-3.18,0-5-2.67-5-6.3s1.84-6.62,5.07-6.62a4.42,4.42,0,0,1,4.36,3.59,11,11,0,0,1,.1,1.28Z"/></svg>