<?xml version="1.0" encoding="utf-8"?>
<!-- Generator: Adobe Illustrator 25.1.0, SVG Export Plug-In . SVG Version: 6.00 Build 0)  -->
<svg version="1.1" id="Layer_1" xmlns="http://www.w3.org/2000/svg" xmlns:xlink="http://www.w3.org/1999/xlink" x="0px" y="0px"
	 viewBox="0 0 221.82 47" style="enable-background:new 0 0 221.82 47;" xml:space="preserve">
<style type="text/css">
	.st0{fill:url(#SVGID_1_);}
	.st1{fill:url(#SVGID_2_);}
	.st2{fill:#FFFFFF;}
	.st3{fill:url(#XMLID_2_);}
	.st4{fill:url(#XMLID_3_);}
	.st5{fill:url(#XMLID_4_);}
	.st6{fill:url(#XMLID_5_);}
</style>
<g>
	<linearGradient id="SVGID_1_" gradientUnits="userSpaceOnUse" x1="9.6326" y1="23.5" x2="52.0777" y2="23.5">
		<stop  offset="0" style="stop-color:#044F9F"/>
		<stop  offset="1" style="stop-color:#00A2E9"/>
	</linearGradient>
	<path class="st0" d="M50.2,19.07c-0.16-0.4-1.23-1.92-1.43-1.94c-0.02-0.01-0.04-0.01-0.06,0.01c-0.01,0.01-0.02,0-0.02,0
		c-0.02,0-0.03,0.01-0.03,0.01c-0.02,0.01-0.03,0.02-0.04,0.04c-0.03,0.05,0.22,1.14,0.46,2.17c0.24,1.06,0.38,2.14,0.38,3.22
		c0,0.81-0.05,1.62-0.25,2.39c-0.82,3.19-2.12,5.84-4.66,8.15c-2.82,2.35-6.77,3.49-10.38,2.63c-3.34-0.89-6.44-3.06-7.39-6.58
		c-0.4-1.65-0.41-3.13,0.01-4.77c0.47-1.81,2.05-3.26,4.43-5.52c2.28-2.17,3.59-5.18,3.55-8.32c-0.01-0.56-0.06-1.08-0.17-1.51
		c-1.05-3.99-4.31-7.4-9-7.83c-0.15-0.02-0.3-0.02-0.45-0.03c-5.36-0.27-9.14,3.69-11.71,7.92c-1.06,1.7-1.93,3.59-2.56,5.58
		c-0.01,0.02-0.02,0.03-0.02,0.05c-1.09,3.39-1.5,7.06-0.98,10.45c0.26,1.97,0.77,4,1.51,5.95l0,0.01c1.33,3.51,3.43,6.77,6.33,8.99
		c3.3,2.62,6.61,4.13,10.62,5.16c5.32,1.37,11.09-0.12,15.59-3.33c3.58-2.56,6.36-6.23,7.44-10.4c0.03-0.1,0.05-0.21,0.07-0.31
		C52.45,27.71,52.43,22.25,50.2,19.07z"/>
	<linearGradient id="SVGID_2_" gradientUnits="userSpaceOnUse" x1="30.7275" y1="27.5922" x2="43.7773" y2="27.5922">
		<stop  offset="0" style="stop-color:#044F9F"/>
		<stop  offset="1" style="stop-color:#00A2E9"/>
	</linearGradient>
	<circle class="st1" cx="37.25" cy="27.59" r="6.52"/>
</g>
<g>
	<path class="st2" d="M68.49,7.55v1.08h-2.32v6.2h-1.08v-6.2h-2.31V7.55H68.49z"/>
	<path class="st2" d="M69.59,14.83V7.55h2.68c0.39,0,0.75,0.1,1.06,0.29c0.32,0.19,0.57,0.46,0.75,0.78s0.28,0.69,0.28,1.09
		c0,0.34-0.06,0.65-0.19,0.93c-0.13,0.28-0.31,0.52-0.53,0.72c-0.23,0.2-0.49,0.34-0.78,0.43l1.76,3.04h-1.25l-1.71-2.94h-1v2.94
		H69.59z M70.67,10.81h1.49c0.2,0,0.39-0.05,0.56-0.16c0.17-0.1,0.31-0.24,0.41-0.42c0.1-0.17,0.15-0.37,0.15-0.59
		c0-0.22-0.05-0.42-0.15-0.59c-0.1-0.18-0.24-0.31-0.41-0.42c-0.17-0.1-0.36-0.15-0.56-0.15h-1.49V10.81z"/>
	<path class="st2" d="M75.72,14.83V7.55h4.52v1.08H76.8v1.76h2.77v1.08H76.8v2.28h3.44v1.08H75.72z"/>
	<path class="st2" d="M83.7,7.55h1.26l2.65,7.28h-1.14l-0.5-1.38H82.7l-0.5,1.38h-1.15L83.7,7.55z M83.1,12.36h2.46l-1.23-3.38
		L83.1,12.36z"/>
	<path class="st2" d="M93.22,7.55v1.08H90.9v6.2h-1.08v-6.2H87.5V7.55H93.22z"/>
	<path class="st2" d="M93.74,14.83l1.41-7.28h0.87l1.87,4.9l1.86-4.9h0.87l1.41,7.28h-1.1l-0.94-4.87l-1.74,4.6h-0.73l-1.74-4.6
		l-0.94,4.87H93.74z"/>
	<path class="st2" d="M103.29,14.83V7.55h4.52v1.08h-3.44v1.76h2.77v1.08h-2.77v2.28h3.44v1.08H103.29z"/>
	<path class="st2" d="M109.05,14.83V7.55h1.17l3.34,5.33V7.55h1.08v7.28h-1.17l-3.35-5.33v5.33H109.05z"/>
	<path class="st2" d="M121.46,7.55v1.08h-2.32v6.2h-1.08v-6.2h-2.31V7.55H121.46z"/>
	<path class="st2" d="M127.43,7.55h1.26l2.65,7.28h-1.14l-0.5-1.38h-3.26l-0.5,1.38h-1.15L127.43,7.55z M126.84,12.36h2.46
		l-1.23-3.38L126.84,12.36z"/>
	<path class="st2" d="M132.32,14.83V7.55h1.17l3.34,5.33V7.55h1.08v7.28h-1.17L133.4,9.5v5.33H132.32z"/>
	<path class="st2" d="M139.33,14.83V7.55h2.41c0.5,0,0.97,0.09,1.42,0.28c0.44,0.19,0.83,0.45,1.16,0.79s0.59,0.72,0.78,1.16
		c0.19,0.44,0.28,0.91,0.28,1.41c0,0.5-0.09,0.97-0.28,1.41c-0.19,0.44-0.45,0.83-0.78,1.16s-0.72,0.6-1.16,0.79
		c-0.44,0.19-0.91,0.28-1.42,0.28H139.33z M140.41,13.75h1.33c0.35,0,0.68-0.07,0.99-0.2c0.31-0.13,0.58-0.32,0.82-0.55
		c0.24-0.24,0.42-0.51,0.55-0.82s0.2-0.64,0.2-0.99c0-0.35-0.07-0.69-0.2-0.99s-0.32-0.58-0.55-0.82c-0.24-0.24-0.51-0.42-0.82-0.55
		c-0.31-0.13-0.64-0.2-0.99-0.2h-1.33V13.75z"/>
	<path class="st2" d="M148.81,14.83l1.41-7.28h0.87l1.87,4.9l1.86-4.9h0.87l1.41,7.28H156l-0.94-4.87l-1.74,4.6h-0.73l-1.74-4.6
		l-0.94,4.87H148.81z"/>
	<path class="st2" d="M160.29,7.55h1.26l2.65,7.28h-1.14l-0.5-1.38h-3.26l-0.5,1.38h-1.15L160.29,7.55z M159.69,12.36h2.46
		l-1.23-3.38L159.69,12.36z"/>
	<path class="st2" d="M165.18,14.83V7.55h1.17l3.34,5.33V7.55h1.08v7.28h-1.17l-3.35-5.33v5.33H165.18z"/>
	<path class="st2" d="M174.4,7.55h1.26l2.65,7.28h-1.14l-0.5-1.38h-3.26l-0.5,1.38h-1.15L174.4,7.55z M173.8,12.36h2.46l-1.23-3.38
		L173.8,12.36z"/>
	<path class="st2" d="M182.11,14.96c-0.51,0-0.98-0.1-1.41-0.29s-0.81-0.47-1.14-0.82c-0.32-0.35-0.58-0.75-0.76-1.21
		c-0.18-0.46-0.27-0.94-0.27-1.46c0-0.54,0.1-1.05,0.29-1.5c0.19-0.46,0.46-0.86,0.8-1.19c0.34-0.34,0.72-0.6,1.15-0.79
		s0.88-0.28,1.36-0.28c0.54,0,1.05,0.12,1.55,0.37c0.5,0.25,0.93,0.62,1.29,1.12l-0.97,0.52c-0.25-0.31-0.54-0.55-0.87-0.71
		c-0.33-0.16-0.67-0.24-1.02-0.24c-0.34,0-0.66,0.07-0.96,0.21c-0.3,0.14-0.57,0.33-0.8,0.57c-0.23,0.24-0.42,0.53-0.55,0.86
		c-0.13,0.33-0.2,0.68-0.2,1.07c0,0.37,0.06,0.72,0.19,1.05c0.13,0.33,0.31,0.61,0.54,0.86c0.23,0.24,0.5,0.44,0.8,0.57
		c0.3,0.14,0.63,0.21,0.98,0.21c0.26,0,0.5-0.04,0.74-0.12c0.24-0.08,0.46-0.2,0.66-0.36c0.2-0.15,0.38-0.34,0.53-0.55
		c0.15-0.22,0.27-0.45,0.36-0.72h-1.54v-0.96h2.81c0.01,0.52-0.08,1.01-0.27,1.47c-0.19,0.46-0.44,0.86-0.77,1.21
		s-0.71,0.62-1.14,0.82S182.61,14.96,182.11,14.96z"/>
	<path class="st2" d="M186.76,14.83V7.55h4.52v1.08h-3.44v1.76h2.77v1.08h-2.77v2.28h3.44v1.08H186.76z"/>
	<path class="st2" d="M192.43,14.83l1.41-7.28h0.87l1.87,4.9l1.86-4.9h0.87l1.41,7.28h-1.1l-0.94-4.87l-1.74,4.6h-0.73l-1.74-4.6
		l-0.94,4.87H192.43z"/>
	<path class="st2" d="M201.97,14.83V7.55h4.52v1.08h-3.44v1.76h2.77v1.08h-2.77v2.28h3.44v1.08H201.97z"/>
	<path class="st2" d="M207.74,14.83V7.55h1.17l3.34,5.33V7.55h1.08v7.28h-1.17l-3.35-5.33v5.33H207.74z"/>
	<path class="st2" d="M220.14,7.55v1.08h-2.32v6.2h-1.08v-6.2h-2.31V7.55H220.14z"/>
	<path class="st2" d="M66.36,27.45c-0.49,0-0.96-0.1-1.39-0.29s-0.81-0.47-1.14-0.81c-0.33-0.35-0.59-0.75-0.78-1.2
		c-0.19-0.46-0.28-0.94-0.28-1.46c0-0.52,0.09-1.01,0.28-1.46c0.19-0.46,0.45-0.86,0.78-1.2c0.33-0.35,0.71-0.62,1.14-0.81
		s0.9-0.29,1.39-0.29c0.5,0,0.96,0.1,1.39,0.29c0.43,0.2,0.81,0.47,1.14,0.81c0.33,0.35,0.59,0.75,0.77,1.2s0.28,0.94,0.28,1.46
		c0,0.52-0.09,1.01-0.28,1.46s-0.44,0.86-0.77,1.2c-0.33,0.35-0.71,0.62-1.14,0.81C67.32,27.35,66.86,27.45,66.36,27.45z
		 M66.36,26.37c0.35,0,0.67-0.07,0.97-0.21c0.3-0.14,0.57-0.34,0.8-0.59c0.23-0.25,0.41-0.53,0.54-0.86s0.19-0.67,0.19-1.04
		c0-0.37-0.06-0.71-0.19-1.04c-0.13-0.33-0.31-0.61-0.54-0.86c-0.23-0.25-0.5-0.44-0.8-0.58c-0.3-0.14-0.63-0.21-0.97-0.21
		s-0.67,0.07-0.97,0.21c-0.3,0.14-0.57,0.34-0.8,0.59s-0.41,0.53-0.54,0.86c-0.13,0.32-0.19,0.67-0.19,1.04
		c0,0.37,0.06,0.72,0.19,1.04c0.13,0.32,0.31,0.61,0.54,0.86s0.5,0.44,0.8,0.58S66.02,26.37,66.36,26.37z"/>
	<path class="st2" d="M71.13,27.31v-7.28h4.29v1.08h-3.21v1.76h2.71v1.08h-2.71v3.36H71.13z"/>
	<path class="st2" d="M78.65,27.31l1.41-7.28h0.87l1.87,4.9l1.86-4.9h0.87l1.41,7.28h-1.1l-0.94-4.87l-1.74,4.6h-0.73l-1.74-4.6
		l-0.94,4.87H78.65z"/>
	<path class="st2" d="M88.19,27.31v-7.28h4.52v1.08h-3.44v1.76h2.77v1.08h-2.77v2.28h3.44v1.08H88.19z"/>
	<path class="st2" d="M93.95,27.31v-7.28h1.17l3.34,5.33v-5.33h1.08v7.28h-1.17l-3.35-5.33v5.33H93.95z"/>
	<path class="st2" d="M106.36,20.03v1.08h-2.32v6.2h-1.08v-6.2h-2.31v-1.08H106.36z"/>
	<path class="st2" d="M108.8,20.03h1.26l2.65,7.28h-1.14l-0.5-1.38h-3.26l-0.5,1.38h-1.15L108.8,20.03z M108.21,24.85h2.46
		l-1.23-3.38L108.21,24.85z"/>
	<path class="st2" d="M113.63,27.31v-7.28h1.08v6.2h3.14v1.08H113.63z"/>
	<path class="st2" d="M121.49,27.31v-7.28h2.41c0.5,0,0.97,0.09,1.42,0.28c0.44,0.19,0.83,0.45,1.16,0.79s0.59,0.72,0.78,1.16
		c0.19,0.44,0.28,0.91,0.28,1.41c0,0.5-0.09,0.97-0.28,1.41c-0.19,0.44-0.45,0.83-0.78,1.16s-0.72,0.6-1.16,0.79
		c-0.44,0.19-0.91,0.28-1.42,0.28H121.49z M122.57,26.23h1.33c0.35,0,0.68-0.07,0.99-0.2c0.31-0.13,0.58-0.32,0.82-0.55
		c0.24-0.24,0.42-0.51,0.55-0.82s0.2-0.64,0.2-0.99c0-0.35-0.07-0.69-0.2-0.99s-0.32-0.58-0.55-0.82c-0.24-0.24-0.51-0.42-0.82-0.55
		c-0.31-0.13-0.64-0.2-0.99-0.2h-1.33V26.23z"/>
	<path class="st2" d="M128.77,27.31v-7.28h1.08v7.28H128.77z"/>
	<path class="st2" d="M133.85,27.45c-0.4,0-0.78-0.06-1.15-0.19c-0.37-0.12-0.69-0.3-0.96-0.54s-0.47-0.51-0.59-0.83l1.01-0.38
		c0.06,0.17,0.17,0.31,0.34,0.44c0.17,0.13,0.37,0.23,0.6,0.3c0.23,0.07,0.48,0.11,0.74,0.11c0.28,0,0.54-0.04,0.78-0.14
		c0.24-0.09,0.44-0.21,0.59-0.37c0.15-0.16,0.23-0.35,0.23-0.56c0-0.22-0.08-0.4-0.24-0.55c-0.16-0.14-0.36-0.25-0.6-0.34
		c-0.24-0.08-0.5-0.15-0.76-0.19c-0.51-0.08-0.97-0.2-1.37-0.36c-0.4-0.16-0.72-0.38-0.96-0.67c-0.23-0.29-0.35-0.66-0.35-1.12
		c0-0.43,0.12-0.81,0.37-1.13c0.25-0.32,0.58-0.57,0.98-0.75c0.41-0.18,0.85-0.27,1.32-0.27c0.39,0,0.77,0.06,1.14,0.18
		s0.69,0.3,0.97,0.54c0.28,0.23,0.48,0.52,0.6,0.85l-1.02,0.37c-0.06-0.17-0.17-0.32-0.34-0.44c-0.17-0.13-0.37-0.23-0.6-0.3
		c-0.23-0.07-0.48-0.11-0.74-0.11c-0.28,0-0.54,0.04-0.78,0.13s-0.44,0.22-0.59,0.38c-0.15,0.16-0.23,0.35-0.23,0.56
		c0,0.26,0.07,0.46,0.21,0.59s0.33,0.24,0.57,0.3c0.24,0.06,0.51,0.12,0.81,0.17c0.48,0.08,0.92,0.2,1.33,0.38
		c0.41,0.18,0.74,0.41,0.98,0.71c0.25,0.29,0.37,0.65,0.37,1.08c0,0.43-0.12,0.81-0.37,1.13c-0.25,0.32-0.58,0.58-0.98,0.75
		C134.77,27.36,134.33,27.45,133.85,27.45z"/>
	<path class="st2" d="M140.99,27.45c-0.49,0-0.96-0.1-1.39-0.29s-0.81-0.47-1.14-0.81c-0.33-0.35-0.59-0.75-0.78-1.2
		c-0.19-0.46-0.28-0.94-0.28-1.46c0-0.52,0.09-1.01,0.28-1.46c0.19-0.46,0.45-0.86,0.78-1.2c0.33-0.35,0.71-0.62,1.14-0.81
		s0.9-0.29,1.39-0.29c0.5,0,0.96,0.1,1.39,0.29c0.43,0.2,0.81,0.47,1.14,0.81c0.33,0.35,0.59,0.75,0.77,1.2s0.28,0.94,0.28,1.46
		c0,0.52-0.09,1.01-0.28,1.46s-0.44,0.86-0.77,1.2c-0.33,0.35-0.71,0.62-1.14,0.81C141.95,27.35,141.48,27.45,140.99,27.45z
		 M140.99,26.37c0.35,0,0.67-0.07,0.97-0.21c0.3-0.14,0.57-0.34,0.8-0.59c0.23-0.25,0.41-0.53,0.54-0.86s0.19-0.67,0.19-1.04
		c0-0.37-0.06-0.71-0.19-1.04c-0.13-0.33-0.31-0.61-0.54-0.86c-0.23-0.25-0.5-0.44-0.8-0.58c-0.3-0.14-0.63-0.21-0.97-0.21
		s-0.67,0.07-0.97,0.21c-0.3,0.14-0.57,0.34-0.8,0.59s-0.41,0.53-0.54,0.86c-0.13,0.32-0.19,0.67-0.19,1.04
		c0,0.37,0.06,0.72,0.19,1.04c0.13,0.32,0.31,0.61,0.54,0.86s0.5,0.44,0.8,0.58S140.64,26.37,140.99,26.37z"/>
	<path class="st2" d="M145.82,27.31v-7.28h2.68c0.39,0,0.75,0.1,1.06,0.29c0.32,0.19,0.57,0.46,0.75,0.78s0.28,0.69,0.28,1.09
		c0,0.34-0.06,0.65-0.19,0.93c-0.13,0.28-0.31,0.52-0.53,0.72c-0.23,0.2-0.49,0.34-0.78,0.43l1.76,3.04h-1.25l-1.71-2.94h-1v2.94
		H145.82z M146.9,23.29h1.49c0.2,0,0.39-0.05,0.56-0.16c0.17-0.1,0.31-0.24,0.41-0.42c0.1-0.17,0.15-0.37,0.15-0.59
		c0-0.22-0.05-0.42-0.15-0.59c-0.1-0.18-0.24-0.31-0.41-0.42c-0.17-0.1-0.36-0.15-0.56-0.15h-1.49V23.29z"/>
	<path class="st2" d="M151.95,27.31v-7.28h2.41c0.5,0,0.97,0.09,1.42,0.28c0.44,0.19,0.83,0.45,1.16,0.79s0.59,0.72,0.78,1.16
		c0.19,0.44,0.28,0.91,0.28,1.41c0,0.5-0.09,0.97-0.28,1.41c-0.19,0.44-0.45,0.83-0.78,1.16s-0.72,0.6-1.16,0.79
		c-0.44,0.19-0.91,0.28-1.42,0.28H151.95z M153.03,26.23h1.33c0.35,0,0.68-0.07,0.99-0.2c0.31-0.13,0.58-0.32,0.82-0.55
		c0.24-0.24,0.42-0.51,0.55-0.82s0.2-0.64,0.2-0.99c0-0.35-0.07-0.69-0.2-0.99s-0.32-0.58-0.55-0.82c-0.24-0.24-0.51-0.42-0.82-0.55
		c-0.31-0.13-0.64-0.2-0.99-0.2h-1.33V26.23z"/>
	<path class="st2" d="M159.07,27.31v-7.28h4.52v1.08h-3.44v1.76h2.77v1.08h-2.77v2.28h3.44v1.08H159.07z"/>
	<path class="st2" d="M164.84,27.31v-7.28h2.68c0.39,0,0.75,0.1,1.06,0.29c0.32,0.19,0.57,0.46,0.75,0.78s0.28,0.69,0.28,1.09
		c0,0.34-0.06,0.65-0.19,0.93c-0.13,0.28-0.31,0.52-0.53,0.72c-0.23,0.2-0.49,0.34-0.78,0.43l1.76,3.04h-1.25l-1.71-2.94h-1v2.94
		H164.84z M165.91,23.29h1.49c0.2,0,0.39-0.05,0.56-0.16c0.17-0.1,0.31-0.24,0.41-0.42c0.1-0.17,0.15-0.37,0.15-0.59
		c0-0.22-0.05-0.42-0.15-0.59c-0.1-0.18-0.24-0.31-0.41-0.42c-0.17-0.1-0.36-0.15-0.56-0.15h-1.49V23.29z"/>
	<path class="st2" d="M173.5,27.45c-0.4,0-0.78-0.06-1.15-0.19c-0.37-0.12-0.69-0.3-0.96-0.54s-0.47-0.51-0.59-0.83l1.01-0.38
		c0.06,0.17,0.17,0.31,0.34,0.44c0.17,0.13,0.37,0.23,0.6,0.3c0.23,0.07,0.48,0.11,0.74,0.11c0.28,0,0.54-0.04,0.78-0.14
		c0.24-0.09,0.44-0.21,0.59-0.37c0.15-0.16,0.23-0.35,0.23-0.56c0-0.22-0.08-0.4-0.24-0.55c-0.16-0.14-0.36-0.25-0.6-0.34
		c-0.24-0.08-0.5-0.15-0.76-0.19c-0.51-0.08-0.97-0.2-1.37-0.36c-0.4-0.16-0.72-0.38-0.96-0.67c-0.23-0.29-0.35-0.66-0.35-1.12
		c0-0.43,0.12-0.81,0.37-1.13c0.25-0.32,0.58-0.57,0.98-0.75c0.41-0.18,0.85-0.27,1.32-0.27c0.39,0,0.77,0.06,1.14,0.18
		s0.69,0.3,0.97,0.54c0.28,0.23,0.48,0.52,0.6,0.85l-1.02,0.37c-0.06-0.17-0.17-0.32-0.34-0.44c-0.17-0.13-0.37-0.23-0.6-0.3
		C174,21.03,173.76,21,173.5,21c-0.28,0-0.54,0.04-0.78,0.13s-0.44,0.22-0.59,0.38c-0.15,0.16-0.23,0.35-0.23,0.56
		c0,0.26,0.07,0.46,0.21,0.59s0.33,0.24,0.57,0.3c0.24,0.06,0.51,0.12,0.81,0.17c0.48,0.08,0.92,0.2,1.33,0.38
		c0.41,0.18,0.74,0.41,0.98,0.71c0.25,0.29,0.37,0.65,0.37,1.08c0,0.43-0.12,0.81-0.37,1.13c-0.25,0.32-0.58,0.58-0.98,0.75
		C174.42,27.36,173.97,27.45,173.5,27.45z"/>
	<path class="st2" d="M180,27.31v-7.28h1.08v7.28H180z"/>
	<path class="st2" d="M182.65,27.31v-7.28h1.17l3.34,5.33v-5.33h1.08v7.28h-1.17l-3.35-5.33v5.33H182.65z"/>
	<path class="st2" d="M65.42,32.51h1.76l2.64,7.28h-1.65l-0.42-1.14h-2.9l-0.42,1.14h-1.65L65.42,32.51z M65.42,37.09h1.76
		l-0.88-2.41L65.42,37.09z"/>
	<path class="st2" d="M73.35,39.8v-7.28h2.75c0.4,0,0.76,0.1,1.08,0.3c0.32,0.2,0.58,0.47,0.77,0.81c0.19,0.34,0.29,0.71,0.29,1.11
		c0,0.41-0.1,0.78-0.29,1.12c-0.2,0.34-0.46,0.61-0.78,0.81c-0.33,0.2-0.68,0.3-1.07,0.3h-1.19v2.83H73.35z M74.91,35.41h1.01
		c0.14,0,0.27-0.04,0.38-0.11c0.11-0.07,0.21-0.17,0.28-0.28c0.07-0.12,0.1-0.25,0.1-0.39s-0.03-0.27-0.1-0.39
		c-0.07-0.12-0.16-0.21-0.28-0.28c-0.11-0.07-0.24-0.11-0.38-0.11h-1.01V35.41z"/>
	<path class="st2" d="M82.66,39.93c-0.49,0-0.96-0.1-1.39-0.29s-0.81-0.47-1.14-0.81c-0.33-0.35-0.59-0.75-0.78-1.2
		c-0.19-0.46-0.28-0.94-0.28-1.46c0-0.52,0.09-1.01,0.28-1.46c0.19-0.46,0.45-0.86,0.78-1.2c0.33-0.35,0.71-0.62,1.14-0.81
		s0.9-0.29,1.39-0.29c0.5,0,0.96,0.1,1.39,0.29c0.43,0.2,0.81,0.47,1.14,0.81c0.33,0.35,0.59,0.75,0.77,1.2s0.28,0.94,0.28,1.46
		c0,0.52-0.09,1.01-0.28,1.46s-0.44,0.86-0.77,1.2c-0.33,0.35-0.71,0.62-1.14,0.81C83.62,39.83,83.16,39.93,82.66,39.93z
		 M82.66,38.37c0.28,0,0.54-0.06,0.78-0.17c0.24-0.12,0.46-0.28,0.65-0.48c0.19-0.2,0.33-0.44,0.44-0.7
		c0.11-0.27,0.16-0.55,0.16-0.86s-0.05-0.59-0.16-0.86c-0.11-0.27-0.25-0.5-0.44-0.7c-0.19-0.2-0.4-0.36-0.65-0.48
		c-0.24-0.12-0.51-0.17-0.78-0.17s-0.54,0.06-0.78,0.17s-0.46,0.28-0.65,0.48c-0.19,0.2-0.33,0.44-0.44,0.7
		c-0.11,0.27-0.16,0.55-0.16,0.86s0.05,0.59,0.16,0.86c0.11,0.27,0.25,0.5,0.44,0.7c0.19,0.2,0.4,0.36,0.65,0.48
		C82.12,38.31,82.39,38.37,82.66,38.37z"/>
	<path class="st2" d="M89.95,39.93c-0.41,0-0.8-0.06-1.18-0.19c-0.37-0.13-0.7-0.32-0.98-0.56c-0.28-0.24-0.48-0.54-0.61-0.88
		l1.47-0.54c0.03,0.1,0.11,0.2,0.23,0.29s0.27,0.17,0.46,0.23s0.39,0.09,0.61,0.09c0.21,0,0.4-0.03,0.59-0.09
		c0.18-0.06,0.33-0.15,0.45-0.25s0.17-0.23,0.17-0.37c0-0.15-0.06-0.27-0.18-0.36s-0.27-0.17-0.46-0.23
		c-0.19-0.06-0.38-0.1-0.57-0.13c-0.53-0.08-1-0.2-1.42-0.38c-0.42-0.17-0.75-0.42-0.99-0.73c-0.24-0.31-0.36-0.7-0.36-1.18
		c0-0.45,0.13-0.85,0.38-1.19c0.26-0.34,0.6-0.61,1.02-0.8c0.42-0.19,0.88-0.29,1.37-0.29c0.41,0,0.8,0.06,1.18,0.2
		c0.38,0.13,0.7,0.32,0.99,0.56c0.28,0.25,0.48,0.54,0.6,0.88l-1.47,0.53c-0.03-0.1-0.11-0.2-0.23-0.29
		c-0.12-0.09-0.27-0.17-0.46-0.23s-0.39-0.09-0.61-0.09c-0.2,0-0.39,0.03-0.58,0.09c-0.18,0.06-0.33,0.15-0.45,0.25
		s-0.18,0.23-0.18,0.36c0,0.19,0.06,0.33,0.17,0.42c0.11,0.09,0.26,0.16,0.44,0.2s0.38,0.07,0.6,0.1c0.5,0.07,0.96,0.2,1.38,0.39
		c0.42,0.19,0.76,0.44,1.01,0.75c0.25,0.31,0.38,0.69,0.38,1.14c0,0.45-0.13,0.85-0.38,1.19c-0.25,0.34-0.59,0.61-1.01,0.8
		C90.91,39.84,90.45,39.93,89.95,39.93z"/>
	<path class="st2" d="M99.17,32.51v1.56h-2.08v5.72h-1.56v-5.72h-2.08v-1.56H99.17z"/>
	<path class="st2" d="M99.9,35.89h3.33v1.56H99.9V35.89z"/>
	<path class="st2" d="M104.48,39.8v-7.28h2.75c0.4,0,0.76,0.1,1.08,0.3c0.32,0.2,0.58,0.47,0.77,0.81c0.19,0.34,0.29,0.71,0.29,1.11
		c0,0.41-0.1,0.78-0.29,1.12c-0.2,0.34-0.46,0.61-0.78,0.81c-0.33,0.2-0.68,0.3-1.07,0.3h-1.19v2.83H104.48z M106.04,35.41h1.01
		c0.14,0,0.27-0.04,0.38-0.11c0.11-0.07,0.21-0.17,0.28-0.28c0.07-0.12,0.1-0.25,0.1-0.39s-0.03-0.27-0.1-0.39
		c-0.07-0.12-0.16-0.21-0.28-0.28c-0.11-0.07-0.24-0.11-0.38-0.11h-1.01V35.41z"/>
	<path class="st2" d="M111.54,32.51h1.76l2.64,7.28h-1.65l-0.42-1.14h-2.9l-0.42,1.14h-1.65L111.54,32.51z M111.54,37.09h1.76
		l-0.88-2.41L111.54,37.09z"/>
	<path class="st2" d="M116.77,39.8v-7.28h1.69l2.66,4.46v-4.46h1.56v7.28H121l-2.66-4.46v4.46H116.77z"/>
	<path class="st2" d="M124.03,39.8v-7.28h2.41c0.5,0,0.97,0.09,1.41,0.28c0.44,0.19,0.83,0.45,1.16,0.79
		c0.33,0.33,0.6,0.72,0.79,1.16c0.19,0.44,0.28,0.91,0.28,1.41c0,0.5-0.09,0.97-0.28,1.41c-0.19,0.44-0.45,0.83-0.79,1.16
		c-0.33,0.33-0.72,0.6-1.16,0.79c-0.44,0.19-0.91,0.28-1.41,0.28H124.03z M125.59,38.23h0.85c0.28,0,0.55-0.05,0.8-0.16
		c0.25-0.11,0.47-0.26,0.67-0.45c0.19-0.19,0.35-0.41,0.46-0.66s0.16-0.52,0.16-0.81c0-0.29-0.05-0.56-0.16-0.81
		c-0.11-0.25-0.26-0.47-0.45-0.66c-0.19-0.19-0.41-0.34-0.66-0.45c-0.25-0.11-0.52-0.16-0.8-0.16h-0.85V38.23z"/>
	<path class="st2" d="M131.13,39.8v-7.28h4.64v1.56h-3.08v1.04h2.37v1.56h-2.37v1.56h3.08v1.56H131.13z"/>
	<path class="st2" d="M136.91,39.8l1.42-7.28h1.33l1.63,4.3l1.63-4.3h1.33l1.41,7.28h-1.59l-0.76-3.93l-1.49,3.93h-1.08l-1.49-3.93
		l-0.76,3.93H136.91z"/>
	<path class="st2" d="M147.07,39.8v-7.28h1.56v7.28H147.07z"/>
	<path class="st2" d="M153.3,39.93c-0.49,0-0.96-0.1-1.39-0.29c-0.43-0.2-0.81-0.47-1.14-0.81c-0.33-0.35-0.58-0.75-0.77-1.2
		s-0.28-0.94-0.28-1.46c0-0.52,0.09-1.01,0.28-1.47c0.19-0.46,0.44-0.86,0.77-1.2c0.33-0.35,0.71-0.62,1.14-0.81
		c0.43-0.2,0.9-0.29,1.39-0.29c0.59,0,1.13,0.14,1.63,0.41c0.5,0.27,0.91,0.64,1.23,1.09l-1.39,0.75c-0.18-0.21-0.4-0.37-0.65-0.5
		c-0.25-0.12-0.53-0.19-0.82-0.19c-0.28,0-0.54,0.06-0.78,0.17c-0.24,0.11-0.46,0.27-0.65,0.48c-0.19,0.2-0.33,0.44-0.43,0.7
		c-0.1,0.27-0.16,0.56-0.16,0.86c0,0.31,0.05,0.59,0.16,0.86s0.25,0.5,0.43,0.7c0.19,0.2,0.4,0.36,0.65,0.48
		c0.24,0.12,0.51,0.17,0.78,0.17c0.29,0,0.56-0.06,0.82-0.19c0.25-0.13,0.47-0.3,0.65-0.51l1.39,0.76
		c-0.33,0.45-0.74,0.81-1.23,1.09C154.44,39.79,153.89,39.93,153.3,39.93z"/>
	<path class="st2" d="M159.81,39.8v-7.28h4.64v1.56h-3.08v1.04h2.37v1.56h-2.37v1.56h3.08v1.56H159.81z"/>
	<path class="st2" d="M165.59,39.8v-7.28h2.96c0.4,0,0.76,0.1,1.08,0.3c0.32,0.2,0.58,0.47,0.77,0.81c0.19,0.34,0.28,0.71,0.28,1.12
		c0,0.31-0.05,0.6-0.16,0.87c-0.1,0.27-0.25,0.51-0.44,0.71c-0.19,0.21-0.42,0.37-0.68,0.5l1.73,2.98h-1.8l-1.64-2.83h-0.54v2.83
		H165.59z M167.15,35.41h1.22c0.14,0,0.27-0.04,0.38-0.11c0.11-0.07,0.21-0.17,0.28-0.28c0.07-0.12,0.1-0.25,0.1-0.39
		s-0.03-0.27-0.1-0.39c-0.07-0.12-0.16-0.21-0.28-0.28c-0.11-0.07-0.24-0.11-0.38-0.11h-1.22V35.41z"/>
	<path class="st2" d="M174.24,32.51H176l2.64,7.28h-1.65l-0.42-1.14h-2.9l-0.42,1.14h-1.65L174.24,32.51z M174.24,37.09H176
		l-0.88-2.41L174.24,37.09z"/>
</g>
<g id="XMLID_530_">
	
		<linearGradient id="XMLID_2_" gradientUnits="userSpaceOnUse" x1="-1375.129" y1="-1717.6934" x2="-1350.3342" y2="-1686.2948" gradientTransform="matrix(0.9682 0.2498 -0.2498 0.9682 916.9846 2013.8726)">
		<stop  offset="0" style="stop-color:#044F9F"/>
		<stop  offset="1" style="stop-color:#00A2E9"/>
	</linearGradient>
	<path id="XMLID_356_" class="st3" d="M43.91,41.98c-4.5,3.21-10.27,4.7-15.59,3.33c-4.01-1.03-7.32-2.54-10.62-5.16
		c-2.91-2.22-5.01-5.48-6.33-8.99l0-0.01c-0.75-1.95-1.25-3.98-1.51-5.95c-0.51-3.4-0.11-7.06,0.98-10.45
		c0-0.01,0.01-0.03,0.02-0.05c0.63-1.99,1.5-3.88,2.56-5.58c2.56-4.23,6.34-8.19,11.71-7.92c0.15,0.01,0.3,0.02,0.45,0.03
		c-0.29,0.18-0.57,0.37-0.85,0.56c-4.25,2.98-7.52,7.44-8.93,12.87c-3.11,12.07,4.15,24.38,16.21,27.49
		c3.45,0.89,6.91,0.93,10.17,0.25C42.76,42.29,43.34,42.14,43.91,41.98z"/>
	
		<linearGradient id="XMLID_3_" gradientUnits="userSpaceOnUse" x1="-1358.1407" y1="-1711.952" x2="-1336.7085" y2="-1696.8746" gradientTransform="matrix(0.9682 0.2498 -0.2498 0.9682 916.9846 2013.8726)">
		<stop  offset="0" style="stop-color:#044F9F"/>
		<stop  offset="1" style="stop-color:#00A2E9"/>
	</linearGradient>
	<path id="XMLID_311_" class="st4" d="M49.62,27.19c-2.01,7.77-9.93,12.45-17.7,10.45c-7.78-2.01-12.45-9.94-10.45-17.71
		c1.57-6.1,6.8-10.3,12.73-10.84c0.13-0.01,0.25-0.03,0.38-0.03c0.11,0.43,0.17,0.95,0.17,1.51c0.05,3.15-1.26,6.16-3.55,8.32
		c-2.38,2.26-3.96,3.71-4.43,5.52c-0.42,1.64-0.41,3.12-0.01,4.77c0.94,3.52,4.04,5.69,7.39,6.58c3.61,0.86,7.56-0.27,10.38-2.63
		c2.54-2.32,3.84-4.96,4.66-8.15c0.2-0.77,0.25-1.58,0.25-2.39c0-1.09-0.14-2.17-0.38-3.22c-0.24-1.02-0.49-2.12-0.46-2.17
		C50.08,20.19,50.51,23.7,49.62,27.19z"/>
	
		<linearGradient id="XMLID_4_" gradientUnits="userSpaceOnUse" x1="-1366.5873" y1="-1720.0452" x2="-1338.8032" y2="-1692.0118" gradientTransform="matrix(0.9682 0.2498 -0.2498 0.9682 916.9846 2013.8726)">
		<stop  offset="0" style="stop-color:#044F9F"/>
		<stop  offset="1" style="stop-color:#00A2E9"/>
	</linearGradient>
	<path id="XMLID_123_" class="st5" d="M51.35,31.58c-1.08,4.18-3.86,7.84-7.44,10.4c-0.57,0.16-1.14,0.31-1.72,0.42
		c-3.26,0.68-6.72,0.64-10.17-0.25C19.95,39.03,12.69,26.72,15.8,14.65c1.4-5.43,4.67-9.89,8.93-12.87
		c0.29-0.19,0.57-0.38,0.85-0.56c4.69,0.43,7.96,3.84,9,7.83c-0.13,0.01-0.25,0.02-0.38,0.03c-5.93,0.54-11.16,4.73-12.73,10.84
		c-2.01,7.77,2.66,15.7,10.45,17.71c7.77,2,15.69-2.68,17.7-10.45c0.9-3.48,0.46-6.99-1-9.99c0.01-0.02,0.02-0.03,0.04-0.04
		c0.01-0.01,0.02-0.01,0.03-0.01c0,0,0.01,0,0.02,0c0.02-0.02,0.03-0.01,0.06-0.01c0.2,0.01,1.27,1.53,1.43,1.94
		c2.23,3.18,2.26,8.64,1.22,12.2C51.4,31.37,51.37,31.48,51.35,31.58z"/>
	<linearGradient id="XMLID_5_" gradientUnits="userSpaceOnUse" x1="30.7275" y1="27.5922" x2="43.7773" y2="27.5922">
		<stop  offset="0" style="stop-color:#044F9F"/>
		<stop  offset="1" style="stop-color:#00A2E9"/>
	</linearGradient>
	<circle id="XMLID_496_" class="st6" cx="37.25" cy="27.59" r="6.52"/>
</g>
</svg>
