<svg width="71" height="47" viewBox="0 0 71 47" fill="none" xmlns="http://www.w3.org/2000/svg">
<path d="M7.8715 23.312C6.9275 23.312 6.0235 23.164 5.1595 22.868C4.2955 22.564 3.5395 22.132 2.8915 21.572C2.2435 21.004 1.7755 20.328 1.4875 19.544L4.8715 18.296C4.9515 18.528 5.1275 18.752 5.3995 18.968C5.6795 19.184 6.0315 19.364 6.4555 19.508C6.8795 19.644 7.3515 19.712 7.8715 19.712C8.3515 19.712 8.8035 19.644 9.2275 19.508C9.6515 19.364 9.9955 19.168 10.2595 18.92C10.5235 18.672 10.6555 18.384 10.6555 18.056C10.6555 17.72 10.5155 17.444 10.2355 17.228C9.9635 17.004 9.6115 16.828 9.1795 16.7C8.7555 16.564 8.3195 16.464 7.8715 16.4C6.6555 16.224 5.5635 15.936 4.5955 15.536C3.6355 15.128 2.8755 14.568 2.3155 13.856C1.7635 13.144 1.4875 12.24 1.4875 11.144C1.4875 10.096 1.7835 9.18 2.3755 8.396C2.9675 7.604 3.7475 6.988 4.7155 6.548C5.6915 6.108 6.7435 5.888 7.8715 5.888C8.8155 5.888 9.7195 6.04 10.5835 6.344C11.4555 6.64 12.2155 7.072 12.8635 7.64C13.5115 8.208 13.9755 8.888 14.2555 9.68L10.8715 10.904C10.7915 10.672 10.6115 10.452 10.3315 10.244C10.0595 10.028 9.7115 9.852 9.2875 9.716C8.8635 9.58 8.3915 9.512 7.8715 9.512C7.4075 9.504 6.9635 9.572 6.5395 9.716C6.1155 9.86 5.7675 10.056 5.4955 10.304C5.2235 10.552 5.0875 10.832 5.0875 11.144C5.0875 11.576 5.2155 11.9 5.4715 12.116C5.7275 12.324 6.0635 12.472 6.4795 12.56C6.9035 12.648 7.3675 12.728 7.8715 12.8C9.0235 12.968 10.0835 13.268 11.0515 13.7C12.0195 14.132 12.7955 14.708 13.3795 15.428C13.9635 16.148 14.2555 17.024 14.2555 18.056C14.2555 19.104 13.9595 20.024 13.3675 20.816C12.7835 21.6 12.0075 22.212 11.0395 22.652C10.0715 23.092 9.0155 23.312 7.8715 23.312ZM20.6556 23V6.2H31.3596V9.8H24.2556V12.2H29.7276V15.8H24.2556V19.4H31.3596V23H20.6556ZM43.0435 6.2H47.0995L53.1955 23H49.3795L48.4195 20.36H41.7235L40.7635 23H36.9475L43.0435 6.2ZM43.0435 16.76H47.0995L45.0595 11.192L43.0435 16.76ZM69.7553 6.2V9.8H64.9553V23H61.3553V9.8H56.5553V6.2H69.7553ZM12.1668 42V32.2H18.4108V34.3H14.2668V35.7H17.4588V37.8H14.2668V39.9H18.4108V42H12.1668ZM27.3303 42H24.6143L22.0663 35H24.3063L25.9723 39.592L27.6383 35H29.8783L27.3303 42ZM36.5968 42.182C35.9528 42.182 35.3648 42.0163 34.8328 41.685C34.3054 41.3537 33.8831 40.908 33.5658 40.348C33.2531 39.788 33.0968 39.1697 33.0968 38.493C33.0968 37.9843 33.1878 37.5083 33.3698 37.065C33.5518 36.617 33.8014 36.225 34.1188 35.889C34.4408 35.5483 34.8141 35.2823 35.2388 35.091C35.6634 34.8997 36.1161 34.804 36.5968 34.804C37.1568 34.804 37.6678 34.9277 38.1298 35.175C38.5964 35.4177 38.9884 35.749 39.3058 36.169C39.6278 36.5843 39.8564 37.0533 39.9918 37.576C40.1271 38.0987 40.1411 38.6377 40.0338 39.193H35.3648C35.4301 39.3563 35.5164 39.5057 35.6238 39.641C35.7358 39.7717 35.8711 39.8767 36.0298 39.956C36.1931 40.0353 36.3821 40.0773 36.5968 40.082C36.8021 40.0867 36.9911 40.0423 37.1638 39.949C37.3411 39.8557 37.4951 39.7297 37.6258 39.571L39.7678 40.068C39.4831 40.6887 39.0584 41.1973 38.4938 41.594C37.9291 41.986 37.2968 42.182 36.5968 42.182ZM35.2878 37.653H37.9128C37.8474 37.4523 37.7494 37.275 37.6188 37.121C37.4881 36.967 37.3341 36.8457 37.1568 36.757C36.9841 36.6683 36.7974 36.624 36.5968 36.624C36.4008 36.624 36.2141 36.6683 36.0368 36.757C35.8641 36.8457 35.7124 36.967 35.5818 37.121C35.4558 37.275 35.3578 37.4523 35.2878 37.653ZM51.0544 38.458V42H48.9544V38.486C48.9544 38.1827 48.8914 37.905 48.7654 37.653C48.6394 37.401 48.462 37.2003 48.2334 37.051C48.0047 36.897 47.7364 36.82 47.4284 36.82C47.125 36.82 46.8707 36.897 46.6654 37.051C46.46 37.2003 46.3037 37.401 46.1964 37.653C46.0937 37.905 46.0424 38.1827 46.0424 38.486V42H43.9424V35H46.0424V35.644C46.2617 35.392 46.516 35.189 46.8054 35.035C47.0947 34.881 47.4284 34.804 47.8064 34.804C48.4784 34.804 49.0547 34.9697 49.5354 35.301C50.0207 35.6277 50.394 36.0687 50.6554 36.624C50.9167 37.1747 51.0497 37.786 51.0544 38.458ZM59.25 37.1H58.06V42H55.96V37.1H55.05V35H55.96V32.802H58.06V35H59.25V37.1Z" fill="white"/>
<rect x="1.5" y="27.5" width="68" height="19" stroke="white"/>
</svg>
