<svg id="Layer_1" data-name="Layer 1" xmlns="http://www.w3.org/2000/svg" viewBox="0 0 809 202"><defs><style>.cls-1{fill:#fff;}.cls-2{fill:#ba2026;}.cls-3{fill:#60799c;}.cls-4{fill:#bb2126;}.cls-5{fill:#bd2126;}.cls-6{fill:#bc2126;}.cls-7{fill:#6f81a2;}.cls-8{fill:#363537;}.cls-9{fill:#eaf5ef;}</style></defs><path class="cls-1" d="M75.14,54.13l.5,0h.79C76,54.16,75.54,54.16,75.14,54.13Zm0,0,.5,0h.79C76,54.16,75.54,54.16,75.14,54.13Zm0,0,.5,0h.79C76,54.16,75.54,54.16,75.14,54.13Zm0,0,.5,0h.79C76,54.16,75.54,54.16,75.14,54.13Zm0,0,.5,0h.79C76,54.16,75.54,54.16,75.14,54.13Zm0,0,.5,0h.79C76,54.16,75.54,54.16,75.14,54.13Zm0,0,.5,0h.79C76,54.16,75.54,54.16,75.14,54.13Zm0,0,.5,0h.79C76,54.16,75.54,54.16,75.14,54.13Zm62.36.27c-5.68,0-11.38,0-17.07,0-.67,0-.85.24-.91.89a36.85,36.85,0,0,1-.61,4.9q-6.33,29-34.8,37.64c-3.07.9-2.94,1.61-2.68-2.39.22,0,.42,0,.64-.09a44.27,44.27,0,0,0,22-12.51c10-10.4,14.08-22.85,12.23-37.08a42.81,42.81,0,0,0-15.41-27.95A43.77,43.77,0,0,0,65.72,7.5,43.31,43.31,0,0,0,35.8,24.84a43.34,43.34,0,0,0-8.49,34.63A43.32,43.32,0,0,0,42.83,86.11a42.5,42.5,0,0,0,19.23,9.35,12.43,12.43,0,0,0,0,1.83c.19,1.15-.33,1.2-1.29,1C41,94,25.31,76,23.89,55.77c-.09-1.22-.52-1.4-1.59-1.37-5.24,0-10.49.06-15.77,0-1.24,0-1.61.23-1.51,1.52a64.25,64.25,0,0,0,7.25,26c10.45,19.47,26.62,31.23,48.36,35.21,1.18.21,1.52.58,1.52,1.78-.09,5.7,0,11.38-.06,17.07,0,1,.28,1.19,1.2,1.19q8.45-.06,16.84,0c1,0,1.22-.28,1.22-1.22-.07-5.39,0-10.77,0-16.15,0-2.33,0-2.28,2.28-2.76,23.07-4.74,39.63-17.74,49.42-39.19a61.34,61.34,0,0,0,5.29-22.12C138.32,55.16,138.71,54.37,137.5,54.4ZM81.68,87l-.31.28c0-3.26,0-6.2,0-9.14a.81.81,0,0,1,.28-.67,1.3,1.3,0,0,1,.63-.16c2.09-.34,4.2-.74,6.25-1.28.24-.07.54-.22.7.06.1.13,0,.42-.09.61A30.71,30.71,0,0,1,81.68,87Zm15.53-3.18a35.64,35.64,0,0,1-13.8,6.94,38.11,38.11,0,0,0,5.66-6.4,43.15,43.15,0,0,0,4.86-9.18,2,2,0,0,1,1.19-1.24,38.73,38.73,0,0,0,16-10.8A39.76,39.76,0,0,1,97.21,83.82ZM95.89,69.59c.47-2.18.85-4.09,1.22-6a61.19,61.19,0,0,0,1-8.92c0-.52,0-.94.71-.91h12.39C109.21,62.08,103,66.08,95.89,69.59Zm0-35.56c6.66,3.24,12.5,6.94,14.91,14.29.52,1.57.46,1.57-1.22,1.57H99.15c-.52,0-1,.09-1.07-.72A67.33,67.33,0,0,0,96,34.76C96,34.61,96,34.46,95.88,34Zm-.6-15.65c7.74,5.4,14.08,14.25,15.93,22.35a35.72,35.72,0,0,0-5.64-5.36,42.41,42.41,0,0,0-10.25-5.61A2,2,0,0,1,94,28.67,39.3,39.3,0,0,0,83.46,12.89,33.91,33.91,0,0,1,95.28,18.38ZM73.62,13.59c0-.8.15-1,.92-.8a17.21,17.21,0,0,1,7.87,4.44c.44.45.94.91,1.38,1.36a2,2,0,0,0,.76.85,39.72,39.72,0,0,1,4.31,7c.19.35.63.78.34,1.15s-.82,0-1.22-.13a67.55,67.55,0,0,0-13.27-1.78c-.8,0-1.09-.24-1.09-1.12C73.67,20.86,73.64,17.23,73.62,13.59Zm0,16.84c0-.67.11-1,.92-.95a61.87,61.87,0,0,1,16,2.61,1.43,1.43,0,0,1,1,1,67.37,67.37,0,0,1,2.67,15.7c0,.87-.24,1.1-1.09,1.1-3.06-.08-6.16,0-9.22,0s-6.19,0-9.25,0c-.79,0-1-.19-1-1Q73.65,39.64,73.62,30.43ZM69.71,43.62c0,1.77,0,3.55,0,5.33,0,.75-.24,1-1,1-3.13,0-6.27,0-9.4,0s-6.16,0-9.25,0c-.79,0-1-.19-1-1a64.12,64.12,0,0,1,2.72-15.84,1.25,1.25,0,0,1,.93-.94,63.68,63.68,0,0,1,16.26-2.66c1,0,.65.61.65,1Q69.71,37,69.71,43.62Zm0-30.88V25c0,.42-.19.59-.61.63a69.49,69.49,0,0,0-14.77,2.09.79.79,0,0,1-.24-.11C56.41,21.08,63,13.39,69.7,12.74Zm-9.49,0A35.92,35.92,0,0,0,50.1,26.93a5.8,5.8,0,0,1-3.53,3.5A35.14,35.14,0,0,0,33.06,39.7c-.18.24-.33.51-.72.46C35.67,27.5,47.2,16,60.21,12.74ZM47.49,34.05c-.62,2.85-1.23,5.46-1.59,8.11-.31,2.18-.46,4.4-.61,6.58,0,.87-.27,1.19-1.18,1.19q-5.41-.12-10.82,0c-1,0-1-.41-.85-1.17A17,17,0,0,1,36.1,42C39.19,38.46,43.07,36.12,47.49,34.05ZM34.9,53.77h9.36c.57,0,1,0,1,.76a68.24,68.24,0,0,0,2.31,15.1c-6.31-3-11.8-6.49-14.52-13C31.82,53.77,31.88,53.77,34.9,53.77ZM59.59,90.85A40.79,40.79,0,0,1,32.25,63.14C33.64,64.56,35,66,36.52,67.3A41.53,41.53,0,0,0,47.9,73.77a2.67,2.67,0,0,1,1.63,1.65c2.31,5.64,5.35,10.79,10.06,14.82a1,1,0,0,1,.19.31C59.72,90.65,59.67,90.74,59.59,90.85Zm2.47-3.51-.3-.28c-3.59-3-5.92-6.88-8-11.21,2.74.57,5.31,1.18,8,1.53v.26a.42.42,0,0,0,.3-.18ZM63.52,54.4c-1.09,0-1.46.19-1.43,1.41.06,5.33,0,10.69,0,16.06,0,.57,0,1.13,0,1.7a1,1,0,0,0-.3-.28v.23a74.65,74.65,0,0,1-8.83-2,1.52,1.52,0,0,1-1.12-1.13,64.13,64.13,0,0,1-2.67-15.57c0-.8.09-1.13,1-1.13,6.18,0,12.38,0,18.52,0,.37,0,.85-.18,1,.24a1.45,1.45,0,0,1,0,.3A45.93,45.93,0,0,1,63.52,54.4Zm16.19,0a37.51,37.51,0,0,1-6.09-.06.61.61,0,0,1,0-.3c.1-.27.43-.24.73-.24q9.51,0,19,0c.73,0,.86.29.82.94A66.22,66.22,0,0,1,91.56,70.5a1.48,1.48,0,0,1-1.14,1.07,64.42,64.42,0,0,1-8.68,2c0-.08,0-.17,0-.23a1.07,1.07,0,0,0-.31.24c-.24-5.84-.12-11.67-.08-17.52C81.37,54.64,81,54.35,79.71,54.37Zm-4.07-.21h.79c-.42,0-.89,0-1.29,0Zm-.5,0,.5,0h.79C76,54.16,75.54,54.16,75.14,54.13Zm0,0,.5,0h.79C76,54.16,75.54,54.16,75.14,54.13Zm0,0,.5,0h.79C76,54.16,75.54,54.16,75.14,54.13Zm0,0,.5,0h.79C76,54.16,75.54,54.16,75.14,54.13Zm0,0,.5,0h.79C76,54.16,75.54,54.16,75.14,54.13Zm0,0,.5,0h.79C76,54.16,75.54,54.16,75.14,54.13Z"/><path class="cls-1" d="M163.89,117.36c-.15-.66-.49-.76-1.1-.76-1.55,0-3.12.06-4.68,0-.81,0-1.05.33-1.2,1-.43,1.94-.89,3.88-1.31,5.82-1,4.22-1.91,8.46-2.87,12.68-.19.77-.13,1.13.85,1.09,2.29,0,2.29,0,2.81-2.18a9.65,9.65,0,0,0,.24-1,.92.92,0,0,1,1.13-.91c1.67.06,3.29.09,4.94,0,1-.07,1.24.35,1.46,1.18.76,3.06.76,3.06,4.11,2.82C166.79,130.46,165.33,123.91,163.89,117.36Zm-1.67,12.36c-.65-.05-1.31,0-1.94,0-2.67,0-2.7,0-2.13-2.61.46-2.12.94-4.21,1.42-6.3.1-.47.13-.91.86-.91s.72.44.81.92c.57,2.65,1.17,5.31,1.76,8C163.18,129.52,163,129.8,162.22,129.72Z"/><path class="cls-1" d="M167.7,91.33c-.43-3.81-2.48-5.66-6.42-5.72-2-.07-4.07,0-6.13,0-.89,0-1.18.2-1.14,1.14.05,3,0,6.07,0,9.11v7.93c0,2.41,0,2.37,2.35,2.41.94,0,1.09-.33,1.07-1.13-.08-1.39,0-2.79,0-4.14,0-.76.22-1,1-1,1.18,0,2.36,0,3.51,0a5.69,5.69,0,0,0,5.59-4.46A11.73,11.73,0,0,0,167.7,91.33Zm-3.48,2.31c-.39,2.09-1.32,2.89-3.46,2.89h-1c-2.33,0-2.33,0-2.33-2.28,0-1.42,0-2.88,0-4.31,0-.7.15-1,1-1a23.77,23.77,0,0,1,3.75.15,2.61,2.61,0,0,1,2.07,2.09A5.64,5.64,0,0,1,164.22,93.64Z"/><path class="cls-1" d="M167.88,74.93c-.84-.75-.63-2.36-.87-3.57-.64-3.37-1.25-6.74-1.85-10.1,0-.15,0-.37-.4-.4-.64,3.49-1.27,7-1.91,10.5-.18,1-.39,2-.51,3-.1.57-.28.82-.88.82-1.28,0-2.52,0-3.79,0a.74.74,0,0,1-.85-.73c-1.34-6.34-2.67-12.71-4-19.07-.12-.55-.06-.82.58-.76h.12c2.67-.12,2.64-.12,3.15,2.48.82,4.49,1.67,8.95,2.52,13.44.06.33,0,.79.55,1a28.07,28.07,0,0,0,1-4.52c.76-3.73,1.48-7.49,2.12-11.25.15-.88.49-1.12,1.33-1.12,2.7,0,2.7,0,3.19,2.52.85,4.51,1.73,9,2.61,13.52.06.3,0,.64.51.85a30.28,30.28,0,0,0,1-4.61c.73-3.73,1.43-7.49,2.06-11.25.16-.88.46-1.12,1.34-1.12,2.39,0,2.39,0,1.91,2.33-1.15,5.58-2.34,11.19-3.46,16.8-.21,1.15-.6,1.61-1.82,1.46S168.7,75.6,167.88,74.93Z"/><path class="cls-1" d="M169.67,90.1c.43-2.85,2.43-4.58,5.61-4.8a28.85,28.85,0,0,1,6.22.55c.55.09.67.36.67.88.06,2.4.06,2.37-2.31,2.21a24.19,24.19,0,0,0-4.43-.21c-1.69.24-2.45,1.06-2.45,2.49a2.12,2.12,0,0,0,1.51,2.06c1.28.48,2.61.88,3.92,1.36,3.79,1.37,5,3.73,4,7.65-.73,2.75-3,4.18-6.55,4.15a38.34,38.34,0,0,1-5-.58c-.55-.09-.7-.3-.73-.88,0-2.21.15-2.42,2.33-2.21a34.33,34.33,0,0,0,3.91.24c1.73-.06,2.67-.72,2.89-2.06.27-1.55-.31-2.49-2.07-3.09-1.18-.43-2.42-.7-3.57-1.15C170.4,95.49,169.19,93.4,169.67,90.1Z"/><path class="cls-1" d="M182.77,132.52c-.54,3.12-2.67,4.82-6.06,4.88a33.35,33.35,0,0,1-5.55-.55c-.67-.09-.94-.36-.79-1a9.47,9.47,0,0,0,.09-1.3c0-.85.37-1.06,1.25-.91a26.6,26.6,0,0,0,4.91.39c1.76-.09,2.61-.72,2.85-2.12s-.34-2.43-2-3c-1.25-.46-2.58-.73-3.82-1.21-3.1-1.22-4.25-3.37-3.73-6.74.42-2.66,2.45-4.36,5.51-4.61.46,0,.94,0,1.43,0a34.27,34.27,0,0,1,4.64.49c.73.09.94.36.91,1.09-.06,2.21,0,2.21-2.21,2.06a27.45,27.45,0,0,0-4.43-.21c-1.79.18-2.58,1-2.55,2.52a2.06,2.06,0,0,0,1.52,2c1.33.52,2.7.91,4.06,1.39C182.2,126.88,183.41,129,182.77,132.52Z"/><path class="cls-1" d="M194.17,59.32a6.09,6.09,0,0,0-5.66-4.92c-5-.53-8.23,1.28-9.07,6.44-.22,1.35-.22,2.76-.31,4a21.55,21.55,0,0,0,.67,6,6,6,0,0,0,4.12,4.29,11.62,11.62,0,0,0,5.4.19,5.78,5.78,0,0,0,4.83-4.37A22,22,0,0,0,194.17,59.32ZM190.8,69.59c-.48,1.8-1.72,2.46-3.79,2.46s-3.2-.72-3.85-2.46a6.62,6.62,0,0,1-.35-1.48c-.13-1-.18-2.09-.26-3.12a16,16,0,0,1,.61-4.61,3.59,3.59,0,0,1,3.7-2.66c2,0,3.37.72,3.93,2.53A16.41,16.41,0,0,1,190.8,69.59Z"/><path class="cls-1" d="M197.15,134.34a5.54,5.54,0,0,1-4.7,3,23.89,23.89,0,0,1-6.58-.55c-.46-.09-.61-.33-.64-.82-.06-2.15.18-2.42,2.3-2.24a30.12,30.12,0,0,0,4,.24c1.73-.12,2.6-.79,2.82-2.15.21-1.52-.37-2.43-2-3-1.28-.46-2.58-.76-3.83-1.24-3.06-1.22-4.24-3.37-3.73-6.59.46-2.78,2.46-4.51,5.55-4.73.49,0,1,0,1.43,0a36,36,0,0,1,4.79.52c.55.09.79.3.73.85s-.06.85-.06,1.3c0,.91-.28,1.25-1.31,1.09a23.77,23.77,0,0,0-5.06-.36c-1.91.15-2.79,1-2.73,2.61a2.12,2.12,0,0,0,1.58,2c1.27.52,2.64.88,3.94,1.36C197.51,127.06,198.94,130.61,197.15,134.34Z"/><path class="cls-1" d="M199.15,85.58c-1,2.09-1.88,4.09-3,5.94a18.2,18.2,0,0,0-3,12.22v.12c0,2.52-.24,2.67-2.85,2.31-.66-.12-.54-.55-.54-.94,0-2.19-.06-4.34,0-6.52a5.53,5.53,0,0,0-.61-2.61c-1.76-3.37-3.46-6.79-5.18-10.19,0,0,0-.09,0-.3h3.15c.64,0,.7.54.91.94,1.12,2.18,2.21,4.36,3.43,6.82,1.12-2.3,2.18-4.34,3.12-6.4a1.9,1.9,0,0,1,2.24-1.39A18.68,18.68,0,0,0,199.15,85.58Z"/><path class="cls-1" d="M209.55,66.89c2.94-2,2.88-4.9,2.36-7.9-.46-2.59-2-3.88-4.58-4.22-2.82-.37-5.63-.09-8.46-.18-.63,0-.7.28-.7.79v5q0,6.78,0,13.57c0,.87.2,1.18,1.15,1.14,2.24,0,2.24,0,2.27-2.36V71.35c0-3.33,0-3.29,3.37-3.24a1.06,1.06,0,0,1,1.18.87c.37,1.08.82,2.13,1.21,3.17,1.18,3.14,1.18,3.14,4.82,2.9-.94-2.42-1.81-4.7-2.7-7C209.31,67.65,209,67.26,209.55,66.89Zm-1-4.48a2.57,2.57,0,0,1-2.64,2.34c-.58,0-1.15,0-1.7,0-2.67,0-2.67,0-2.67-2.72a3,3,0,0,1,0-.52c.15-1.17-.52-3.13.34-3.37a8.26,8.26,0,0,1,5.36.26C208.49,59,209,60.62,208.58,62.41Z"/><path class="cls-1" d="M207.15,85.3a24.68,24.68,0,0,1,5.16.52c.91.12,1.21.49,1.15,1.43-.15,1.91-.09,1.88-1.91,1.75a19.27,19.27,0,0,0-4.15-.18,3.06,3.06,0,0,0-2.82,2.49,20.46,20.46,0,0,0-.1,8.88c.4,1.88,1.4,2.64,3.4,2.79a24.34,24.34,0,0,0,4.67-.39c.61-.09.88,0,.85.7-.12,3,.76,2.24-2.43,2.85a16.61,16.61,0,0,1-3.21.3c-4.12,0-6.28-1.91-6.82-6a24.41,24.41,0,0,1-.28-4.46,21.19,21.19,0,0,1,.52-5.76C202,87,203.85,85.49,207.15,85.3Z"/><path class="cls-1" d="M215.49,123.73c-.52-4.46-2.35-6.87-6.05-7.31-4.83-.65-8.24.85-9.16,6.22a22.89,22.89,0,0,0,.16,9.54,6.07,6.07,0,0,0,4.35,4.89,11.74,11.74,0,0,0,5.14.18,6.06,6.06,0,0,0,5.07-4.61,23,23,0,0,0,.67-5.86C215.61,126,215.61,124.84,215.49,123.73Zm-3.87,7.84a3.44,3.44,0,0,1-3.31,2.43c-1.8.09-3.56-.15-4.18-2.06a15.17,15.17,0,0,1,.05-10.19c.61-1.61,2-2.09,3.7-2.06a3.51,3.51,0,0,1,3.52,2.19,13.51,13.51,0,0,1,.79,5.21A14.66,14.66,0,0,1,211.62,131.57Z"/><path class="cls-1" d="M224.13,75.12c-2.57,0-5.12,0-7.7,0-.73,0-.94-.22-.94-.94.06-3.13,0-6.25,0-9.37s0-6.1,0-9.13c0-.91.24-1.15,1.15-1.15,2.22.06,2.22,0,2.22,2.18,0,4.64,0,9.28,0,13.92,0,.85.18,1.12,1.06,1.09,1.79-.06,3.55,0,5.34,0,.84,0,1.21.15,1.21,1.12C226.41,75.12,226.47,75.12,224.13,75.12Z"/><path class="cls-1" d="M221.83,122.72a23.5,23.5,0,0,0,0,8.28c.33,2,1.55,2.91,3.67,3a23.89,23.89,0,0,0,4.39-.39c.61-.09.94,0,.88.7v.12c.16,2.39.16,2.39-2.27,2.73a22.42,22.42,0,0,1-4,.27,5.71,5.71,0,0,1-5.86-4.58,19.58,19.58,0,0,1-.54-5.91,20.87,20.87,0,0,1,.54-6,5.79,5.79,0,0,1,5.8-4.67,23.36,23.36,0,0,1,5.42.55c.79.12,1.07.49,1,1.3-.16,1.94-.13,1.94-2,1.82a31.57,31.57,0,0,0-3.36-.21C223.38,119.78,222.19,120.69,221.83,122.72Z"/><path class="cls-1" d="M231.29,87.82c0,5.73,0,11.46,0,17.19,0,.91-.21,1.16-1.15,1.16-2.28-.06-2.28,0-2.28-2.25,0-1.76,0-3.54,0-5.33,0-.85-.12-1.25-1.12-1.22-1.94.09-3.88.06-5.85,0-.76,0-1,.19-1,1,.09,2.28,0,4.52.06,6.8,0,.81-.24,1-1,1-2.4,0-2.4,0-2.4-2.37V95.86c0-3,0-6.07,0-9.1,0-.85.15-1.21,1.09-1.18,2.31,0,2.31,0,2.31,2.33,0,1.7,0,3.37,0,5.07,0,.72.09,1.09.94,1.06C223,94,225,94,227,94c.7,0,.91-.18.91-.88-.06-2.12,0-4.25,0-6.37,0-.85.15-1.21,1.13-1.18C231.29,85.64,231.29,85.58,231.29,87.82Z"/><path class="cls-1" d="M237.32,118.84c0,5.73-.06,11.43,0,17.16,0,.91-.24,1.19-1.15,1.16-2.3,0-2.27,0-2.27-2.22,0-2.76,0-5.49,0-8.21h0c0-3,0-6,0-9,0-.91.24-1.18,1.15-1.18C237.29,116.63,237.32,116.57,237.32,118.84Z"/><path class="cls-1" d="M238.78,87.73c0,5.73,0,11.46,0,17.19,0,.91-.15,1.28-1.18,1.25-2.16-.09-2.16,0-2.16-2.22V95.89c0-3,0-6.07,0-9.13,0-1,.31-1.21,1.25-1.18C238.78,85.64,238.78,85.58,238.78,87.73Z"/><path class="cls-1" d="M243.61,60.77C243,56.68,241.09,55,237,54.72c-2.16-.17-4.34-.08-6.49-.17-.85,0-1.13.24-1.09,1.09,0,3.09,0,6.2,0,9.25s0,6.16,0,9.25c0,.8.2,1,1,1,2.18,0,4.33,0,6.51,0a6.24,6.24,0,0,0,6.49-5.4A25.18,25.18,0,0,0,243.61,60.77Zm-3.65,8a3.51,3.51,0,0,1-3.9,2.9c-1.07,0-2.46.48-3.13-.18s-.15-2.06-.18-3.15,0-2.35,0-3.51c0-1.95,0-3.93,0-5.87,0-.87.28-1.11,1.09-1,1.13.09,2.28,0,3.41.14A3.26,3.26,0,0,1,240,60.8,18.7,18.7,0,0,1,240,68.82Z"/><path class="cls-1" d="M255.61,136.44c-1.4-6.35-2.85-12.69-4.25-19-.15-.65-.39-.85-1-.82q-2.42,0-4.83,0c-.72,0-1,.24-1.09.93-.42,2.07-.94,4.12-1.42,6.2-1,4.42-2,8.84-3,13.3,3.25.41,3.25.41,4-2.61a2.9,2.9,0,0,0,.14-.48c0-.67.34-.87,1-.85,1.8,0,3.55,0,5.35,0,.63,0,.94.2,1,.85a15.67,15.67,0,0,0,.65,2.39c.08.29,0,.85.59.81l2.85-.09A2.05,2.05,0,0,0,255.61,136.44Zm-6.16-6.72a10.74,10.74,0,0,0-1.7,0c-2.72,0-2.72,0-2.13-2.64.5-2.13,1-4.22,1.45-6.33.07-.52.24-.85.87-.85s.62.42.75.85c.56,2.61,1.13,5.24,1.73,7.84C250.64,129.48,250.4,129.85,249.45,129.72Z"/><path class="cls-1" d="M252.88,86.37c-.15-.61-.39-.79-1-.79-1.64,0-3.31,0-4.94,0-.64,0-.88.2-1,.85-.35,1.61-.74,3.22-1.09,4.81-1.07,4.64-2.11,9.29-3.2,13.93-.15.69-.07,1,.74,1,2.46,0,2.46,0,3-2.31,0-.24.09-.48.14-.76.1-.76.43-1.06,1.28-1,1.52.06,3,.09,4.55,0,1-.07,1.48.2,1.76,1.3.68,2.9.76,2.88,3.77,2.73.08,0,.1,0,.28-.09C255.8,99.44,254.3,92.92,252.88,86.37Zm-1.72,12.36c-.62,0-1.23,0-1.85,0-2.8,0-2.8,0-2.17-2.75.5-2.13,1-4.22,1.46-6.33.09-.52.24-.76.8-.76s.72.33.81.78c.58,2.66,1.15,5.34,1.76,8C252.15,98.44,252,98.82,251.16,98.73Z"/><path class="cls-1" d="M270.28,117.87c-.09,2.12,0,2.12-2.15,2.12-3.27,0-3.27,0-3.27,3.28v5.34c0,2.51,0,5,0,7.55,0,.81-.21,1-1,1-2.4,0-2.4,0-2.4-2.37,0-4.49,0-9,0-13.52,0-1-.18-1.4-1.27-1.31s-2.25,0-3.37,0c-.54,0-.73-.15-.79-.72-.18-2.67-.21-2.67,2.49-2.67,3.49,0,6.94,0,10.43,0C270,116.57,270.32,116.84,270.28,117.87Z"/><path class="cls-1" d="M271.74,86.67c0,2.3,0,2.3-2.33,2.3-3,0-3,0-3,3v5.58c0,2.48,0,4.94,0,7.42,0,.88-.21,1.19-1.12,1.16-2.3-.06-2.3,0-2.3-2.34,0-4.58,0-9.19,0-13.79,0-.85-.25-1.13-1.09-1.07-1.13.06-2.25,0-3.4,0-.64,0-.88-.12-.91-.84,0-2.58-.09-2.58,2.49-2.58,3.51,0,7,0,10.55,0C271.53,85.55,271.74,85.85,271.74,86.67Z"/><path class="cls-1" d="M275.41,135.94c0,1-.24,1.25-1.24,1.22-2.1-.06-2.1,0-2.1-2.1,0-5.73,0-11.46,0-17.16,0-1,.22-1.48,1.28-1.3a4.18,4.18,0,0,0,1.06,0c.82-.12,1,.24,1,1,0,3.06,0,6.12,0,9.22S275.32,132.91,275.41,135.94Z"/><path class="cls-1" d="M284.94,97.88c3-2,2.87-4.94,2.38-7.94a4.71,4.71,0,0,0-4.47-4.16c-2.83-.39-5.65-.07-8.48-.2-.61,0-.72.24-.72.79v19c0,.32-.13.76.43.76a6.87,6.87,0,0,0,2.7-.18c.52-.21.09-1.26.15-2,0-.49,0-1,0-1.53,0-3.42,0-3.4,3.42-3.33a1,1,0,0,1,1.15.76c.4,1.09.83,2.18,1.26,3.27,1.2,3.15,1.2,3.15,4.79,2.91-.93-2.37-1.8-4.7-2.69-7C284.72,98.64,284.42,98.25,284.94,97.88ZM284.09,93a2.84,2.84,0,0,1-3.17,2.75c-1,0-2.05-.07-3.12,0-.69,0-.91-.24-.87-.9,0-.86,0-1.74,0-2.78.09-.87-.47-2.24.2-2.85.83-.76,2.22-.24,3.37-.24C283.2,89,284.42,90.37,284.09,93Z"/><path class="cls-1" d="M290.84,103.86c0-5.64,0-11.31,0-17,0-1.06.28-1.48,1.37-1.33a2.32,2.32,0,0,0,.91,0c.91-.12,1.18.24,1.15,1.15-.06,3.09,0,6.16,0,9.25s0,6.06,0,9.1c0,.87-.27,1.09-1.09,1.09C290.87,106.14,290.84,106.17,290.84,103.86Z"/><path class="cls-1" d="M294.26,123.91c-.42-4.49-2.29-7-6-7.49-5.18-.67-8.35,1-9.25,6.27a23.1,23.1,0,0,0,.18,9.44,6,6,0,0,0,4.31,4.9,11.2,11.2,0,0,0,5.15.22,6,6,0,0,0,5.12-4.7,22.73,22.73,0,0,0,.67-5.46C294.39,126,294.36,124.93,294.26,123.91Zm-3.85,7.61A3.41,3.41,0,0,1,287,134c-2.22.12-3.61-.49-4.14-2.11a15.51,15.51,0,0,1,.07-10.07c.56-1.61,2-2.16,3.68-2.13a3.58,3.58,0,0,1,3.57,2.13,12.66,12.66,0,0,1,.76,5.2A14,14,0,0,1,290.41,131.52Z"/><path class="cls-1" d="M298.09,101.71A25.58,25.58,0,0,1,298.15,90c.76-3,2.55-4.39,5.64-4.67a22.46,22.46,0,0,1,5.82.61c.67.12.7.49.67,1.09-.15,2.13-.12,2.06-2.18,2a19.66,19.66,0,0,0-3.76-.15,3.25,3.25,0,0,0-3,2.76,18.48,18.48,0,0,0-.31,4.58,16.69,16.69,0,0,0,.28,3.85c.51,2,1.45,2.85,3.51,3a21.61,21.61,0,0,0,4.4-.36c.73-.12,1,0,1,.76.12,2.42.15,2.42-2.3,2.79a20,20,0,0,1-4,.24C300.7,106.26,298.79,104.83,298.09,101.71Z"/><path class="cls-1" d="M313.1,136.25c0,.76-.27.94-1,.91-1.39-.06-3,.42-4.09-.19s-1.19-2.42-1.7-3.69c-1.52-3.73-3-7.49-4.43-11.22a2.1,2.1,0,0,0-.64-1.13,2.09,2.09,0,0,0-.18,1.31c0,4.55-.06,9.13,0,13.67,0,1.06-.3,1.28-1.3,1.25-2.06-.06-2.06,0-2.06-2,0-5.77,0-11.53,0-17.32,0-.94.21-1.3,1.21-1.24,1.39.12,3.12-.4,4.06.24s1.19,2.43,1.67,3.7c1.43,3.73,2.85,7.46,4.28,11.16a11.27,11.27,0,0,0,.51,1.12c.46-.45.27-.91.27-1.3,0-4.52.07-9,0-13.53,0-1.09.25-1.54,1.37-1.36a4.91,4.91,0,0,0,1.15,0c.73-.09.88.24.85.91Q313.07,126.87,313.1,136.25Z"/><path class="cls-2" d="M75.64,54.16c-.15,0-.33,0-.51,0,.42,0,.88,0,1.3,0Z"/><path class="cls-2" d="M138.29,55.71A61.38,61.38,0,0,1,133,77.85c-9.79,21.43-26.35,34.44-49.42,39.17-2.28.49-2.28.43-2.28,2.76,0,5.4,0,10.77,0,16.16,0,.94-.21,1.25-1.21,1.22q-8.41,0-16.83,0c-.94,0-1.21-.19-1.21-1.19.06-5.7,0-11.37.06-17.07,0-1.21-.33-1.57-1.52-1.79q-32.61-6-48.36-35.2A64.25,64.25,0,0,1,5,55.92c-.09-1.3.27-1.54,1.52-1.51,5.27.06,10.52,0,15.76,0,1.07,0,1.49.15,1.58,1.36C25.31,76,41,94,60.81,98.28c1,.22,1.49.15,1.31-1a12.26,12.26,0,0,1-.06-1.82A2.49,2.49,0,0,1,61.72,94c0-2.22,0-4.4,0-6.58v-.34l.31.28V77.45a.37.37,0,0,1-.31.18v-.24c0-1.27,0-2.58,0-3.85V73.3a.8.8,0,0,1,.31.27c0-.58.06-1.12.06-1.7,0-5.37,0-10.73,0-16.07,0-1.21.33-1.42,1.42-1.39a46,46,0,0,0,6.22-.1.89.89,0,0,0-.06-.3,22.27,22.27,0,0,1,4,0,.49.49,0,0,0-.06.3,36.54,36.54,0,0,0,6.1.07c1.3,0,1.66.27,1.63,1.63,0,5.86-.15,11.68.09,17.53a1.43,1.43,0,0,1,.31-.24c0,.06,0,.15,0,.21v.21a10.55,10.55,0,0,1-.09,3.76.75.75,0,0,0-.28.67c0,2.94,0,5.88,0,9.13.09-.1.22-.19.31-.28.09,2.16.18,4.31.18,6.46,0,.7.12,1.4-.43,2-.27,4-.39,3.31,2.67,2.4,19-5.7,30.6-18.29,34.81-37.63a37,37,0,0,0,.61-4.91c.06-.64.24-.88.91-.88,5.7,0,11.4,0,17.07,0C138.71,54.38,138.32,55.16,138.29,55.71Z"/><path class="cls-3" d="M116.28,45.76a42.81,42.81,0,0,0-15.41-27.95A43.77,43.77,0,0,0,65.72,7.5,43.31,43.31,0,0,0,35.8,24.84a43.34,43.34,0,0,0-8.49,34.63A43.32,43.32,0,0,0,42.83,86.11a42.5,42.5,0,0,0,19.23,9.35V87.34l-.3-.28c-3.59-3-5.92-6.88-8-11.21,2.74.57,5.31,1.18,8,1.53v.26a.42.42,0,0,0,.3-.18V73.57a1,1,0,0,0-.3-.28v.23a74.65,74.65,0,0,1-8.83-2,1.52,1.52,0,0,1-1.12-1.13,64.13,64.13,0,0,1-2.67-15.57c0-.8.09-1.13,1-1.13,6.18,0,12.38,0,18.52,0,.37,0,.85-.18,1,.24a1.45,1.45,0,0,1,0,.3h3.89a.61.61,0,0,1,0-.3c.1-.27.43-.24.73-.24q9.51,0,19,0c.73,0,.86.29.82.94A66.22,66.22,0,0,1,91.56,70.5a1.48,1.48,0,0,1-1.14,1.07,64.42,64.42,0,0,1-8.68,2c0-.08,0-.17,0-.23a1.07,1.07,0,0,0-.31.24v0h0c-.41,7.27,0,14.58,0,21.87.22,0,.42,0,.64-.09a44.27,44.27,0,0,0,22-12.51C114,72.44,118.13,60,116.28,45.76ZM73.62,13.59c0-.8.15-1,.92-.8a17.21,17.21,0,0,1,7.87,4.44c.44.45.94.91,1.38,1.36a2,2,0,0,0,.76.85,39.72,39.72,0,0,1,4.31,7c.19.35.63.78.34,1.15s-.82,0-1.22-.13a67.55,67.55,0,0,0-13.27-1.78c-.8,0-1.09-.24-1.09-1.12C73.67,20.86,73.64,17.23,73.62,13.59Zm-3.92-.85V25c0,.42-.19.59-.61.63a69.49,69.49,0,0,0-14.77,2.09.79.79,0,0,1-.24-.11C56.41,21.08,63,13.39,69.7,12.74Zm-34.8,41h9.36c.57,0,1,0,1,.76a68.24,68.24,0,0,0,2.31,15.1c-6.31-3-11.8-6.49-14.52-13C31.82,53.77,31.88,53.77,34.9,53.77Zm-2.46-5A17,17,0,0,1,36.1,42c3.09-3.51,7-5.85,11.39-7.92-.62,2.85-1.23,5.46-1.59,8.11-.31,2.18-.46,4.4-.61,6.58,0,.87-.27,1.19-1.18,1.19q-5.41-.12-10.82,0C32.29,49.93,32.25,49.52,32.44,48.76ZM49.53,75.42c2.31,5.64,5.35,10.79,10.06,14.82a1,1,0,0,1,.19.31c-.06.1-.11.19-.19.3A40.79,40.79,0,0,1,32.25,63.14C33.64,64.56,35,66,36.52,67.3A41.53,41.53,0,0,0,47.9,73.77,2.67,2.67,0,0,1,49.53,75.42Zm-3-45A35.14,35.14,0,0,0,33.06,39.7c-.18.24-.33.51-.72.46C35.67,27.5,47.2,16,60.21,12.74A35.92,35.92,0,0,0,50.1,26.93,5.8,5.8,0,0,1,46.57,30.43Zm22.2,19.48c-3.13,0-6.27,0-9.4,0s-6.16,0-9.25,0c-.79,0-1-.19-1-1a64.12,64.12,0,0,1,2.72-15.84,1.25,1.25,0,0,1,.93-.94,63.68,63.68,0,0,1,16.26-2.66c1,0,.65.61.65,1q0,6.59,0,13.16c0,1.77,0,3.55,0,5.33C69.75,49.7,69.49,49.91,68.77,49.91Zm24.37,0c-3.06-.08-6.16,0-9.22,0s-6.19,0-9.25,0c-.79,0-1-.19-1-1q0-9.27,0-18.48c0-.67.11-1,.92-.95a61.87,61.87,0,0,1,16,2.61,1.43,1.43,0,0,1,1,1,67.37,67.37,0,0,1,2.67,15.7C94.28,49.7,94,49.93,93.14,49.93ZM81.68,87l-.31.28c0-3.26,0-6.2,0-9.14a.81.81,0,0,1,.28-.67,1.3,1.3,0,0,1,.63-.16c2.09-.34,4.2-.74,6.25-1.28.24-.07.54-.22.7.06.1.13,0,.42-.09.61A30.71,30.71,0,0,1,81.68,87Zm15.53-3.18a35.64,35.64,0,0,1-13.8,6.94,38.11,38.11,0,0,0,5.66-6.4,43.15,43.15,0,0,0,4.86-9.18,2,2,0,0,1,1.19-1.24,38.73,38.73,0,0,0,16-10.8A39.76,39.76,0,0,1,97.21,83.82ZM95.89,69.59c.47-2.18.85-4.09,1.22-6a61.19,61.19,0,0,0,1-8.92c0-.52,0-.94.71-.91h12.39C109.21,62.08,103,66.08,95.89,69.59Zm0-35.56c6.66,3.24,12.5,6.94,14.91,14.29.52,1.57.46,1.57-1.22,1.57H99.15c-.52,0-1,.09-1.07-.72A67.33,67.33,0,0,0,96,34.76C96,34.61,96,34.46,95.88,34Zm9.69,1.34a42.41,42.41,0,0,0-10.25-5.61A2,2,0,0,1,94,28.67,39.3,39.3,0,0,0,83.46,12.89a33.91,33.91,0,0,1,11.82,5.49c7.74,5.4,14.08,14.25,15.93,22.35A35.72,35.72,0,0,0,105.57,35.37ZM75.14,54.13l.5,0h.79C76,54.16,75.54,54.16,75.14,54.13Z"/><path class="cls-4" d="M176.71,56.89c-1.15,5.58-2.34,11.19-3.46,16.8-.21,1.15-.6,1.61-1.82,1.46s-2.73.45-3.55-.22-.63-2.36-.87-3.57c-.64-3.37-1.25-6.74-1.85-10.1,0-.15,0-.37-.4-.4-.64,3.49-1.27,7-1.91,10.5-.18,1-.39,2-.51,3-.1.57-.28.82-.88.82-1.28,0-2.52,0-3.79,0a.74.74,0,0,1-.85-.73c-1.34-6.34-2.67-12.71-4-19.07-.12-.55-.06-.82.58-.76h.12c2.67-.12,2.64-.12,3.15,2.48.82,4.49,1.67,8.95,2.52,13.44.06.33,0,.79.55,1a28.07,28.07,0,0,0,1-4.52c.76-3.73,1.48-7.49,2.12-11.25.15-.88.49-1.12,1.33-1.12,2.7,0,2.7,0,3.19,2.52.85,4.51,1.73,9,2.61,13.52.06.3,0,.64.51.85a30.28,30.28,0,0,0,1-4.61c.73-3.73,1.43-7.49,2.06-11.25.16-.88.46-1.12,1.34-1.12C177.19,54.59,177.19,54.56,176.71,56.89Z"/><path class="cls-4" d="M313.1,136.25c0,.76-.27.94-1,.91-1.39-.06-3,.42-4.09-.19s-1.19-2.42-1.7-3.69c-1.52-3.73-3-7.49-4.43-11.22a2.1,2.1,0,0,0-.64-1.13,2.09,2.09,0,0,0-.18,1.31c0,4.55-.06,9.13,0,13.67,0,1.06-.3,1.28-1.3,1.25-2.06-.06-2.06,0-2.06-2,0-5.77,0-11.53,0-17.32,0-.94.21-1.3,1.21-1.24,1.39.12,3.12-.4,4.06.24s1.19,2.43,1.67,3.7c1.43,3.73,2.85,7.46,4.28,11.16a11.27,11.27,0,0,0,.51,1.12c.46-.45.27-.91.27-1.3,0-4.52.07-9,0-13.53,0-1.09.25-1.54,1.37-1.36a4.91,4.91,0,0,0,1.15,0c.73-.09.88.24.85.91Q313.07,126.87,313.1,136.25Z"/><path class="cls-4" d="M209.55,66.89c2.94-2,2.88-4.9,2.36-7.9-.46-2.59-2-3.88-4.58-4.22-2.82-.37-5.63-.09-8.46-.18-.63,0-.7.28-.7.79v5q0,6.78,0,13.57c0,.87.2,1.18,1.15,1.14,2.24,0,2.24,0,2.27-2.36V71.35c0-3.33,0-3.29,3.37-3.24a1.06,1.06,0,0,1,1.18.87c.37,1.08.82,2.13,1.21,3.17,1.18,3.14,1.18,3.14,4.82,2.9-.94-2.42-1.81-4.7-2.7-7C209.31,67.65,209,67.26,209.55,66.89Zm-1-4.48a2.57,2.57,0,0,1-2.64,2.34c-.58,0-1.15,0-1.7,0-2.67,0-2.67,0-2.67-2.72a3,3,0,0,1,0-.52c.15-1.17-.52-3.13.34-3.37a8.26,8.26,0,0,1,5.36.26C208.49,59,209,60.62,208.58,62.41Z"/><path class="cls-4" d="M243.61,60.77C243,56.68,241.09,55,237,54.72c-2.16-.17-4.34-.08-6.49-.17-.85,0-1.13.24-1.09,1.09,0,3.09,0,6.2,0,9.25s0,6.16,0,9.25c0,.8.2,1,1,1,2.18,0,4.33,0,6.51,0a6.24,6.24,0,0,0,6.49-5.4A25.18,25.18,0,0,0,243.61,60.77Zm-3.65,8a3.51,3.51,0,0,1-3.9,2.9c-1.07,0-2.46.48-3.13-.18s-.15-2.06-.18-3.15,0-2.35,0-3.51c0-1.95,0-3.93,0-5.87,0-.87.28-1.11,1.09-1,1.13.09,2.28,0,3.41.14A3.26,3.26,0,0,1,240,60.8,18.7,18.7,0,0,1,240,68.82Z"/><path class="cls-4" d="M284.94,97.88c3-2,2.87-4.94,2.38-7.94a4.71,4.71,0,0,0-4.47-4.16c-2.83-.39-5.65-.07-8.48-.2-.61,0-.72.24-.72.79v19c0,.32-.13.76.43.76a6.87,6.87,0,0,0,2.7-.18c.52-.21.09-1.26.15-2,0-.49,0-1,0-1.53,0-3.42,0-3.4,3.42-3.33a1,1,0,0,1,1.15.76c.4,1.09.83,2.18,1.26,3.27,1.2,3.15,1.2,3.15,4.79,2.91-.93-2.37-1.8-4.7-2.69-7C284.72,98.64,284.42,98.25,284.94,97.88ZM284.09,93a2.84,2.84,0,0,1-3.17,2.75c-1,0-2.05-.07-3.12,0-.69,0-.91-.24-.87-.9,0-.86,0-1.74,0-2.78.09-.87-.47-2.24.2-2.85.83-.76,2.22-.24,3.37-.24C283.2,89,284.42,90.37,284.09,93Z"/><path class="cls-4" d="M215.49,123.73c-.52-4.46-2.35-6.87-6.05-7.31-4.83-.65-8.24.85-9.16,6.22a22.89,22.89,0,0,0,.16,9.54,6.07,6.07,0,0,0,4.35,4.89,11.74,11.74,0,0,0,5.14.18,6.06,6.06,0,0,0,5.07-4.61,23,23,0,0,0,.67-5.86C215.61,126,215.61,124.84,215.49,123.73Zm-3.87,7.84a3.44,3.44,0,0,1-3.31,2.43c-1.8.09-3.56-.15-4.18-2.06a15.17,15.17,0,0,1,.05-10.19c.61-1.61,2-2.09,3.7-2.06a3.51,3.51,0,0,1,3.52,2.19,13.51,13.51,0,0,1,.79,5.21A14.66,14.66,0,0,1,211.62,131.57Z"/><path class="cls-4" d="M294.26,123.91c-.42-4.49-2.29-7-6-7.49-5.18-.67-8.35,1-9.25,6.27a23.1,23.1,0,0,0,.18,9.44,6,6,0,0,0,4.31,4.9,11.2,11.2,0,0,0,5.15.22,6,6,0,0,0,5.12-4.7,22.73,22.73,0,0,0,.67-5.46C294.39,126,294.36,124.93,294.26,123.91Zm-3.85,7.61A3.41,3.41,0,0,1,287,134c-2.22.12-3.61-.49-4.14-2.11a15.51,15.51,0,0,1,.07-10.07c.56-1.61,2-2.16,3.68-2.13a3.58,3.58,0,0,1,3.57,2.13,12.66,12.66,0,0,1,.76,5.2A14,14,0,0,1,290.41,131.52Z"/><path class="cls-4" d="M194.17,59.32a6.09,6.09,0,0,0-5.66-4.92c-5-.53-8.23,1.28-9.07,6.44-.22,1.35-.22,2.76-.31,4a21.55,21.55,0,0,0,.67,6,6,6,0,0,0,4.12,4.29,11.62,11.62,0,0,0,5.4.19,5.78,5.78,0,0,0,4.83-4.37A22,22,0,0,0,194.17,59.32ZM190.8,69.59c-.48,1.8-1.72,2.46-3.79,2.46s-3.2-.72-3.85-2.46a6.62,6.62,0,0,1-.35-1.48c-.13-1-.18-2.09-.26-3.12a16,16,0,0,1,.61-4.61,3.59,3.59,0,0,1,3.7-2.66c2,0,3.37.72,3.93,2.53A16.41,16.41,0,0,1,190.8,69.59Z"/><path class="cls-4" d="M231.32,105c0,.91-.21,1.16-1.15,1.16-2.28-.06-2.28,0-2.28-2.25,0-1.76,0-3.54,0-5.33,0-.85-.12-1.25-1.12-1.22-1.94.09-3.88.06-5.85,0-.76,0-1,.19-1,1,.09,2.28,0,4.52.06,6.8,0,.81-.24,1-1,1-2.4,0-2.4,0-2.4-2.37V95.86c0-3,0-6.07,0-9.1,0-.85.15-1.21,1.09-1.18,2.31,0,2.31,0,2.31,2.33,0,1.7,0,3.37,0,5.07,0,.72.09,1.09.94,1.06C223,94,225,94,227,94c.7,0,.91-.18.91-.88-.06-2.12,0-4.25,0-6.37,0-.85.15-1.21,1.13-1.18,2.27.06,2.27,0,2.27,2.24C231.29,93.55,231.26,99.28,231.32,105Z"/><path class="cls-4" d="M255.61,136.44c-1.4-6.35-2.85-12.69-4.25-19-.15-.65-.39-.85-1-.82q-2.42,0-4.83,0c-.72,0-1,.24-1.09.93-.42,2.07-.94,4.12-1.42,6.2-1,4.42-2,8.84-3,13.3,3.25.41,3.25.41,4-2.61a2.9,2.9,0,0,0,.14-.48c0-.67.34-.87,1-.85,1.8,0,3.55,0,5.35,0,.63,0,.94.2,1,.85a15.67,15.67,0,0,0,.65,2.39c.08.29,0,.85.59.81l2.85-.09A2.05,2.05,0,0,0,255.61,136.44Zm-6.16-6.72a10.74,10.74,0,0,0-1.7,0c-2.72,0-2.72,0-2.13-2.64.5-2.13,1-4.22,1.45-6.33.07-.52.24-.85.87-.85s.62.42.75.85c.56,2.61,1.13,5.24,1.73,7.84C250.64,129.48,250.4,129.85,249.45,129.72Z"/><path class="cls-4" d="M163.89,117.36c-.15-.66-.49-.76-1.1-.76-1.55,0-3.12.06-4.68,0-.81,0-1.05.33-1.2,1-.43,1.94-.89,3.88-1.31,5.82-1,4.22-1.91,8.46-2.87,12.68-.19.77-.13,1.13.85,1.09,2.29,0,2.29,0,2.81-2.18a9.65,9.65,0,0,0,.24-1,.92.92,0,0,1,1.13-.91c1.67.06,3.29.09,4.94,0,1-.07,1.24.35,1.46,1.18.76,3.06.76,3.06,4.11,2.82C166.79,130.46,165.33,123.91,163.89,117.36Zm-1.67,12.36c-.65-.05-1.31,0-1.94,0-2.67,0-2.7,0-2.13-2.61.46-2.12.94-4.21,1.42-6.3.1-.47.13-.91.86-.91s.72.44.81.92c.57,2.65,1.17,5.31,1.76,8C163.18,129.52,163,129.8,162.22,129.72Z"/><path class="cls-4" d="M252.88,86.37c-.15-.61-.39-.79-1-.79-1.64,0-3.31,0-4.94,0-.64,0-.88.2-1,.85-.35,1.61-.74,3.22-1.09,4.81-1.07,4.64-2.11,9.29-3.2,13.93-.15.69-.07,1,.74,1,2.46,0,2.46,0,3-2.31,0-.24.09-.48.14-.76.1-.76.43-1.06,1.28-1,1.52.06,3,.09,4.55,0,1-.07,1.48.2,1.76,1.3.68,2.9.76,2.88,3.77,2.73.08,0,.1,0,.28-.09C255.8,99.44,254.3,92.92,252.88,86.37Zm-1.72,12.36c-.62,0-1.23,0-1.85,0-2.8,0-2.8,0-2.17-2.75.5-2.13,1-4.22,1.46-6.33.09-.52.24-.76.8-.76s.72.33.81.78c.58,2.66,1.15,5.34,1.76,8C252.15,98.44,252,98.82,251.16,98.73Z"/><path class="cls-4" d="M167.7,91.33c-.43-3.81-2.48-5.66-6.42-5.72-2-.07-4.07,0-6.13,0-.89,0-1.18.2-1.14,1.14.05,3,0,6.07,0,9.11v7.93c0,2.41,0,2.37,2.35,2.41.94,0,1.09-.33,1.07-1.13-.08-1.39,0-2.79,0-4.14,0-.76.22-1,1-1,1.18,0,2.36,0,3.51,0a5.69,5.69,0,0,0,5.59-4.46A11.73,11.73,0,0,0,167.7,91.33Zm-3.48,2.31c-.39,2.09-1.32,2.89-3.46,2.89h-1c-2.33,0-2.33,0-2.33-2.28,0-1.42,0-2.88,0-4.31,0-.7.15-1,1-1a23.77,23.77,0,0,1,3.75.15,2.61,2.61,0,0,1,2.07,2.09A5.64,5.64,0,0,1,164.22,93.64Z"/><path class="cls-4" d="M182.41,102.29c-.73,2.75-3,4.18-6.55,4.15a38.34,38.34,0,0,1-5-.58c-.55-.09-.7-.3-.73-.88,0-2.21.15-2.42,2.33-2.21a34.33,34.33,0,0,0,3.91.24c1.73-.06,2.67-.72,2.89-2.06.27-1.55-.31-2.49-2.07-3.09-1.18-.43-2.42-.7-3.57-1.15-3.19-1.22-4.4-3.31-3.92-6.61.43-2.85,2.43-4.58,5.61-4.8a28.85,28.85,0,0,1,6.22.55c.55.09.67.36.67.88.06,2.4.06,2.37-2.31,2.21a24.19,24.19,0,0,0-4.43-.21c-1.69.24-2.45,1.06-2.45,2.49a2.12,2.12,0,0,0,1.51,2.06c1.28.48,2.61.88,3.92,1.36C182.2,96,183.44,98.37,182.41,102.29Z"/><path class="cls-4" d="M182.77,132.52c-.54,3.12-2.67,4.82-6.06,4.88a33.35,33.35,0,0,1-5.55-.55c-.67-.09-.94-.36-.79-1a9.47,9.47,0,0,0,.09-1.3c0-.85.37-1.06,1.25-.91a26.6,26.6,0,0,0,4.91.39c1.76-.09,2.61-.72,2.85-2.12s-.34-2.43-2-3c-1.25-.46-2.58-.73-3.82-1.21-3.1-1.22-4.25-3.37-3.73-6.74.42-2.66,2.45-4.36,5.51-4.61.46,0,.94,0,1.43,0a34.27,34.27,0,0,1,4.64.49c.73.09.94.36.91,1.09-.06,2.21,0,2.21-2.21,2.06a27.45,27.45,0,0,0-4.43-.21c-1.79.18-2.58,1-2.55,2.52a2.06,2.06,0,0,0,1.52,2c1.33.52,2.7.91,4.06,1.39C182.2,126.88,183.41,129,182.77,132.52Z"/><path class="cls-4" d="M197.15,134.34a5.54,5.54,0,0,1-4.7,3,23.89,23.89,0,0,1-6.58-.55c-.46-.09-.61-.33-.64-.82-.06-2.15.18-2.42,2.3-2.24a30.12,30.12,0,0,0,4,.24c1.73-.12,2.6-.79,2.82-2.15.21-1.52-.37-2.43-2-3-1.28-.46-2.58-.76-3.83-1.24-3.06-1.22-4.24-3.37-3.73-6.59.46-2.78,2.46-4.51,5.55-4.73.49,0,1,0,1.43,0a36,36,0,0,1,4.79.52c.55.09.79.3.73.85s-.06.85-.06,1.3c0,.91-.28,1.25-1.31,1.09a23.77,23.77,0,0,0-5.06-.36c-1.91.15-2.79,1-2.73,2.61a2.12,2.12,0,0,0,1.58,2c1.27.52,2.64.88,3.94,1.36C197.51,127.06,198.94,130.61,197.15,134.34Z"/><path class="cls-4" d="M308,106.17a20,20,0,0,1-4,.24c-3.24-.15-5.15-1.58-5.85-4.7A25.58,25.58,0,0,1,298.15,90c.76-3,2.55-4.39,5.64-4.67a22.46,22.46,0,0,1,5.82.61c.67.12.7.49.67,1.09-.15,2.13-.12,2.06-2.18,2a19.66,19.66,0,0,0-3.76-.15,3.25,3.25,0,0,0-3,2.76,18.48,18.48,0,0,0-.31,4.58,16.69,16.69,0,0,0,.28,3.85c.51,2,1.45,2.85,3.51,3a21.61,21.61,0,0,0,4.4-.36c.73-.12,1,0,1,.76C310.37,105.8,310.4,105.8,308,106.17Z"/><path class="cls-4" d="M211,106.14a16.61,16.61,0,0,1-3.21.3c-4.12,0-6.28-1.91-6.82-6a24.41,24.41,0,0,1-.28-4.46,21.19,21.19,0,0,1,.52-5.76c.79-3.22,2.67-4.76,6-5a24.68,24.68,0,0,1,5.16.52c.91.12,1.21.49,1.15,1.43-.15,1.91-.09,1.88-1.91,1.75a19.27,19.27,0,0,0-4.15-.18,3.06,3.06,0,0,0-2.82,2.49,20.46,20.46,0,0,0-.1,8.88c.4,1.88,1.4,2.64,3.4,2.79a24.34,24.34,0,0,0,4.67-.39c.61-.09.88,0,.85.7C213.28,106.29,214.16,105.53,211,106.14Z"/><path class="cls-4" d="M230.77,134.4c.16,2.39.16,2.39-2.27,2.73a22.42,22.42,0,0,1-4,.27,5.71,5.71,0,0,1-5.86-4.58,19.58,19.58,0,0,1-.54-5.91,20.87,20.87,0,0,1,.54-6,5.79,5.79,0,0,1,5.8-4.67,23.36,23.36,0,0,1,5.42.55c.79.12,1.07.49,1,1.3-.16,1.94-.13,1.94-2,1.82a31.57,31.57,0,0,0-3.36-.21c-2.12,0-3.31.94-3.67,3a23.5,23.5,0,0,0,0,8.28c.33,2,1.55,2.91,3.67,3a23.89,23.89,0,0,0,4.39-.39c.61-.09.94,0,.88.7Z"/><path class="cls-4" d="M196.18,91.52a18.2,18.2,0,0,0-3,12.22v.12c0,2.52-.24,2.67-2.85,2.31-.66-.12-.54-.55-.54-.94,0-2.19-.06-4.34,0-6.52a5.53,5.53,0,0,0-.61-2.61c-1.76-3.37-3.46-6.79-5.18-10.19,0,0,0-.09,0-.3h3.15c.64,0,.7.54.91.94,1.12,2.18,2.21,4.36,3.43,6.82,1.12-2.3,2.18-4.34,3.12-6.4a1.9,1.9,0,0,1,2.24-1.39,18.68,18.68,0,0,0,2.25,0C198.12,87.67,197.27,89.67,196.18,91.52Z"/><path class="cls-4" d="M270.28,117.87c-.09,2.12,0,2.12-2.15,2.12-3.27,0-3.27,0-3.27,3.28v5.34c0,2.51,0,5,0,7.55,0,.81-.21,1-1,1-2.4,0-2.4,0-2.4-2.37,0-4.49,0-9,0-13.52,0-1-.18-1.4-1.27-1.31s-2.25,0-3.37,0c-.54,0-.73-.15-.79-.72-.18-2.67-.21-2.67,2.49-2.67,3.49,0,6.94,0,10.43,0C270,116.57,270.32,116.84,270.28,117.87Z"/><path class="cls-4" d="M271.74,86.67c0,2.3,0,2.3-2.33,2.3-3,0-3,0-3,3v5.58c0,2.48,0,4.94,0,7.42,0,.88-.21,1.19-1.12,1.16-2.3-.06-2.3,0-2.3-2.34,0-4.58,0-9.19,0-13.79,0-.85-.25-1.13-1.09-1.07-1.13.06-2.25,0-3.4,0-.64,0-.88-.12-.91-.84,0-2.58-.09-2.58,2.49-2.58,3.51,0,7,0,10.55,0C271.53,85.55,271.74,85.85,271.74,86.67Z"/><path class="cls-4" d="M226.47,72.84c-.06,2.28,0,2.28-2.34,2.28-2.57,0-5.12,0-7.7,0-.73,0-.94-.22-.94-.94.06-3.13,0-6.25,0-9.37s0-6.1,0-9.13c0-.91.24-1.15,1.15-1.15,2.22.06,2.22,0,2.22,2.18,0,4.64,0,9.28,0,13.92,0,.85.18,1.12,1.06,1.09,1.79-.06,3.55,0,5.34,0C226.1,71.69,226.47,71.87,226.47,72.84Z"/><path class="cls-5" d="M237.32,118.84c0,5.73-.06,11.43,0,17.16,0,.91-.24,1.19-1.15,1.16-2.3,0-2.27,0-2.27-2.22,0-2.76,0-5.49,0-8.21h0c0-3,0-6,0-9,0-.91.24-1.18,1.15-1.18C237.29,116.63,237.32,116.57,237.32,118.84Z"/><path class="cls-4" d="M294.24,96c0,3,0,6.06,0,9.1,0,.87-.27,1.09-1.09,1.09-2.31,0-2.34,0-2.34-2.31,0-5.64,0-11.31,0-17,0-1.06.28-1.48,1.37-1.33a2.32,2.32,0,0,0,.91,0c.91-.12,1.18.24,1.15,1.15C294.21,89.82,294.24,92.89,294.24,96Z"/><path class="cls-4" d="M275.41,135.94c0,1-.24,1.25-1.24,1.22-2.1-.06-2.1,0-2.1-2.1,0-5.73,0-11.46,0-17.16,0-1,.22-1.48,1.28-1.3a4.18,4.18,0,0,0,1.06,0c.82-.12,1,.24,1,1,0,3.06,0,6.12,0,9.22S275.32,132.91,275.41,135.94Z"/><path class="cls-6" d="M238.81,104.92c0,.91-.15,1.28-1.18,1.25-2.16-.09-2.16,0-2.16-2.22V95.89c0-3,0-6.07,0-9.13,0-1,.31-1.21,1.25-1.18,2.09.06,2.09,0,2.09,2.15C238.78,93.46,238.75,99.19,238.81,104.92Z"/><path class="cls-1" d="M75.14,54.13l.5,0h.79C76,54.16,75.54,54.16,75.14,54.13Zm6.6,19.16a1.07,1.07,0,0,0-.31.24v0a1.12,1.12,0,0,1,.31,0C81.74,73.44,81.7,73.35,81.74,73.29Z"/><path class="cls-1" d="M61.76,73.29v.23a2.68,2.68,0,0,0,.3,0A1,1,0,0,0,61.76,73.29Z"/><path class="cls-1" d="M61.76,77.38v.26a.42.42,0,0,0,.3-.18A.79.79,0,0,1,61.76,77.38Z"/><path class="cls-1" d="M84.56,19.44a1.94,1.94,0,0,1-.76-.85A1.67,1.67,0,0,1,84.56,19.44Z"/><path class="cls-7" d="M84.56,19.44a1.94,1.94,0,0,1-.76-.85A.72.72,0,0,1,84.56,19.44Z"/><path class="cls-2" d="M236.13,87.46v18.07H236V87.41Z"/><path d="M24.56,185.42q-2.2,3-7.77,3c-3.72,0-6.31-1-7.8-3s-2.23-5.2-2.23-9.53.75-7.56,2.25-9.67S13.1,163,16.79,163s6.27,1.05,7.76,3.14,2.22,5.33,2.22,9.69S26,183.41,24.56,185.42Zm-12.44-2.59Q13.34,185,16.79,185t4.65-2.09q1.2-2.09,1.2-7c0-3.27-.41-5.64-1.24-7.13s-2.36-2.23-4.61-2.23-3.8.75-4.64,2.23-1.26,3.85-1.26,7.1S11.3,181.42,12.12,182.83Z"/><path d="M31.41,188V163.43h7l7.47,21.09h.54V163.43h4V188H43.55L35.9,166.92h-.5V188Z"/><path d="M69.85,188H56.06V163.43h4v21.06h9.81Z"/><path d="M73.12,188V163.43h4V188Z"/><path d="M82.79,188V163.43h7l7.47,21.09h.54V163.43h4V188H94.93l-7.65-21.12h-.51V188Z"/><path d="M107.43,188V163.43H123v3.49H111.42v7h9.38v3.45h-9.38v7.18H123V188Z"/><path d="M138.64,164.08a8.14,8.14,0,0,1,5.12-1.44,7.71,7.71,0,0,1,5,1.46,4.94,4.94,0,0,1,1.76,4,6.45,6.45,0,0,1-1.15,4,14.31,14.31,0,0,1-4.06,3.17l4.38,4.34a12.58,12.58,0,0,0,.5-2.35c.17-1.11.28-2,.33-2.78l3.77.07a27,27,0,0,1-1.76,7.36l4.27,3.92-2.22,2.55-4.06-3.52a8.12,8.12,0,0,1-3.17,2.59,10,10,0,0,1-4.34.93q-5.07,0-7.19-1.9a7.21,7.21,0,0,1-2.12-5.64,7.42,7.42,0,0,1,1.26-4.62,8.92,8.92,0,0,1,4.06-2.68,10.12,10.12,0,0,1-1.83-2.73,8,8,0,0,1-.43-2.87A4.68,4.68,0,0,1,138.64,164.08Zm4,20.88a8.12,8.12,0,0,0,3.16-.6,4.48,4.48,0,0,0,2.12-1.63l-6.79-6.79a5.64,5.64,0,0,0-2.61,1.76,4.65,4.65,0,0,0-.81,2.87C137.68,183.49,139.32,185,142.61,185Zm-1.87-16.17a5.15,5.15,0,0,0,1.61,3.48l.8.83a9.88,9.88,0,0,0,2.67-2,3.65,3.65,0,0,0,.77-2.41c0-1.82-1-2.73-2.92-2.73S140.74,166.9,140.74,168.79Z"/><path d="M165.74,167v-3.56h18V167h-6.94v21h-4V167Z"/><path d="M187,163.43h9.34q3.78,0,5.65,1.53t1.86,4.87a7.1,7.1,0,0,1-.7,3.45,5.32,5.32,0,0,1-2.21,2.08q3.53,1.37,3.52,5.72,0,7-7.83,7H187Zm9.13,3.45H191v7h5.28c2.35,0,3.52-1.2,3.52-3.62S198.58,166.88,196.14,166.88Zm.21,10.42H191v7.3h5.43a4.54,4.54,0,0,0,3-.83,3.53,3.53,0,0,0,1-2.84,3.2,3.2,0,0,0-1.15-2.82A4.89,4.89,0,0,0,196.35,177.3Z"/><path d="M209,188V163.43h4V188Z"/><path d="M232.46,188H218.67V163.43h4v21.06h9.81Z"/><path d="M235.73,188V163.43h4V188Z"/><path d="M252.62,166.52q-4.56,0-4.56,3.2a2.57,2.57,0,0,0,1.07,2.35,20.44,20.44,0,0,0,4.76,1.73,12.77,12.77,0,0,1,5.2,2.44,5.92,5.92,0,0,1,1.5,4.48c0,2.58-.73,4.52-2.21,5.8a8.83,8.83,0,0,1-6,1.92,35.66,35.66,0,0,1-6.76-.72l-1.29-.25.39-3.2a61.1,61.1,0,0,0,7.41.65c3,0,4.45-1.32,4.45-3.95a2.64,2.64,0,0,0-1-2.28,15.44,15.44,0,0,0-4.52-1.62,12.35,12.35,0,0,1-5.25-2.43q-1.72-1.54-1.72-4.88a6,6,0,0,1,2.17-5,9.52,9.52,0,0,1,6-1.71,39.72,39.72,0,0,1,6.54.65l1.26.22-.33,3.23C256.38,166.72,254,166.52,252.62,166.52Z"/><path d="M264.91,188V163.43h4V188Z"/><path d="M272.67,192.46l1.72-8.87h4.31l-2.87,8.87Z"/><path d="M301.34,178.63v-3.52h7v12.5a30.54,30.54,0,0,1-3.93.54c-2,.19-3.41.29-4.29.29q-5.61,0-7.73-3.09t-2.12-9.68q0-6.6,2.17-9.61c1.45-2,4-3,7.53-3a40,40,0,0,1,7.11.72l1.26.25-.14,3.16a60.66,60.66,0,0,0-7.8-.57c-2.3,0-3.87.64-4.72,1.94s-1.28,3.68-1.28,7.18.4,5.91,1.21,7.24,2.42,2,4.86,2a17.13,17.13,0,0,0,3.92-.33v-6Z"/><path d="M313.34,188V163.43h15.52v3.49H317.32v7h9.38v3.45h-9.38v7.18h11.54V188Z"/><path d="M349.68,185.42c-1.47,2-4.07,3-7.78,3s-6.31-1-7.8-3-2.22-5.2-2.22-9.53.74-7.56,2.24-9.67,4.09-3.16,7.78-3.16,6.27,1.05,7.76,3.14,2.23,5.33,2.23,9.69S351.15,183.41,349.68,185.42Zm-12.45-2.59q1.22,2.13,4.67,2.13t4.65-2.09c.8-1.39,1.21-3.72,1.21-7s-.42-5.64-1.24-7.13-2.37-2.23-4.62-2.23-3.8.75-4.63,2.23-1.26,3.85-1.26,7.1S336.41,181.42,337.23,182.83Z"/><path d="M360.51,179.28V188h-4V163.43h9.34q8.34,0,8.34,7.84,0,5.23-4,7.11l4.06,9.66h-4.39l-3.56-8.76Zm9.59-8c0-2.94-1.41-4.42-4.24-4.42h-5.35v9h5.43a3.83,3.83,0,0,0,3.16-1.24A5.07,5.07,0,0,0,370.1,171.3Z"/><path d="M388.75,178.63v-3.52h7v12.5a30.79,30.79,0,0,1-3.94.54c-2,.19-3.41.29-4.29.29-3.74,0-6.31-1-7.73-3.09s-2.12-5.29-2.12-9.68.73-7.6,2.18-9.61,4-3,7.52-3a40.17,40.17,0,0,1,7.12.72l1.26.25-.15,3.16a60.51,60.51,0,0,0-7.79-.57c-2.3,0-3.88.64-4.73,1.94s-1.27,3.68-1.27,7.18.4,5.91,1.2,7.24,2.42,2,4.87,2a17,17,0,0,0,3.91-.33v-6Z"/><path d="M400.75,188V163.43h4V188Z"/><path d="M408.29,188l6.08-24.61h7.94l6.1,24.61h-4l-1.33-5.28h-9.45L412.28,188Zm9.17-21.26-3.06,12.46h7.87l-3-12.46Z"/><path d="M451.55,164.33V188h-4V168.86L442,172.45l-1.84-3,7.73-5.14Z"/><path d="M469.23,188v-4.23H458.56v-3.06l6.25-16.42h4.42l-6.61,16h6.61v-7h4v7h2.59v3.49h-2.59V188Z"/><path d="M487.34,180.14v-3.56h10.74v3.56Z"/><path d="M522.73,164.33V188h-4V168.86l-5.57,3.59-1.83-3,7.72-5.14Z"/><path d="M545.9,167.92a45.33,45.33,0,0,0-6.32-.5,5.09,5.09,0,0,0-4.24,1.76,7.83,7.83,0,0,0-1.44,4.92l.83-.28a14.8,14.8,0,0,1,4.34-.83q8.05,0,8,7.55a7.52,7.52,0,0,1-2.23,5.89q-2.22,2-6.5,2a7.31,7.31,0,0,1-6.45-3.18q-2.18-3.18-2.17-9.07,0-12.25,9.63-12.25a29,29,0,0,1,5.82.64l1,.22Zm-11.35,9.38-.69.25q.07,7.41,4.75,7.41a4,4,0,0,0,4.38-4.35,4,4,0,0,0-1.11-3.07,4.41,4.41,0,0,0-3.11-1A12.78,12.78,0,0,0,534.55,177.3Z"/><path d="M575.88,185.42q-2.21,3-7.78,3t-7.79-3q-2.23-3-2.23-9.53t2.24-9.67q2.25-3.16,7.78-3.16t7.76,3.14q2.24,3.15,2.23,9.69C578.09,180.22,577.35,183.41,575.88,185.42Zm-12.45-2.59c.82,1.42,2.37,2.13,4.67,2.13s3.85-.7,4.66-2.09,1.2-3.72,1.2-7-.41-5.64-1.24-7.13-2.37-2.23-4.62-2.23-3.79.75-4.63,2.23-1.26,3.85-1.26,7.1S562.62,181.42,563.43,182.83Z"/><path d="M591,188.44q-5.38,0-7.31-3t-1.92-9.81c0-4.55.64-7.79,1.94-9.72S587.42,163,591,163a31.07,31.07,0,0,1,7,.9l-.14,3.23a37.22,37.22,0,0,0-6.47-.57q-3.24,0-4.38,1.92t-1.15,7.22q0,5.3,1.11,7.22t4.35,1.92a40.63,40.63,0,0,0,6.54-.54l.11,3.31A33.47,33.47,0,0,1,591,188.44Z"/><path d="M599.9,167v-3.56h18V167h-6.93v21h-4V167Z"/><path d="M637.46,185.42q-2.21,3-7.78,3t-7.79-3q-2.24-3-2.23-9.53t2.24-9.67q2.25-3.16,7.78-3.16t7.76,3.14q2.23,3.15,2.23,9.69C639.67,180.22,638.94,183.41,637.46,185.42ZM625,182.83c.82,1.42,2.37,2.13,4.67,2.13s3.85-.7,4.66-2.09,1.2-3.72,1.2-7-.41-5.64-1.24-7.13-2.37-2.23-4.62-2.23-3.79.75-4.63,2.23-1.26,3.85-1.26,7.1S624.2,181.42,625,182.83Z"/><path d="M644.31,163.43h9.34q3.76,0,5.64,1.53c1.24,1,1.87,2.64,1.87,4.87a7.22,7.22,0,0,1-.7,3.45,5.44,5.44,0,0,1-2.21,2.08c2.34.91,3.52,2.82,3.52,5.72q0,7-7.83,7h-9.63Zm9.12,3.45h-5.14v7h5.29c2.34,0,3.52-1.2,3.52-3.62S655.88,166.88,653.43,166.88Zm.22,10.42h-5.36v7.3h5.43a4.52,4.52,0,0,0,3-.83,3.53,3.53,0,0,0,1-2.84,3.2,3.2,0,0,0-1.15-2.82A4.86,4.86,0,0,0,653.65,177.3Z"/><path d="M666.29,188V163.43h15.53v3.49H670.28v7h9.38v3.45h-9.38v7.18h11.54V188Z"/><path d="M690.15,179.28V188h-4V163.43h9.34q8.34,0,8.34,7.84,0,5.23-4,7.11l4.06,9.66h-4.39l-3.55-8.76Zm9.59-8c0-2.94-1.41-4.42-4.24-4.42h-5.35v9h5.43a3.83,3.83,0,0,0,3.16-1.24A5.07,5.07,0,0,0,699.74,171.3Z"/><path d="M731.11,188H715.84v-3.41l5.86-6a38.34,38.34,0,0,0,3.73-4.28,5.8,5.8,0,0,0,1.08-3.4,3.13,3.13,0,0,0-1-2.64,5.8,5.8,0,0,0-3.42-.79,26.7,26.7,0,0,0-4.92.51l-.9.14L716,165a24.92,24.92,0,0,1,7.22-1q7.44,0,7.44,6.61a8.68,8.68,0,0,1-1.13,4.49,22.89,22.89,0,0,1-4,4.6l-5.07,4.92h10.71Z"/><path d="M736.88,166.83c1.49-1.93,3.74-2.89,6.73-2.89s5.23,1,6.72,2.87,2.23,5.08,2.23,9.5-.75,7.55-2.25,9.38-3.73,2.75-6.72,2.75-5.22-.91-6.71-2.73-2.25-4.94-2.25-9.36S735.38,168.76,736.88,166.83Zm10.43,2.55a3.92,3.92,0,0,0-3.7-2,4,4,0,0,0-3.72,2q-1.12,2-1.13,6.88t1.17,6.81a4,4,0,0,0,3.7,1.89,3.93,3.93,0,0,0,3.66-1.89q1.14-1.89,1.14-6.81C748.43,173,748.05,170.69,747.31,169.38Z"/><path d="M771.35,188H756.08v-3.41l5.86-6a38.34,38.34,0,0,0,3.73-4.28,5.8,5.8,0,0,0,1.08-3.4,3.13,3.13,0,0,0-1-2.64,5.8,5.8,0,0,0-3.42-.79,26.7,26.7,0,0,0-4.92.51l-.9.14-.25-3.16a24.92,24.92,0,0,1,7.22-1q7.44,0,7.44,6.61a8.68,8.68,0,0,1-1.13,4.49,22.57,22.57,0,0,1-4,4.6l-5.07,4.92h10.71Z"/><path d="M791.47,188H776.2v-3.41l5.86-6a38.34,38.34,0,0,0,3.73-4.28,5.8,5.8,0,0,0,1.08-3.4,3.13,3.13,0,0,0-1-2.64,5.78,5.78,0,0,0-3.41-.79,26.72,26.72,0,0,0-4.93.51l-.9.14-.25-3.16a24.92,24.92,0,0,1,7.22-1q7.44,0,7.44,6.61a8.68,8.68,0,0,1-1.13,4.49,22.57,22.57,0,0,1-4,4.6l-5.07,4.92h10.71Z"/><path class="cls-2" d="M375.91,76.42l-7.13-29.15h5.66l2.77,13.24c.74,3.54,1.43,7.26,1.9,10.16h.09c.48-3.07,1.3-6.53,2.12-10.21l3.16-13.19h5.58L393,60.68c.74,3.46,1.35,6.7,1.78,9.86h.08c.52-3.2,1.21-6.53,2-10.08l3-13.19h5.41l-7.83,29.15H391.7l-3-13.71a85.48,85.48,0,0,1-1.6-9.25H387c-.52,3.11-1.09,5.92-1.95,9.25l-3.37,13.71Z"/><path class="cls-2" d="M408.77,47.66a46.77,46.77,0,0,1,8.13-.6c3.89,0,6.75.82,8.61,2.37a8.24,8.24,0,0,1,2.85,6.45,8.86,8.86,0,0,1-2.51,6.62c-2.12,2.12-5.45,3.11-9.21,3.11a15.15,15.15,0,0,1-2.6-.17v11h-5.27ZM414,61.24a10.92,10.92,0,0,0,2.6.22c4,0,6.4-2,6.4-5.37,0-3.24-2.25-5-5.92-5a14.84,14.84,0,0,0-3.08.26Z"/><path class="cls-2" d="M435.7,68.16l-2.51,8.26H427.7L437,47.27h6.79l9.47,29.15h-5.7L445,68.16Zm8.35-4L441.76,57c-.56-1.77-1-3.76-1.47-5.45h-.09c-.43,1.69-.86,3.72-1.38,5.45l-2.25,7.18Z"/><path class="cls-2" d="M479.11,51.73H470.8V47.27h22v4.46h-8.39V76.42h-5.32Z"/><path class="cls-2" d="M501.54,47.27V59h12.33V47.27h5.32V76.42h-5.32V63.58H501.54V76.42h-5.32V47.27Z"/><path class="cls-2" d="M541.58,63.49h-11v8.56h12.28v4.37h-17.6V47.27h17v4.37H530.6v7.52h11Z"/><path class="cls-2" d="M572.15,64.53c-.17-3.76-.39-8.3-.35-12.24h-.13c-.95,3.55-2.16,7.48-3.46,11.16L564,76.08h-4.1L556,63.62c-1.12-3.72-2.16-7.7-2.94-11.33H553c-.13,3.8-.31,8.43-.52,12.41l-.65,11.72h-5l1.94-29.15h7L559.56,59c1,3.42,2,6.88,2.69,10.12h.12c.78-3.15,1.78-6.74,2.9-10.16l4-11.68h6.92l1.69,29.15h-5.19Z"/><path class="cls-2" d="M588.87,68.16l-2.51,8.26h-5.49l9.34-29.15H597l9.47,29.15h-5.7l-2.64-8.26Zm8.35-4L594.93,57c-.56-1.77-1-3.76-1.47-5.45h-.09c-.43,1.69-.86,3.72-1.38,5.45l-2.25,7.18Z"/><path class="cls-2" d="M612.61,51.73H604.3V47.27h22v4.46h-8.39V76.42h-5.32Z"/><path class="cls-2" d="M635.05,47.27V76.42h-5.32V47.27Z"/><path class="cls-2" d="M662,75.56a18.45,18.45,0,0,1-7.53,1.29c-9.25,0-14.88-5.79-14.88-14.66,0-9.6,6.66-15.39,15.57-15.39a16.82,16.82,0,0,1,7.1,1.29l-1.17,4.24a14.3,14.3,0,0,0-5.71-1.12c-5.92,0-10.21,3.72-10.21,10.72,0,6.4,3.77,10.51,10.17,10.51a14.84,14.84,0,0,0,5.79-1.08Z"/><path class="cls-8" d="M402.39,135.34c-1.71.85-5.56,1.77-10.57,1.77-14.23,0-21.55-8.86-21.55-20.58,0-14,10-21.86,22.47-21.86a24.34,24.34,0,0,1,10.13,1.83L401,103.89a20.16,20.16,0,0,0-7.82-1.53c-7.38,0-13.12,4.46-13.12,13.62,0,8.24,4.88,13.43,13.19,13.43a23.33,23.33,0,0,0,7.75-1.34Z"/><path class="cls-8" d="M444.35,115.49c0,13.5-8.19,21.68-20.21,21.68-12.22,0-19.36-9.22-19.36-20.95,0-12.33,7.88-21.55,20-21.55C437.45,94.67,444.35,104.13,444.35,115.49Zm-29.74.55c0,8.06,3.79,13.74,10,13.74s9.9-6,9.9-14c0-7.39-3.54-13.74-10-13.74S414.61,108,414.61,116Z"/><path class="cls-8" d="M450.47,136.5V95.34h10.87l8.55,15.08a118.27,118.27,0,0,1,6.71,14.11h.19a153,153,0,0,1-.79-17.16v-12h8.54V136.5h-9.76L466,120.62a153.06,153.06,0,0,1-7.14-14.53l-.19.06c.25,5.43.37,11.23.37,17.95v12.4Z"/><path class="cls-8" d="M527,134.61a46.36,46.36,0,0,1-13.74,2.31c-7.51,0-12.95-1.89-16.73-5.55s-5.86-8.92-5.8-15c.06-13.68,10-21.5,23.51-21.5a28.22,28.22,0,0,1,11.41,2l-1.95,7.45a22.77,22.77,0,0,0-9.59-1.77c-7.75,0-13.61,4.39-13.61,13.31,0,8.49,5.31,13.49,12.94,13.49a12.37,12.37,0,0,0,4.58-.61v-8.61h-6.35v-7.26H527Z"/><path class="cls-8" d="M534.28,95.89a81.78,81.78,0,0,1,12.4-.85c6.11,0,10.38.91,13.31,3.23a10.46,10.46,0,0,1,3.79,8.61A10.94,10.94,0,0,1,556.51,117v.18c2.87,1.16,4.46,3.91,5.49,7.69,1.29,4.64,2.57,10,3.36,11.61h-9.52c-.67-1.16-1.65-4.52-2.87-9.59s-2.87-6.53-6.66-6.59H543.5V136.5h-9.22Zm9.22,17.71h3.67c4.64,0,7.38-2.32,7.38-5.93,0-3.78-2.56-5.67-6.83-5.74a23.35,23.35,0,0,0-4.22.31Z"/><path class="cls-8" d="M595,119.09H579.85v9.77h16.91v7.64H570.51V95.34h25.4V103H579.85v8.55H595Z"/><path class="cls-8" d="M603.43,126.91a23.8,23.8,0,0,0,10.32,2.56c4.28,0,6.53-1.77,6.53-4.45s-1.95-4-6.9-5.8c-6.83-2.39-11.29-6.17-11.29-12.16,0-7,5.86-12.39,15.57-12.39a25.17,25.17,0,0,1,10.5,2.08l-2.07,7.51a19.52,19.52,0,0,0-8.62-2c-4,0-6,1.83-6,4,0,2.63,2.32,3.79,7.63,5.8,7.27,2.69,10.69,6.47,10.69,12.28,0,6.9-5.31,12.76-16.61,12.76a27,27,0,0,1-11.66-2.5Z"/><path class="cls-8" d="M636.42,126.91a23.76,23.76,0,0,0,10.32,2.56c4.27,0,6.53-1.77,6.53-4.45s-1.95-4-6.9-5.8c-6.84-2.39-11.3-6.17-11.3-12.16,0-7,5.87-12.39,15.58-12.39a25.17,25.17,0,0,1,10.5,2.08l-2.08,7.51a19.47,19.47,0,0,0-8.61-2c-4,0-6,1.83-6,4,0,2.63,2.32,3.79,7.63,5.8,7.27,2.69,10.69,6.47,10.69,12.28,0,6.9-5.32,12.76-16.61,12.76a27,27,0,0,1-11.67-2.5Z"/><rect class="cls-2" x="682.04" y="91.87" width="111.87" height="46.07" rx="3.34"/><path class="cls-9" d="M705.46,106.57v6.33h6.68v-6.33H715v15.81h-2.89v-7h-6.68v7h-2.89V106.57Z"/><path class="cls-9" d="M720.11,111l2.06,6.12c.24.71.47,1.58.64,2.23h.07c.19-.65.4-1.5.61-2.25l1.78-6.1h3.1l-2.87,7.79c-1.57,4.27-2.62,6.17-4,7.34a5.78,5.78,0,0,1-3,1.48l-.66-2.44a5.21,5.21,0,0,0,3.26-2.6.92.92,0,0,0,0-1.08L716.94,111Z"/><path class="cls-9" d="M729.93,122.38c.05-.78.1-2,.1-3.22V105.72h2.88v6.8H733a4.14,4.14,0,0,1,3.66-1.83c2.79,0,4.78,2.33,4.76,5.8,0,4.1-2.6,6.14-5.18,6.14a3.94,3.94,0,0,1-3.62-2h0l-.14,1.72Zm3-4.72a3.73,3.73,0,0,0,.07.68,2.67,2.67,0,0,0,2.56,2c1.81,0,2.91-1.46,2.91-3.76,0-2-1-3.65-2.89-3.65a2.69,2.69,0,0,0-2.55,2.11,3.24,3.24,0,0,0-.1.75Z"/><path class="cls-9" d="M743.74,114.63c0-1.54,0-2.65-.09-3.68h2.51l.09,2.18h.1a3.4,3.4,0,0,1,3.12-2.44,3.55,3.55,0,0,1,.68.07v2.72a4.71,4.71,0,0,0-.85-.09,2.55,2.55,0,0,0-2.58,2.18,5.82,5.82,0,0,0-.09.89v5.92h-2.89Z"/><path class="cls-9" d="M755.16,107.76a1.62,1.62,0,1,1-1.62-1.57A1.53,1.53,0,0,1,755.16,107.76Zm-3.07,14.62V111H755v11.43Z"/><path class="cls-9" d="M768.62,105.72v13.44c0,1.17,0,2.44.1,3.22h-2.58l-.12-1.81h0a4.1,4.1,0,0,1-3.73,2.06c-2.72,0-4.88-2.32-4.88-5.84,0-3.82,2.37-6.1,5.12-6.1a3.65,3.65,0,0,1,3.21,1.5h0v-6.47Zm-2.88,10a4.87,4.87,0,0,0-.07-.75,2.54,2.54,0,0,0-2.49-2c-1.85,0-2.89,1.64-2.89,3.78s1,3.61,2.87,3.61a2.54,2.54,0,0,0,2.48-2,3.22,3.22,0,0,0,.1-.84Z"/></svg>