<svg id="Layer_1" data-name="Layer 1" xmlns="http://www.w3.org/2000/svg" viewBox="0 0 359.68 80"><defs><style>.cls-1{fill:#fff;}.cls-2{fill:#fefefe;}.cls-3{fill:#bc1a21;}.cls-4{fill:#60799c;}.cls-5{fill:#bd1a21;}.cls-6{fill:#bd1b21;}.cls-7{fill:#bd1b20;}.cls-8{fill:#bf1c23;}.cls-9{fill:#bd1c22;}.cls-10{fill:#be1b23;}.cls-11{fill:#fdfdfd;}.cls-12{fill:#6f82a3;}.cls-13{fill:#bb1d1a;}.cls-14{fill:#bf1a1c;}.cls-15{fill:#363537;}.cls-16{fill:#be1b1f;}.cls-17{fill:#eafff4;}</style></defs><rect class="cls-1" width="359.68" height="80"/><path class="cls-2" d="M46.51,30.15l.28,0h.42C47,30.17,46.74,30.17,46.51,30.15Zm0,0,.28,0h.42C47,30.17,46.74,30.17,46.51,30.15Zm0,0,.28,0h.42C47,30.17,46.74,30.17,46.51,30.15Zm0,0,.28,0h.42C47,30.17,46.74,30.17,46.51,30.15Zm0,0,.28,0h.42C47,30.17,46.74,30.17,46.51,30.15Zm0,0,.28,0h.42C47,30.17,46.74,30.17,46.51,30.15Zm33.71.15c-3.06,0-6.14,0-9.23,0-.36,0-.45.13-.49.48a21.53,21.53,0,0,1-.32,2.65Q66.76,49.12,51.36,53.77c-1.66.49-1.59.87-1.44-1.29.11,0,.23,0,.34,0a23.82,23.82,0,0,0,11.88-6.76,23.39,23.39,0,0,0,6.61-20,23.1,23.1,0,0,0-8.33-15.11A23.65,23.65,0,0,0,41.43,5a23.43,23.43,0,0,0-16.18,9.37A23.42,23.42,0,0,0,20.66,33a23.43,23.43,0,0,0,8.39,14.4,23.08,23.08,0,0,0,10.39,5.05,6.56,6.56,0,0,0,0,1c.1.62-.18.65-.71.54a26,26,0,0,1-20-23c0-.66-.28-.76-.85-.74-2.84,0-5.67,0-8.53,0-.67,0-.86.12-.81.82a34.8,34.8,0,0,0,3.91,14.05,35.57,35.57,0,0,0,26.14,19c.64.12.82.32.82,1-.05,3.08,0,6.15,0,9.23,0,.54.15.64.66.64q4.55,0,9.09,0c.54,0,.66-.15.66-.66,0-2.91,0-5.82,0-8.73,0-1.27,0-1.23,1.23-1.49C63.55,61.59,72.5,54.56,77.8,43a33.42,33.42,0,0,0,2.85-12C80.66,30.71,80.88,30.28,80.22,30.3ZM50.05,47.92l-.17.15c0-1.76,0-3.35,0-4.94a.44.44,0,0,1,.15-.36.85.85,0,0,1,.35-.1c1.13-.18,2.26-.39,3.37-.68.13,0,.3-.12.38,0s0,.23-.05.33A16.7,16.7,0,0,1,50.05,47.92Zm8.39-1.72A19.19,19.19,0,0,1,51,50a20.51,20.51,0,0,0,3.07-3.46,23.76,23.76,0,0,0,2.62-5,1.09,1.09,0,0,1,.64-.67A20.82,20.82,0,0,0,66,35,21.5,21.5,0,0,1,58.44,46.2Zm-.7-7.69c.24-1.18.45-2.21.65-3.24a34.18,34.18,0,0,0,.54-4.82c0-.28,0-.51.38-.49H66C64.93,34.45,61.57,36.61,57.74,38.51Zm0-19.22C61.32,21,64.49,23,65.78,27c.28.85.25.85-.65.85H59.49c-.28,0-.56.05-.57-.4a37.25,37.25,0,0,0-1.12-7.78C57.78,19.6,57.77,19.52,57.72,19.29Zm-.31-8.46c4.18,2.92,7.6,7.7,8.6,12.08A19.21,19.21,0,0,0,63,20a22.77,22.77,0,0,0-5.54-3,1.06,1.06,0,0,1-.72-.59A21.25,21.25,0,0,0,51,7.86,18.4,18.4,0,0,1,57.41,10.83ZM45.69,8.24c0-.43.08-.52.51-.43a9.26,9.26,0,0,1,4.24,2.4l.76.73a1.07,1.07,0,0,0,.41.46,22.22,22.22,0,0,1,2.32,3.76c.1.19.35.42.18.62s-.44,0-.65-.07a36.25,36.25,0,0,0-7.18-1c-.43,0-.59-.13-.59-.61C45.72,12.17,45.71,10.21,45.69,8.24Zm0,9.1c0-.36.06-.53.51-.51a33.13,33.13,0,0,1,8.63,1.41.76.76,0,0,1,.56.55,36,36,0,0,1,1.44,8.49c0,.48-.13.59-.59.59-1.65,0-3.32,0-5,0s-3.34,0-5,0c-.42,0-.57-.09-.57-.54Q45.72,22.32,45.69,17.34ZM43.57,7.78v6.61c0,.23-.09.32-.32.34a37.63,37.63,0,0,0-8,1.13.33.33,0,0,1-.14-.06C36.4,12.29,39.94,8.13,43.57,7.78Zm-5.13,0A19.22,19.22,0,0,0,33,15.45a3.15,3.15,0,0,1-1.92,1.89,19,19,0,0,0-7.29,5c-.1.13-.18.28-.4.25A21.78,21.78,0,0,1,38.44,7.78ZM31.58,19.3c-.35,1.54-.67,2.95-.87,4.38-.17,1.18-.25,2.38-.33,3.56,0,.47-.15.63-.64.63q-2.93,0-5.85,0c-.54,0-.56-.21-.46-.62a9.19,9.19,0,0,1,2-3.67A18.07,18.07,0,0,1,31.58,19.3ZM24.76,30h5.06c.32,0,.53,0,.54.41a37.67,37.67,0,0,0,1.25,8.16c-3.41-1.64-6.38-3.51-7.85-7C23.1,30,23.14,30,24.76,30ZM38.12,50A22,22,0,0,1,23.33,35c.76.77,1.48,1.56,2.31,2.25a22.46,22.46,0,0,0,6.15,3.5,1.45,1.45,0,0,1,.89.89,20.07,20.07,0,0,0,5.44,8,1.94,1.94,0,0,1,.1.17A.86.86,0,0,0,38.12,50Zm1.32-1.9c0-.05-.11-.1-.16-.15A16.89,16.89,0,0,1,35,41.89c1.47.31,2.86.64,4.29.83v.13a.18.18,0,0,0,.16-.09Zm.79-17.8c-.59,0-.79.1-.77.75,0,2.89,0,5.79,0,8.69,0,.31,0,.61,0,.92a.33.33,0,0,0-.16-.15v.12a40.54,40.54,0,0,1-4.77-1.05A.84.84,0,0,1,33.9,39a35.36,35.36,0,0,1-1.44-8.42c0-.43,0-.61.54-.61,3.35,0,6.69,0,10,0,.19,0,.46-.1.54.13a.76.76,0,0,1,0,.16A25.07,25.07,0,0,1,40.23,30.3Zm8.75,0a20.09,20.09,0,0,1-3.29,0,.29.29,0,0,1,0-.16c.05-.15.23-.13.4-.13,3.42,0,6.85,0,10.27,0,.39,0,.46.16.44.51A35.91,35.91,0,0,1,55.39,39a.8.8,0,0,1-.62.58,34.17,34.17,0,0,1-4.69,1.05s0-.09,0-.12a.65.65,0,0,0-.16.13c-.13-3.16-.07-6.31-.05-9.47C49.88,30.43,49.69,30.27,49,30.28Zm-2.19-.11h.42c-.23,0-.47,0-.7,0Zm-.28,0,.28,0h.42C47,30.17,46.74,30.17,46.51,30.15Zm0,0,.28,0h.42C47,30.17,46.74,30.17,46.51,30.15Zm0,0,.28,0h.42C47,30.17,46.74,30.17,46.51,30.15Zm0,0,.28,0h.42C47,30.17,46.74,30.17,46.51,30.15Zm0,0,.28,0h.42C47,30.17,46.74,30.17,46.51,30.15Zm0,0,.28,0h.42C47,30.17,46.74,30.17,46.51,30.15Z"/><path class="cls-2" d="M94.48,64.33c-.08-.37-.26-.41-.59-.41-.83,0-1.69,0-2.52,0-.45,0-.58.18-.66.54-.23,1-.47,2.1-.7,3.15-.53,2.28-1,4.57-1.56,6.85-.1.42-.07.6.46.59,1.24,0,1.24,0,1.52-1.18a5.29,5.29,0,0,0,.13-.54.5.5,0,0,1,.61-.49c.9,0,1.79,0,2.67,0,.53,0,.67.19.79.63C95,75.11,95,75.11,96.86,75,96.05,71.41,95.27,67.87,94.48,64.33ZM93.58,71c-.34,0-.71,0-1,0-1.44,0-1.46,0-1.15-1.41.25-1.15.51-2.28.77-3.41,0-.25.07-.49.46-.49s.4.24.45.5c.31,1.43.62,2.87,1,4.3C94.1,70.9,94,71.05,93.58,71Z"/><path class="cls-2" d="M96.55,50.26c-.23-2.06-1.35-3.06-3.48-3.09-1.1,0-2.19,0-3.31,0-.47,0-.64.11-.62.62,0,1.64,0,3.28,0,4.92V57c0,1.3,0,1.28,1.28,1.3.5,0,.59-.18.57-.61,0-.75,0-1.51,0-2.24,0-.41.12-.55.51-.53.64,0,1.28,0,1.9,0a3.07,3.07,0,0,0,3-2.41A6.47,6.47,0,0,0,96.55,50.26Zm-1.89,1.25a1.61,1.61,0,0,1-1.87,1.56h-.55c-1.27,0-1.27,0-1.27-1.23,0-.77,0-1.56,0-2.33,0-.38.09-.56.51-.53a13.86,13.86,0,0,1,2,.09,1.41,1.41,0,0,1,1.12,1.13A2.89,2.89,0,0,1,94.66,51.51Z"/><path class="cls-2" d="M96.64,41.4c-.45-.41-.34-1.28-.47-1.94q-.51-2.73-1-5.46c0-.08,0-.19-.21-.21-.35,1.89-.69,3.79-1,5.67-.09.54-.21,1.07-.27,1.61-.05.31-.15.44-.48.44-.69,0-1.36,0-2,0a.4.4,0,0,1-.46-.39Q89.58,36,88.48,30.81c-.06-.3,0-.44.31-.41h.07c1.44-.07,1.43-.07,1.7,1.34.45,2.43.91,4.84,1.36,7.26,0,.18,0,.43.3.56a14.17,14.17,0,0,0,.52-2.44c.41-2,.81-4,1.15-6.08.08-.48.26-.61.72-.61,1.46,0,1.46,0,1.72,1.36.46,2.44.94,4.89,1.41,7.31,0,.17,0,.35.28.46a17,17,0,0,0,.53-2.49c.39-2,.77-4,1.11-6.08.08-.48.25-.61.72-.61,1.3,0,1.3,0,1,1.26-.62,3-1.26,6-1.86,9.08-.12.63-.33.87-1,.79S97.09,41.76,96.64,41.4Z"/><path class="cls-2" d="M97.61,49.59a3,3,0,0,1,3-2.59,15.17,15.17,0,0,1,3.36.3c.3.05.36.19.36.47,0,1.3,0,1.28-1.24,1.2a13.63,13.63,0,0,0-2.39-.12c-.92.13-1.33.58-1.33,1.35a1.14,1.14,0,0,0,.82,1.11c.69.26,1.41.48,2.11.74,2,.74,2.72,2,2.17,4.13-.4,1.49-1.61,2.26-3.54,2.25a21,21,0,0,1-2.73-.32c-.29,0-.37-.16-.39-.47,0-1.2.08-1.31,1.26-1.2a16.76,16.76,0,0,0,2.12.13c.93,0,1.44-.39,1.55-1.11s-.16-1.35-1.11-1.67c-.64-.23-1.31-.38-1.93-.63A2.94,2.94,0,0,1,97.61,49.59Z"/><path class="cls-2" d="M104.69,72.52a3,3,0,0,1-3.28,2.64,17.84,17.84,0,0,1-3-.3c-.36,0-.5-.19-.42-.55A5.65,5.65,0,0,0,98,73.6c0-.46.19-.57.67-.49a13.74,13.74,0,0,0,2.65.21c1,0,1.41-.39,1.55-1.14s-.18-1.32-1.09-1.64c-.67-.25-1.39-.4-2.06-.66a3.16,3.16,0,0,1,1-6.13h.77A20.76,20.76,0,0,1,104,64c.4,0,.51.2.5.59,0,1.2,0,1.2-1.2,1.12a14.73,14.73,0,0,0-2.39-.12c-1,.1-1.4.56-1.38,1.36a1.11,1.11,0,0,0,.82,1.1c.72.28,1.46.49,2.19.76A2.89,2.89,0,0,1,104.69,72.52Z"/><path class="cls-2" d="M110.85,33a3.29,3.29,0,0,0-3.06-2.66c-2.69-.29-4.44.69-4.9,3.48a20.79,20.79,0,0,0-.16,2.14,10.88,10.88,0,0,0,.36,3.21,3.21,3.21,0,0,0,2.22,2.33,6.28,6.28,0,0,0,2.92.1,3.13,3.13,0,0,0,2.61-2.36A11.8,11.8,0,0,0,110.85,33ZM109,38.51c-.27,1-.94,1.33-2.05,1.33a1.91,1.91,0,0,1-2.09-1.33,3.87,3.87,0,0,1-.19-.8c-.07-.56-.1-1.13-.13-1.69a8,8,0,0,1,.32-2.49,2,2,0,0,1,2-1.44A1.9,1.9,0,0,1,109,33.46,8.86,8.86,0,0,1,109,38.51Z"/><path class="cls-2" d="M112.46,73.5a3,3,0,0,1-2.54,1.64,13.33,13.33,0,0,1-3.56-.29c-.24,0-.32-.18-.34-.44,0-1.17.1-1.32,1.25-1.22a15.71,15.71,0,0,0,2.17.13c.94-.06,1.41-.42,1.53-1.16s-.2-1.31-1.1-1.62c-.69-.25-1.39-.41-2.06-.67a2.93,2.93,0,0,1-2-3.56,3,3,0,0,1,3-2.56h.77a20.11,20.11,0,0,1,2.59.28c.29,0,.43.16.39.46s0,.46,0,.7c0,.5-.15.68-.7.59a12.6,12.6,0,0,0-2.74-.19c-1,.08-1.51.55-1.48,1.41a1.15,1.15,0,0,0,.86,1.08c.68.28,1.42.47,2.13.74A3.19,3.19,0,0,1,112.46,73.5Z"/><path class="cls-2" d="M113.54,47.15c-.55,1.13-1,2.21-1.6,3.21A9.81,9.81,0,0,0,110.35,57V57c0,1.36-.13,1.44-1.54,1.25-.36-.07-.3-.3-.3-.51,0-1.18,0-2.34,0-3.52a3,3,0,0,0-.33-1.41c-1-1.82-1.87-3.68-2.8-5.51,0,0,0,0,0-.16h1.7c.35,0,.38.29.5.5.6,1.18,1.19,2.36,1.85,3.69.6-1.24,1.18-2.34,1.69-3.46a1,1,0,0,1,1.21-.75A9.72,9.72,0,0,0,113.54,47.15Z"/><path class="cls-2" d="M119.16,37.05c1.59-1.06,1.56-2.65,1.28-4.27A2.55,2.55,0,0,0,118,30.5c-1.53-.2-3-.05-4.58-.1-.34,0-.37.15-.37.42v2.74c0,2.44,0,4.89,0,7.33,0,.47.12.64.62.62,1.22,0,1.22,0,1.23-1.28v-.77c0-1.8,0-1.78,1.82-1.75a.58.58,0,0,1,.64.47c.2.58.44,1.15.66,1.71.64,1.7.64,1.7,2.6,1.57-.5-1.31-1-2.54-1.46-3.78C119,37.46,118.87,37.25,119.16,37.05Zm-.52-2.42a1.38,1.38,0,0,1-1.43,1.26c-.31,0-.62,0-.91,0-1.45,0-1.45,0-1.45-1.48a2.43,2.43,0,0,1,0-.27c.09-.63-.28-1.69.18-1.82a4.46,4.46,0,0,1,2.9.14A1.85,1.85,0,0,1,118.64,34.63Z"/><path class="cls-2" d="M117.87,47a13,13,0,0,1,2.79.28c.49.07.65.26.62.77-.08,1,0,1-1,1a10.64,10.64,0,0,0-2.25-.1,1.66,1.66,0,0,0-1.52,1.35,11,11,0,0,0,0,4.8,1.71,1.71,0,0,0,1.83,1.51,12.66,12.66,0,0,0,2.53-.22c.32-.05.47,0,.46.38-.07,1.62.41,1.21-1.32,1.54a8.46,8.46,0,0,1-1.73.17c-2.23,0-3.4-1-3.69-3.23a13.28,13.28,0,0,1-.15-2.41,11.56,11.56,0,0,1,.28-3.12A3.16,3.16,0,0,1,117.87,47Z"/><path class="cls-2" d="M122.38,67.77c-.28-2.41-1.28-3.71-3.28-3.95-2.61-.35-4.44.46-4.95,3.36a12.46,12.46,0,0,0,.1,5.16A3.26,3.26,0,0,0,116.59,75a6.56,6.56,0,0,0,2.79.1,3.29,3.29,0,0,0,2.73-2.49,12.16,12.16,0,0,0,.36-3.17C122.44,69,122.44,68.37,122.38,67.77ZM120.28,72a1.86,1.86,0,0,1-1.79,1.31c-1,.05-1.92-.08-2.26-1.11a8.27,8.27,0,0,1,0-5.51,1.86,1.86,0,0,1,2-1.11,1.89,1.89,0,0,1,1.9,1.18,7.1,7.1,0,0,1,.43,2.82A7.59,7.59,0,0,1,120.28,72Z"/><path class="cls-2" d="M127.05,41.49c-1.4,0-2.77,0-4.17,0-.39,0-.5-.11-.5-.51,0-1.69,0-3.37,0-5.06s0-3.3,0-4.93c0-.5.13-.63.62-.63,1.2,0,1.2,0,1.2,1.18,0,2.51,0,5,0,7.53,0,.45.09.6.57.59,1,0,1.92,0,2.88,0,.46,0,.66.08.66.61C128.28,41.49,128.31,41.49,127.05,41.49Z"/><path class="cls-2" d="M125.8,67.23a12.91,12.91,0,0,0,0,4.47,1.81,1.81,0,0,0,2,1.61,12.59,12.59,0,0,0,2.37-.22c.33,0,.51,0,.48.38v.07c.08,1.29.08,1.29-1.23,1.47a11.26,11.26,0,0,1-2.17.15,3.09,3.09,0,0,1-3.16-2.48,10.36,10.36,0,0,1-.29-3.19,10.8,10.8,0,0,1,.29-3.21,3.13,3.13,0,0,1,3.13-2.53,12.6,12.6,0,0,1,2.94.3c.42.06.57.26.54.7-.09,1-.07,1-1.09,1-.6,0-1.21-.13-1.81-.11A1.79,1.79,0,0,0,125.8,67.23Z"/><path class="cls-2" d="M130.92,48.36c0,3.1,0,6.2,0,9.29,0,.5-.11.63-.62.63-1.23,0-1.23,0-1.23-1.22,0-1,0-1.91,0-2.88,0-.46-.07-.67-.61-.66-1.05,0-2.1,0-3.16,0-.41,0-.56.1-.56.55,0,1.22,0,2.44,0,3.67,0,.44-.13.54-.56.54-1.29,0-1.29,0-1.29-1.28V52.71c0-1.64,0-3.28,0-4.92,0-.46.08-.66.59-.64,1.25,0,1.25,0,1.25,1.26,0,.92,0,1.82,0,2.74,0,.39,0,.59.5.57,1.12,0,2.22,0,3.31,0,.38,0,.5-.1.5-.48,0-1.15,0-2.29,0-3.44,0-.46.08-.66.61-.64C130.92,47.18,130.92,47.15,130.92,48.36Z"/><path class="cls-2" d="M134.18,65.13c0,3.1,0,6.18,0,9.28,0,.49-.13.63-.63.62-1.24,0-1.22,0-1.22-1.2,0-1.49,0-3,0-4.44h0c0-1.62,0-3.23,0-4.85,0-.49.13-.64.62-.64C134.16,63.93,134.18,63.9,134.18,65.13Z"/><path class="cls-2" d="M135,48.31c0,3.1,0,6.2,0,9.3,0,.49-.08.68-.64.67-1.16-.05-1.16,0-1.16-1.2V52.72c0-1.64,0-3.28,0-4.93,0-.54.16-.66.67-.64C135,47.18,135,47.15,135,48.31Z"/><path class="cls-2" d="M137.57,33.74c-.31-2.21-1.36-3.14-3.59-3.28-1.16-.08-2.34,0-3.51-.08-.46,0-.6.13-.59.59,0,1.67,0,3.35,0,5s0,3.33,0,5c0,.43.12.56.54.54,1.18,0,2.35,0,3.53,0a3.36,3.36,0,0,0,3.5-2.91A13.58,13.58,0,0,0,137.57,33.74Zm-2,4.35a1.9,1.9,0,0,1-2.11,1.57c-.57,0-1.33.26-1.69-.1s-.08-1.11-.1-1.7,0-1.27,0-1.91c0-1,0-2.11,0-3.16,0-.47.14-.6.59-.57.6.05,1.23,0,1.83.08a1.76,1.76,0,0,1,1.53,1.46A10.2,10.2,0,0,1,135.6,38.09Z"/><path class="cls-2" d="M144.06,74.63c-.75-3.42-1.54-6.85-2.29-10.27-.09-.35-.22-.46-.56-.44H138.6c-.39,0-.52.13-.59.5-.23,1.12-.51,2.23-.77,3.35-.54,2.39-1.08,4.78-1.6,7.19,1.75.22,1.75.22,2.14-1.41a1.29,1.29,0,0,0,.08-.26c0-.36.19-.47.55-.46,1,0,1.91,0,2.88,0,.34,0,.51.11.57.45a9.58,9.58,0,0,0,.35,1.3c0,.16,0,.46.33.44l1.54-.05A1.45,1.45,0,0,0,144.06,74.63ZM140.73,71a5.55,5.55,0,0,0-.91,0c-1.48,0-1.48,0-1.15-1.43.26-1.15.52-2.28.77-3.43.05-.27.13-.45.47-.45s.35.23.41.45c.3,1.41.61,2.84.94,4.25C141.37,70.88,141.24,71.08,140.73,71Z"/><path class="cls-2" d="M142.58,47.58c-.08-.33-.21-.43-.52-.43-.88,0-1.79,0-2.67,0-.35,0-.48.11-.54.46-.18.87-.4,1.74-.59,2.6-.58,2.51-1.13,5-1.72,7.53-.08.37,0,.52.39.54,1.33,0,1.33,0,1.64-1.25,0-.13.05-.26.08-.41,0-.41.23-.57.69-.55.82,0,1.64,0,2.46,0,.56,0,.8.11.95.7.38,1.57.41,1.56,2.05,1.47l.15,0C144.16,54.64,143.36,51.12,142.58,47.58Zm-.93,6.68c-.33,0-.65,0-1,0-1.51,0-1.51,0-1.16-1.49.26-1.15.54-2.28.78-3.42,0-.28.14-.41.43-.41s.39.18.44.42c.31,1.44.63,2.89,1,4.33C142.19,54.1,142.13,54.31,141.65,54.26Z"/><path class="cls-2" d="M152,64.6c-.05,1.15,0,1.15-1.16,1.15-1.77,0-1.77,0-1.77,1.77v2.89c0,1.36,0,2.72,0,4.08,0,.44-.12.54-.56.54-1.3,0-1.3,0-1.3-1.28,0-2.43,0-4.87,0-7.31,0-.52-.1-.75-.69-.71s-1.21,0-1.82,0c-.29,0-.39-.08-.42-.39-.1-1.44-.12-1.44,1.34-1.44,1.88,0,3.75,0,5.64,0C151.83,63.9,152,64.05,152,64.6Z"/><path class="cls-2" d="M152.78,47.74c0,1.24,0,1.24-1.26,1.24-1.64,0-1.64,0-1.64,1.64v3c0,1.34,0,2.67,0,4,0,.48-.11.64-.6.63-1.25,0-1.25,0-1.25-1.26,0-2.48,0-5,0-7.46,0-.46-.13-.61-.59-.58s-1.21,0-1.84,0c-.34,0-.47-.06-.49-.46,0-1.39,0-1.39,1.35-1.39,1.9,0,3.8,0,5.7,0C152.66,47.13,152.78,47.3,152.78,47.74Z"/><path class="cls-2" d="M154.76,74.37c0,.53-.13.67-.67.66C153,75,153,75,153,73.9c0-3.1,0-6.2,0-9.28,0-.54.12-.8.69-.7a2.81,2.81,0,0,0,.58,0c.44-.07.55.13.54.55,0,1.66,0,3.31,0,5S154.71,72.73,154.76,74.37Z"/><path class="cls-2" d="M159.91,53.8c1.61-1.08,1.56-2.67,1.29-4.29a2.55,2.55,0,0,0-2.42-2.25c-1.53-.21-3.05,0-4.57-.11-.33,0-.4.13-.4.43V57.85c0,.17-.06.41.23.41a3.89,3.89,0,0,0,1.46-.1c.28-.11.05-.69.08-1s0-.55,0-.83c0-1.85,0-1.84,1.85-1.8a.55.55,0,0,1,.63.4c.21.6.44,1.19.67,1.78.65,1.7.65,1.7,2.59,1.57-.49-1.28-1-2.54-1.44-3.8C159.79,54.21,159.63,54,159.91,53.8Zm-2.16-1.14c-.56,0-1.12,0-1.69,0-.38,0-.49-.14-.48-.5s0-.93,0-1.49-.24-1.21.12-1.54,1.19-.13,1.82-.13a1.69,1.69,0,0,1,1.93,2.16A1.53,1.53,0,0,1,157.75,52.66Z"/><path class="cls-2" d="M163.1,57c0-3.05,0-6.11,0-9.16,0-.57.15-.8.74-.72a1.34,1.34,0,0,0,.49,0c.5-.07.64.13.63.62,0,1.67,0,3.33,0,5s0,3.28,0,4.92c0,.47-.15.59-.59.59C163.12,58.26,163.1,58.28,163.1,57Z"/><path class="cls-2" d="M165,67.87c-.23-2.43-1.25-3.79-3.25-4.05-2.8-.36-4.51.57-5,3.39a12.88,12.88,0,0,0,.1,5.1A3.26,3.26,0,0,0,159.14,75a6.21,6.21,0,0,0,2.78.12,3.23,3.23,0,0,0,2.77-2.54,13,13,0,0,0,.37-3C165,69,165,68.42,165,67.87ZM162.88,72A1.87,1.87,0,0,1,161,73.32c-1.19.07-2-.26-2.24-1.14a8.34,8.34,0,0,1,.05-5.45,1.84,1.84,0,0,1,2-1.14,1.94,1.94,0,0,1,1.93,1.14,6.82,6.82,0,0,1,.41,2.82A7.66,7.66,0,0,1,162.88,72Z"/><path class="cls-2" d="M167,55.87a13.85,13.85,0,0,1,0-6.34,3.06,3.06,0,0,1,3-2.53,12,12,0,0,1,3.15.33c.36.06.38.26.36.59-.08,1.15-.06,1.11-1.18,1.06a10.55,10.55,0,0,0-2-.08,1.76,1.76,0,0,0-1.62,1.49,10,10,0,0,0-.17,2.48,9.44,9.44,0,0,0,.15,2.08,1.81,1.81,0,0,0,1.9,1.61,11.89,11.89,0,0,0,2.38-.2c.39-.07.52,0,.55.41.07,1.31.09,1.31-1.24,1.51a10.45,10.45,0,0,1-2.16.13A3,3,0,0,1,167,55.87Z"/><path class="cls-2" d="M175.14,74.54c0,.41-.15.5-.53.49-.75,0-1.64.23-2.21-.1s-.64-1.31-.92-2c-.82-2-1.61-4.05-2.39-6.06a1.13,1.13,0,0,0-.35-.61,1.12,1.12,0,0,0-.1.7c0,2.46,0,4.94,0,7.4,0,.57-.16.68-.7.67-1.11,0-1.11,0-1.11-1.1,0-3.11,0-6.23,0-9.36,0-.51.11-.7.65-.67.76.06,1.69-.21,2.2.13s.64,1.31.9,2q1.16,3,2.31,6c.07.2.17.36.28.61.25-.25.15-.49.15-.71,0-2.44,0-4.88,0-7.31,0-.59.13-.83.74-.73a3.21,3.21,0,0,0,.62,0c.39-.05.48.13.46.49C175.12,67.78,175.12,71.16,175.14,74.54Z"/><path class="cls-3" d="M46.79,30.17l-.28,0c.23,0,.47,0,.7,0Z"/><path class="cls-3" d="M80.65,31A33.42,33.42,0,0,1,77.8,43C72.5,54.56,63.55,61.59,51.08,64.15c-1.23.26-1.23.22-1.23,1.49,0,2.91,0,5.82,0,8.73,0,.51-.12.67-.66.66q-4.55,0-9.09,0c-.51,0-.66-.1-.66-.64,0-3.08,0-6.15,0-9.23,0-.65-.18-.85-.82-1a35.57,35.57,0,0,1-26.14-19,34.8,34.8,0,0,1-3.91-14c0-.7.14-.84.81-.82,2.86,0,5.69,0,8.53,0,.57,0,.8.08.85.74a26,26,0,0,0,20,23c.53.11.81.08.71-.54a6.56,6.56,0,0,1,0-1,1.39,1.39,0,0,1-.18-.8c0-1.2,0-2.38,0-3.56V48s.12.1.16.15V42.76a.18.18,0,0,1-.16.09v-.13c0-.68,0-1.39,0-2.08v-.13a.33.33,0,0,1,.16.15c0-.31,0-.61,0-.92,0-2.9,0-5.8,0-8.69,0-.65.18-.77.77-.75a25.07,25.07,0,0,0,3.36-.05.76.76,0,0,0,0-.16,12,12,0,0,1,2.16,0,.29.29,0,0,0,0,.16,20.09,20.09,0,0,0,3.29,0c.71,0,.9.15.89.89,0,3.16-.08,6.31.05,9.47a.65.65,0,0,1,.16-.13s0,.08,0,.12v.11a5.54,5.54,0,0,1,0,2,.44.44,0,0,0-.15.36c0,1.59,0,3.18,0,4.94l.17-.15c.05,1.16.1,2.33.1,3.49a1.4,1.4,0,0,1-.23,1.07c-.15,2.16-.22,1.78,1.44,1.29q15.39-4.62,18.82-20.34a21.53,21.53,0,0,0,.32-2.65c0-.35.13-.48.49-.48,3.09,0,6.17,0,9.23,0C80.88,30.28,80.66,30.71,80.65,31Z"/><path class="cls-4" d="M46.51,30.15l.28,0h.42C47,30.17,46.74,30.17,46.51,30.15Zm22.24-4.52a23.1,23.1,0,0,0-8.33-15.11A23.65,23.65,0,0,0,41.43,5a23.43,23.43,0,0,0-16.18,9.37A23.42,23.42,0,0,0,20.66,33a23.43,23.43,0,0,0,8.39,14.4,23.08,23.08,0,0,0,10.39,5.05V48.1c0-.05-.11-.1-.16-.15A16.89,16.89,0,0,1,35,41.89c1.47.31,2.86.64,4.29.83v.13a.18.18,0,0,0,.16-.09v-2.1a.33.33,0,0,0-.16-.15v.12a40.54,40.54,0,0,1-4.77-1.05A.84.84,0,0,1,33.9,39a35.36,35.36,0,0,1-1.44-8.42c0-.43,0-.61.54-.61,3.35,0,6.69,0,10,0,.19,0,.46-.1.54.13a.76.76,0,0,1,0,.16h2.1a.29.29,0,0,1,0-.16c.05-.15.23-.13.4-.13,3.42,0,6.85,0,10.27,0,.39,0,.46.16.44.51A35.91,35.91,0,0,1,55.39,39a.8.8,0,0,1-.62.58,34.17,34.17,0,0,1-4.69,1.05s0-.09,0-.12a.65.65,0,0,0-.16.13v0h0c-.21,3.93,0,7.88,0,11.82.11,0,.23,0,.34,0a23.82,23.82,0,0,0,11.88-6.76A23.39,23.39,0,0,0,68.75,25.63ZM45.69,8.24c0-.43.08-.52.51-.43a9.26,9.26,0,0,1,4.24,2.4l.76.73a1.07,1.07,0,0,0,.41.46,22.22,22.22,0,0,1,2.32,3.76c.1.19.35.42.18.62s-.44,0-.65-.07a36.25,36.25,0,0,0-7.18-1c-.43,0-.59-.13-.59-.61C45.72,12.17,45.71,10.21,45.69,8.24Zm-2.12-.46v6.61c0,.23-.09.32-.32.34a37.63,37.63,0,0,0-8,1.13.33.33,0,0,1-.14-.06C36.4,12.29,39.94,8.13,43.57,7.78ZM24.76,30h5.06c.32,0,.53,0,.54.41a37.67,37.67,0,0,0,1.25,8.16c-3.41-1.64-6.38-3.51-7.85-7C23.1,30,23.14,30,24.76,30Zm-1.33-2.71a9.19,9.19,0,0,1,2-3.67,18.07,18.07,0,0,1,6.17-4.28c-.35,1.54-.67,2.95-.87,4.38-.17,1.18-.25,2.38-.33,3.56,0,.47-.15.63-.64.63q-2.93,0-5.85,0C23.35,27.87,23.33,27.66,23.43,27.25Zm9.25,14.41a20.07,20.07,0,0,0,5.44,8,1.94,1.94,0,0,1,.1.17.86.86,0,0,0-.1.16A22,22,0,0,1,23.33,35c.76.77,1.48,1.56,2.31,2.25a22.46,22.46,0,0,0,6.15,3.5A1.45,1.45,0,0,1,32.68,41.66ZM31.07,17.34a19,19,0,0,0-7.29,5c-.1.13-.18.28-.4.25A21.78,21.78,0,0,1,38.44,7.78,19.22,19.22,0,0,0,33,15.45,3.15,3.15,0,0,1,31.07,17.34ZM56.24,27.87c-1.65,0-3.32,0-5,0s-3.34,0-5,0c-.42,0-.57-.09-.57-.54q0-5,0-10c0-.36.06-.53.51-.51a33.13,33.13,0,0,1,8.63,1.41.76.76,0,0,1,.56.55,36,36,0,0,1,1.44,8.49C56.87,27.76,56.7,27.87,56.24,27.87ZM50.05,47.92l-.17.15c0-1.76,0-3.35,0-4.94a.44.44,0,0,1,.15-.36.85.85,0,0,1,.35-.1c1.13-.18,2.26-.39,3.37-.68.13,0,.3-.12.38,0s0,.23-.05.33A16.7,16.7,0,0,1,50.05,47.92Zm8.39-1.72A19.19,19.19,0,0,1,51,50a20.51,20.51,0,0,0,3.07-3.46,23.76,23.76,0,0,0,2.62-5,1.09,1.09,0,0,1,.64-.67A20.82,20.82,0,0,0,66,35,21.5,21.5,0,0,1,58.44,46.2Zm-.7-7.69c.24-1.18.45-2.21.65-3.24a34.18,34.18,0,0,0,.54-4.82c0-.28,0-.51.38-.49H66C64.93,34.45,61.57,36.61,57.74,38.51Zm0-19.22C61.32,21,64.49,23,65.78,27c.28.85.25.85-.65.85H59.49c-.28,0-.56.05-.57-.4a37.25,37.25,0,0,0-1.12-7.78C57.78,19.6,57.77,19.52,57.72,19.29ZM63,20a22.77,22.77,0,0,0-5.54-3,1.06,1.06,0,0,1-.72-.59A21.25,21.25,0,0,0,51,7.86a18.4,18.4,0,0,1,6.39,3c4.18,2.92,7.6,7.7,8.6,12.08A19.21,19.21,0,0,0,63,20Z"/><path class="cls-5" d="M101.41,31.64c-.62,3-1.26,6-1.86,9.08-.12.63-.33.87-1,.79s-1.47.25-1.92-.11-.34-1.28-.47-1.94q-.51-2.73-1-5.46c0-.08,0-.19-.21-.21-.35,1.89-.69,3.79-1,5.67-.09.54-.21,1.07-.27,1.61-.05.31-.15.44-.48.44-.69,0-1.36,0-2,0a.4.4,0,0,1-.46-.39Q89.58,36,88.48,30.81c-.06-.3,0-.44.31-.41h.07c1.44-.07,1.43-.07,1.7,1.34.45,2.43.91,4.84,1.36,7.26,0,.18,0,.43.3.56a14.17,14.17,0,0,0,.52-2.44c.41-2,.81-4,1.15-6.08.08-.48.26-.61.72-.61,1.46,0,1.46,0,1.72,1.36.46,2.44.94,4.89,1.41,7.31,0,.17,0,.35.28.46a17,17,0,0,0,.53-2.49c.39-2,.77-4,1.11-6.08.08-.48.25-.61.72-.61C101.68,30.4,101.68,30.38,101.41,31.64Z"/><path class="cls-6" d="M175.14,74.54c0,.41-.15.5-.53.49-.75,0-1.64.23-2.21-.1s-.64-1.31-.92-2c-.82-2-1.61-4.05-2.39-6.06a1.13,1.13,0,0,0-.35-.61,1.12,1.12,0,0,0-.1.7c0,2.46,0,4.94,0,7.4,0,.57-.16.68-.7.67-1.11,0-1.11,0-1.11-1.1,0-3.11,0-6.23,0-9.36,0-.51.11-.7.65-.67.76.06,1.69-.21,2.2.13s.64,1.31.9,2q1.16,3,2.31,6c.07.2.17.36.28.61.25-.25.15-.49.15-.71,0-2.44,0-4.88,0-7.31,0-.59.13-.83.74-.73a3.21,3.21,0,0,0,.62,0c.39-.05.48.13.46.49C175.12,67.78,175.12,71.16,175.14,74.54Z"/><path class="cls-6" d="M119.16,37.05c1.59-1.06,1.56-2.65,1.28-4.27A2.55,2.55,0,0,0,118,30.5c-1.53-.2-3-.05-4.58-.1-.34,0-.37.15-.37.42v2.74c0,2.44,0,4.89,0,7.33,0,.47.12.64.62.62,1.22,0,1.22,0,1.23-1.28v-.77c0-1.8,0-1.78,1.82-1.75a.58.58,0,0,1,.64.47c.2.58.44,1.15.66,1.71.64,1.7.64,1.7,2.6,1.57-.5-1.31-1-2.54-1.46-3.78C119,37.46,118.87,37.25,119.16,37.05Zm-.52-2.42a1.38,1.38,0,0,1-1.43,1.26c-.31,0-.62,0-.91,0-1.45,0-1.45,0-1.45-1.48a2.43,2.43,0,0,1,0-.27c.09-.63-.28-1.69.18-1.82a4.46,4.46,0,0,1,2.9.14A1.85,1.85,0,0,1,118.64,34.63Z"/><path class="cls-5" d="M137.57,33.74c-.31-2.21-1.36-3.14-3.59-3.28-1.16-.08-2.34,0-3.51-.08-.46,0-.6.13-.59.59,0,1.67,0,3.35,0,5s0,3.33,0,5c0,.43.12.56.54.54,1.18,0,2.35,0,3.53,0a3.36,3.36,0,0,0,3.5-2.91A13.58,13.58,0,0,0,137.57,33.74Zm-2,4.35a1.9,1.9,0,0,1-2.11,1.57c-.57,0-1.33.26-1.69-.1s-.08-1.11-.1-1.7,0-1.27,0-1.91c0-1,0-2.11,0-3.16,0-.47.14-.6.59-.57.6.05,1.23,0,1.83.08a1.76,1.76,0,0,1,1.53,1.46A10.2,10.2,0,0,1,135.6,38.09Z"/><path class="cls-5" d="M159.91,53.8c1.61-1.08,1.56-2.67,1.29-4.29a2.55,2.55,0,0,0-2.42-2.25c-1.53-.21-3.05,0-4.57-.11-.33,0-.4.13-.4.43V57.85c0,.17-.06.41.23.41a3.89,3.89,0,0,0,1.46-.1c.28-.11.05-.69.08-1s0-.55,0-.83c0-1.85,0-1.84,1.85-1.8a.55.55,0,0,1,.63.4c.21.6.44,1.19.67,1.78.65,1.7.65,1.7,2.59,1.57-.49-1.28-1-2.54-1.44-3.8C159.79,54.21,159.63,54,159.91,53.8Zm-2.16-1.14c-.56,0-1.12,0-1.69,0-.38,0-.49-.14-.48-.5s0-.93,0-1.49-.24-1.21.12-1.54,1.19-.13,1.82-.13a1.69,1.69,0,0,1,1.93,2.16A1.53,1.53,0,0,1,157.75,52.66Z"/><path class="cls-6" d="M122.38,67.77c-.28-2.41-1.28-3.71-3.28-3.95-2.61-.35-4.44.46-4.95,3.36a12.46,12.46,0,0,0,.1,5.16A3.26,3.26,0,0,0,116.59,75a6.56,6.56,0,0,0,2.79.1,3.29,3.29,0,0,0,2.73-2.49,12.16,12.16,0,0,0,.36-3.17C122.44,69,122.44,68.37,122.38,67.77ZM120.28,72a1.86,1.86,0,0,1-1.79,1.31c-1,.05-1.92-.08-2.26-1.11a8.27,8.27,0,0,1,0-5.51,1.86,1.86,0,0,1,2-1.11,1.89,1.89,0,0,1,1.9,1.18,7.1,7.1,0,0,1,.43,2.82A7.59,7.59,0,0,1,120.28,72Z"/><path class="cls-6" d="M165,67.87c-.23-2.43-1.25-3.79-3.25-4.05-2.8-.36-4.51.57-5,3.39a12.88,12.88,0,0,0,.1,5.1A3.26,3.26,0,0,0,159.14,75a6.21,6.21,0,0,0,2.78.12,3.23,3.23,0,0,0,2.77-2.54,13,13,0,0,0,.37-3C165,69,165,68.42,165,67.87ZM162.88,72A1.87,1.87,0,0,1,161,73.32c-1.19.07-2-.26-2.24-1.14a8.34,8.34,0,0,1,.05-5.45,1.84,1.84,0,0,1,2-1.14,1.94,1.94,0,0,1,1.93,1.14,6.82,6.82,0,0,1,.41,2.82A7.66,7.66,0,0,1,162.88,72Z"/><path class="cls-7" d="M110.85,33a3.29,3.29,0,0,0-3.06-2.66c-2.69-.29-4.44.69-4.9,3.48a20.79,20.79,0,0,0-.16,2.14,10.88,10.88,0,0,0,.36,3.21,3.21,3.21,0,0,0,2.22,2.33,6.28,6.28,0,0,0,2.92.1,3.13,3.13,0,0,0,2.61-2.36A11.8,11.8,0,0,0,110.85,33ZM109,38.51c-.27,1-.94,1.33-2.05,1.33a1.91,1.91,0,0,1-2.09-1.33,3.87,3.87,0,0,1-.19-.8c-.07-.56-.1-1.13-.13-1.69a8,8,0,0,1,.32-2.49,2,2,0,0,1,2-1.44A1.9,1.9,0,0,1,109,33.46,8.86,8.86,0,0,1,109,38.51Z"/><path class="cls-5" d="M130.93,57.65c0,.5-.11.63-.62.63-1.23,0-1.23,0-1.23-1.22,0-1,0-1.91,0-2.88,0-.46-.07-.67-.61-.66-1.05,0-2.1,0-3.16,0-.41,0-.56.1-.56.55,0,1.22,0,2.44,0,3.67,0,.44-.13.54-.56.54-1.29,0-1.29,0-1.29-1.28V52.71c0-1.64,0-3.28,0-4.92,0-.46.08-.66.59-.64,1.25,0,1.25,0,1.25,1.26,0,.92,0,1.82,0,2.74,0,.39,0,.59.5.57,1.12,0,2.22,0,3.31,0,.38,0,.5-.1.5-.48,0-1.15,0-2.29,0-3.44,0-.46.08-.66.61-.64,1.23,0,1.23,0,1.23,1.21C130.92,51.46,130.9,54.56,130.93,57.65Z"/><path class="cls-6" d="M144.06,74.63c-.75-3.42-1.54-6.85-2.29-10.27-.09-.35-.22-.46-.56-.44H138.6c-.39,0-.52.13-.59.5-.23,1.12-.51,2.23-.77,3.35-.54,2.39-1.08,4.78-1.6,7.19,1.75.22,1.75.22,2.14-1.41a1.29,1.29,0,0,0,.08-.26c0-.36.19-.47.55-.46,1,0,1.91,0,2.88,0,.34,0,.51.11.57.45a9.58,9.58,0,0,0,.35,1.3c0,.16,0,.46.33.44l1.54-.05A1.45,1.45,0,0,0,144.06,74.63ZM140.73,71a5.55,5.55,0,0,0-.91,0c-1.48,0-1.48,0-1.15-1.43.26-1.15.52-2.28.77-3.43.05-.27.13-.45.47-.45s.35.23.41.45c.3,1.41.61,2.84.94,4.25C141.37,70.88,141.24,71.08,140.73,71Z"/><path class="cls-6" d="M94.48,64.33c-.08-.37-.26-.41-.59-.41-.83,0-1.69,0-2.52,0-.45,0-.58.18-.66.54-.23,1-.47,2.1-.7,3.15-.53,2.28-1,4.57-1.56,6.85-.1.42-.07.6.46.59,1.24,0,1.24,0,1.52-1.18a5.29,5.29,0,0,0,.13-.54.5.5,0,0,1,.61-.49c.9,0,1.79,0,2.67,0,.53,0,.67.19.79.63C95,75.11,95,75.11,96.86,75,96.05,71.41,95.27,67.87,94.48,64.33ZM93.58,71c-.34,0-.71,0-1,0-1.44,0-1.46,0-1.15-1.41.25-1.15.51-2.28.77-3.41,0-.25.07-.49.46-.49s.4.24.45.5c.31,1.43.62,2.87,1,4.3C94.1,70.9,94,71.05,93.58,71Z"/><path class="cls-6" d="M142.58,47.58c-.08-.33-.21-.43-.52-.43-.88,0-1.79,0-2.67,0-.35,0-.48.11-.54.46-.18.87-.4,1.74-.59,2.6-.58,2.51-1.13,5-1.72,7.53-.08.37,0,.52.39.54,1.33,0,1.33,0,1.64-1.25,0-.13.05-.26.08-.41,0-.41.23-.57.69-.55.82,0,1.64,0,2.46,0,.56,0,.8.11.95.7.38,1.57.41,1.56,2.05,1.47l.15,0C144.16,54.64,143.36,51.12,142.58,47.58Zm-.93,6.68c-.33,0-.65,0-1,0-1.51,0-1.51,0-1.16-1.49.26-1.15.54-2.28.78-3.42,0-.28.14-.41.43-.41s.39.18.44.42c.31,1.44.63,2.89,1,4.33C142.19,54.1,142.13,54.31,141.65,54.26Z"/><path class="cls-6" d="M96.55,50.26c-.23-2.06-1.35-3.06-3.48-3.09-1.1,0-2.19,0-3.31,0-.47,0-.64.11-.62.62,0,1.64,0,3.28,0,4.92V57c0,1.3,0,1.28,1.28,1.3.5,0,.59-.18.57-.61,0-.75,0-1.51,0-2.24,0-.41.12-.55.51-.53.64,0,1.28,0,1.9,0a3.07,3.07,0,0,0,3-2.41A6.47,6.47,0,0,0,96.55,50.26Zm-1.89,1.25a1.61,1.61,0,0,1-1.87,1.56h-.55c-1.27,0-1.27,0-1.27-1.23,0-.77,0-1.56,0-2.33,0-.38.09-.56.51-.53a13.86,13.86,0,0,1,2,.09,1.41,1.41,0,0,1,1.12,1.13A2.89,2.89,0,0,1,94.66,51.51Z"/><path class="cls-6" d="M104.5,56.18c-.4,1.49-1.61,2.26-3.54,2.25a21,21,0,0,1-2.73-.32c-.29,0-.37-.16-.39-.47,0-1.2.08-1.31,1.26-1.2a16.76,16.76,0,0,0,2.12.13c.93,0,1.44-.39,1.55-1.11s-.16-1.35-1.11-1.67c-.64-.23-1.31-.38-1.93-.63a2.94,2.94,0,0,1-2.12-3.57,3,3,0,0,1,3-2.59,15.17,15.17,0,0,1,3.36.3c.3.05.36.19.36.47,0,1.3,0,1.28-1.24,1.2a13.63,13.63,0,0,0-2.39-.12c-.92.13-1.33.58-1.33,1.35a1.14,1.14,0,0,0,.82,1.11c.69.26,1.41.48,2.11.74C104.38,52.79,105.05,54.07,104.5,56.18Z"/><path class="cls-6" d="M104.69,72.52a3,3,0,0,1-3.28,2.64,17.84,17.84,0,0,1-3-.3c-.36,0-.5-.19-.42-.55A5.65,5.65,0,0,0,98,73.6c0-.46.19-.57.67-.49a13.74,13.74,0,0,0,2.65.21c1,0,1.41-.39,1.55-1.14s-.18-1.32-1.09-1.64c-.67-.25-1.39-.4-2.06-.66a3.16,3.16,0,0,1,1-6.13h.77A20.76,20.76,0,0,1,104,64c.4,0,.51.2.5.59,0,1.2,0,1.2-1.2,1.12a14.73,14.73,0,0,0-2.39-.12c-1,.1-1.4.56-1.38,1.36a1.11,1.11,0,0,0,.82,1.1c.72.28,1.46.49,2.19.76A2.89,2.89,0,0,1,104.69,72.52Z"/><path class="cls-6" d="M112.46,73.5a3,3,0,0,1-2.54,1.64,13.33,13.33,0,0,1-3.56-.29c-.24,0-.32-.18-.34-.44,0-1.17.1-1.32,1.25-1.22a15.71,15.71,0,0,0,2.17.13c.94-.06,1.41-.42,1.53-1.16s-.2-1.31-1.1-1.62c-.69-.25-1.39-.41-2.06-.67a2.93,2.93,0,0,1-2-3.56,3,3,0,0,1,3-2.56h.77a20.11,20.11,0,0,1,2.59.28c.29,0,.43.16.39.46s0,.46,0,.7c0,.5-.15.68-.7.59a12.6,12.6,0,0,0-2.74-.19c-1,.08-1.51.55-1.48,1.41a1.15,1.15,0,0,0,.86,1.08c.68.28,1.42.47,2.13.74A3.19,3.19,0,0,1,112.46,73.5Z"/><path class="cls-6" d="M172.35,58.28a10.45,10.45,0,0,1-2.16.13A3,3,0,0,1,167,55.87a13.85,13.85,0,0,1,0-6.34,3.06,3.06,0,0,1,3-2.53,12,12,0,0,1,3.15.33c.36.06.38.26.36.59-.08,1.15-.06,1.11-1.18,1.06a10.55,10.55,0,0,0-2-.08,1.76,1.76,0,0,0-1.62,1.49,10,10,0,0,0-.17,2.48,9.44,9.44,0,0,0,.15,2.08,1.81,1.81,0,0,0,1.9,1.61,11.89,11.89,0,0,0,2.38-.2c.39-.07.52,0,.55.41C173.66,58.08,173.68,58.08,172.35,58.28Z"/><path class="cls-5" d="M119.93,58.26a8.46,8.46,0,0,1-1.73.17c-2.23,0-3.4-1-3.69-3.23a13.28,13.28,0,0,1-.15-2.41,11.56,11.56,0,0,1,.28-3.12A3.16,3.16,0,0,1,117.87,47a13,13,0,0,1,2.79.28c.49.07.65.26.62.77-.08,1,0,1-1,1a10.64,10.64,0,0,0-2.25-.1,1.66,1.66,0,0,0-1.52,1.35,11,11,0,0,0,0,4.8,1.71,1.71,0,0,0,1.83,1.51,12.66,12.66,0,0,0,2.53-.22c.32-.05.47,0,.46.38C121.18,58.34,121.66,57.93,119.93,58.26Z"/><path class="cls-7" d="M130.64,73.54c.08,1.29.08,1.29-1.23,1.47a11.26,11.26,0,0,1-2.17.15,3.09,3.09,0,0,1-3.16-2.48,10.36,10.36,0,0,1-.29-3.19,10.8,10.8,0,0,1,.29-3.21,3.13,3.13,0,0,1,3.13-2.53,12.6,12.6,0,0,1,2.94.3c.42.06.57.26.54.7-.09,1-.07,1-1.09,1-.6,0-1.21-.13-1.81-.11a1.79,1.79,0,0,0-2,1.61,12.91,12.91,0,0,0,0,4.47,1.81,1.81,0,0,0,2,1.61,12.59,12.59,0,0,0,2.37-.22c.33,0,.51,0,.48.38Z"/><path class="cls-6" d="M111.94,50.36A9.81,9.81,0,0,0,110.35,57V57c0,1.36-.13,1.44-1.54,1.25-.36-.07-.3-.3-.3-.51,0-1.18,0-2.34,0-3.52a3,3,0,0,0-.33-1.41c-1-1.82-1.87-3.68-2.8-5.51,0,0,0,0,0-.16h1.7c.35,0,.38.29.5.5.6,1.18,1.19,2.36,1.85,3.69.6-1.24,1.18-2.34,1.69-3.46a1,1,0,0,1,1.21-.75,9.72,9.72,0,0,0,1.21,0C113,48.28,112.53,49.36,111.94,50.36Z"/><path class="cls-6" d="M152,64.6c-.05,1.15,0,1.15-1.16,1.15-1.77,0-1.77,0-1.77,1.77v2.89c0,1.36,0,2.72,0,4.08,0,.44-.12.54-.56.54-1.3,0-1.3,0-1.3-1.28,0-2.43,0-4.87,0-7.31,0-.52-.1-.75-.69-.71s-1.21,0-1.82,0c-.29,0-.39-.08-.42-.39-.1-1.44-.12-1.44,1.34-1.44,1.88,0,3.75,0,5.64,0C151.83,63.9,152,64.05,152,64.6Z"/><path class="cls-6" d="M152.78,47.74c0,1.24,0,1.24-1.26,1.24-1.64,0-1.64,0-1.64,1.64v3c0,1.34,0,2.67,0,4,0,.48-.11.64-.6.63-1.25,0-1.25,0-1.25-1.26,0-2.48,0-5,0-7.46,0-.46-.13-.61-.59-.58s-1.21,0-1.84,0c-.34,0-.47-.06-.49-.46,0-1.39,0-1.39,1.35-1.39,1.9,0,3.8,0,5.7,0C152.66,47.13,152.78,47.3,152.78,47.74Z"/><path class="cls-6" d="M128.31,40.27c0,1.22,0,1.22-1.26,1.22s-2.77,0-4.17,0c-.39,0-.5-.11-.5-.51,0-1.69,0-3.37,0-5.06s0-3.3,0-4.93c0-.5.13-.63.62-.63,1.2,0,1.2,0,1.2,1.18,0,2.51,0,5,0,7.53,0,.45.09.6.57.59,1,0,1.92,0,2.88,0C128.11,39.64,128.31,39.74,128.31,40.27Z"/><path class="cls-8" d="M134.18,65.13c0,3.1,0,6.18,0,9.28,0,.49-.13.63-.63.62-1.24,0-1.22,0-1.22-1.2,0-1.49,0-3,0-4.44h0c0-1.62,0-3.23,0-4.85,0-.49.13-.64.62-.64C134.16,63.93,134.18,63.9,134.18,65.13Z"/><path class="cls-6" d="M164.94,52.77c0,1.64,0,3.28,0,4.92,0,.47-.15.59-.59.59-1.25,0-1.27,0-1.27-1.25,0-3.05,0-6.11,0-9.16,0-.57.15-.8.74-.72a1.34,1.34,0,0,0,.49,0c.5-.07.64.13.63.62C164.92,49.44,164.94,51.1,164.94,52.77Z"/><path class="cls-9" d="M154.76,74.37c0,.53-.13.67-.67.66C153,75,153,75,153,73.9c0-3.1,0-6.2,0-9.28,0-.54.12-.8.69-.7a2.81,2.81,0,0,0,.58,0c.44-.07.55.13.54.55,0,1.66,0,3.31,0,5S154.71,72.73,154.76,74.37Z"/><path class="cls-10" d="M135,57.61c0,.49-.08.68-.64.67-1.16-.05-1.16,0-1.16-1.2V52.72c0-1.64,0-3.28,0-4.93,0-.54.16-.66.67-.64,1.13,0,1.13,0,1.13,1.16C135,51.41,135,54.51,135,57.61Z"/><path class="cls-2" d="M49.92,40.64v0a.9.9,0,0,1,.16,0s0-.09,0-.12A.65.65,0,0,0,49.92,40.64ZM46.51,30.15l.28,0h.42C47,30.17,46.74,30.17,46.51,30.15Z"/><path class="cls-2" d="M39.28,40.51v.12l.16,0A.33.33,0,0,0,39.28,40.51Z"/><path class="cls-11" d="M39.28,42.72v.13a.18.18,0,0,0,.16-.09Z"/><path class="cls-2" d="M38,27.86c-1.67,0-3.34,0-5,0-.43,0-.57-.1-.54-.55a34.51,34.51,0,0,1,1.47-8.56.67.67,0,0,1,.51-.51,34.37,34.37,0,0,1,8.78-1.44c.54,0,.35.33.35.55,0,2.37,0,4.74,0,7.11,0,1,0,1.92,0,2.88,0,.41-.13.52-.52.52C41.38,27.85,39.69,27.86,38,27.86Z"/><path class="cls-2" d="M51.61,11.4a1.07,1.07,0,0,1-.41-.46A.93.93,0,0,1,51.61,11.4Z"/><path class="cls-12" d="M51.61,11.4a1.07,1.07,0,0,1-.41-.46A.4.4,0,0,1,51.61,11.4Z"/><path class="cls-13" d="M133.53,48.17v9.76h-.09V48.14Z"/><path class="cls-14" d="M205.72,23.46l-2.43-10h1.93l.94,4.52c.25,1.21.49,2.48.65,3.47h0c.17-1.05.45-2.23.73-3.48l1.07-4.51h1.91l1,4.58c.26,1.18.46,2.29.61,3.36h0c.18-1.09.41-2.23.68-3.43l1-4.51h1.85l-2.68,10h-1.94l-1-4.68a28.87,28.87,0,0,1-.54-3.15h0c-.18,1.06-.37,2-.67,3.15l-1.15,4.68Z"/><path class="cls-14" d="M216.93,13.65a15.48,15.48,0,0,1,2.77-.21,4.51,4.51,0,0,1,2.94.81,2.81,2.81,0,0,1,1,2.2,3,3,0,0,1-.85,2.26,4.39,4.39,0,0,1-3.14,1.06,4.66,4.66,0,0,1-.89-.06v3.75h-1.8Zm1.8,4.63a3.6,3.6,0,0,0,.89.08c1.35,0,2.18-.67,2.18-1.84s-.77-1.69-2-1.69a4.64,4.64,0,0,0-1.05.09Z"/><path class="cls-14" d="M226.12,20.64l-.86,2.82h-1.87l3.19-10h2.31l3.23,10h-1.94l-.9-2.82ZM229,19.27l-.79-2.45c-.19-.6-.35-1.28-.5-1.86h0c-.14.58-.29,1.27-.47,1.86l-.77,2.45Z"/><path class="cls-14" d="M240.93,15h-2.84V13.51h7.51V15h-2.86v8.43h-1.81Z"/><path class="cls-14" d="M248.58,13.51v4h4.21v-4h1.81v10h-1.81V19.08h-4.21v4.38h-1.81v-10Z"/><path class="cls-14" d="M262.24,19.05h-3.75V22h4.19v1.49h-6v-10h5.78V15h-4v2.56h3.75Z"/><path class="cls-14" d="M272.67,19.4c-.06-1.28-.13-2.83-.12-4.17h0c-.33,1.21-.74,2.55-1.18,3.8l-1.45,4.31h-1.4l-1.33-4.25c-.38-1.27-.74-2.62-1-3.86h0c-.05,1.29-.1,2.87-.18,4.23l-.22,4H264l.67-10h2.39l1.3,4c.35,1.17.66,2.35.91,3.46h0c.26-1.08.6-2.31,1-3.47l1.38-4h2.36l.57,10h-1.77Z"/><path class="cls-14" d="M278.38,20.64l-.86,2.82h-1.87l3.18-10h2.32l3.23,10h-1.95l-.9-2.82Zm2.84-1.37-.78-2.45c-.19-.6-.35-1.28-.5-1.86h0c-.15.58-.3,1.27-.47,1.86l-.77,2.45Z"/><path class="cls-14" d="M286.47,15h-2.83V13.51h7.51V15h-2.86v8.43h-1.82Z"/><path class="cls-14" d="M294.13,13.51v10h-1.82v-10Z"/><path class="cls-14" d="M303.33,23.16a6.06,6.06,0,0,1-2.56.45,4.69,4.69,0,0,1-5.08-5A5,5,0,0,1,301,13.35a5.54,5.54,0,0,1,2.42.45l-.4,1.44a4.75,4.75,0,0,0-1.94-.38,3.31,3.31,0,0,0-3.49,3.66,3.27,3.27,0,0,0,3.47,3.58,5.1,5.1,0,0,0,2-.37Z"/><path class="cls-15" d="M214.75,43.56a9.06,9.06,0,0,1-3.6.6c-4.86,0-7.36-3-7.36-7,0-4.79,3.42-7.45,7.67-7.45a8.31,8.31,0,0,1,3.46.62l-.65,2.52a6.83,6.83,0,0,0-2.66-.52c-2.52,0-4.48,1.52-4.48,4.65,0,2.81,1.66,4.58,4.5,4.58a7.86,7.86,0,0,0,2.64-.46Z"/><path class="cls-15" d="M229.07,36.79c0,4.6-2.79,7.39-6.9,7.39s-6.6-3.14-6.6-7.14c0-4.21,2.69-7.35,6.83-7.35C226.71,29.69,229.07,32.91,229.07,36.79ZM218.92,37c0,2.75,1.29,4.68,3.42,4.68s3.37-2,3.37-4.77c0-2.52-1.2-4.68-3.39-4.68S218.92,34.25,218.92,37Z"/><path class="cls-15" d="M231.16,44v-14h3.71l2.91,5.15a39.2,39.2,0,0,1,2.29,4.81h.07a51.65,51.65,0,0,1-.27-5.85V29.91h2.91V44h-3.33l-3-5.42a53.12,53.12,0,0,1-2.44-5l-.06,0c.08,1.86.12,3.83.12,6.13V44Z"/><path class="cls-15" d="M257.27,43.31a15.88,15.88,0,0,1-4.69.79,7.83,7.83,0,0,1-5.71-1.89,6.82,6.82,0,0,1-2-5.11c0-4.66,3.42-7.33,8-7.33a9.59,9.59,0,0,1,3.9.69L256.14,33a7.66,7.66,0,0,0-3.27-.61c-2.65,0-4.65,1.5-4.65,4.54s1.82,4.61,4.42,4.61a4.12,4.12,0,0,0,1.56-.21V38.39H252V35.91h5.23Z"/><path class="cls-15" d="M259.75,30.1a28.81,28.81,0,0,1,4.23-.29c2.08,0,3.54.31,4.54,1.1a3.58,3.58,0,0,1,1.29,2.94,3.73,3.73,0,0,1-2.48,3.46v.06A3.58,3.58,0,0,1,269.21,40c.44,1.58.87,3.41,1.14,4H267.1a18.42,18.42,0,0,1-1-3.27c-.38-1.76-1-2.23-2.28-2.26h-1V44h-3.15Zm3.15,6h1.25c1.58,0,2.52-.79,2.52-2s-.88-1.94-2.34-2a7.79,7.79,0,0,0-1.43.11Z"/><path class="cls-15" d="M280.46,38H275.3v3.33h5.77V44h-9v-14h8.67v2.61H275.3v2.91h5.16Z"/><path class="cls-15" d="M283.34,40.69a8.24,8.24,0,0,0,3.52.87c1.46,0,2.23-.6,2.23-1.52s-.67-1.38-2.35-2c-2.34-.81-3.86-2.1-3.86-4.15,0-2.39,2-4.22,5.32-4.22a8.68,8.68,0,0,1,3.58.7L291.07,33a6.53,6.53,0,0,0-2.94-.67c-1.37,0-2,.62-2,1.35,0,.9.79,1.29,2.61,2,2.47.92,3.64,2.21,3.64,4.19,0,2.35-1.81,4.35-5.67,4.35a9.12,9.12,0,0,1-4-.85Z"/><path class="cls-15" d="M294.6,40.69a8.17,8.17,0,0,0,3.52.87c1.45,0,2.23-.6,2.23-1.52s-.67-1.38-2.36-2c-2.33-.81-3.85-2.1-3.85-4.15,0-2.39,2-4.22,5.31-4.22a8.68,8.68,0,0,1,3.58.7L302.32,33a6.51,6.51,0,0,0-2.93-.67c-1.38,0-2.05.62-2.05,1.35,0,.9.8,1.29,2.61,2,2.48.92,3.65,2.21,3.65,4.19,0,2.35-1.82,4.35-5.67,4.35a9.14,9.14,0,0,1-4-.85Z"/><rect class="cls-16" x="313.18" y="28.73" width="38.17" height="15.72" rx="3.34"/><path class="cls-17" d="M321.17,33.74V35.9h2.28V33.74h1v5.4h-1V36.76h-2.28v2.38h-1v-5.4Z"/><path class="cls-17" d="M326.17,35.24l.7,2.09c.08.24.16.54.22.76h0c.07-.22.14-.51.21-.77l.61-2.08H329l-1,2.66a6,6,0,0,1-1.36,2.5,2.06,2.06,0,0,1-1,.51l-.23-.84a1.57,1.57,0,0,0,.58-.27,1.7,1.7,0,0,0,.53-.61.46.46,0,0,0,.07-.18.39.39,0,0,0-.06-.19l-1.42-3.58Z"/><path class="cls-17" d="M329.52,39.14c0-.27,0-.7,0-1.1V33.46h1v2.32h0a1.41,1.41,0,0,1,1.25-.63c.95,0,1.63.79,1.62,2a1.86,1.86,0,0,1-1.76,2.1,1.35,1.35,0,0,1-1.24-.68h0l-.05.59Zm1-1.61a.86.86,0,0,0,0,.23.91.91,0,0,0,.87.69c.62,0,1-.5,1-1.28s-.32-1.25-1-1.25a.92.92,0,0,0-.87.72,1,1,0,0,0,0,.26Z"/><path class="cls-17" d="M334.23,36.5c0-.53,0-.91,0-1.26h.85l0,.74h0a1.16,1.16,0,0,1,1.06-.83.88.88,0,0,1,.24,0v.92a2,2,0,0,0-.29,0,.88.88,0,0,0-.88.75,1.28,1.28,0,0,0,0,.3v2h-1Z"/><path class="cls-17" d="M338.13,34.15a.56.56,0,1,1-.56-.53A.53.53,0,0,1,338.13,34.15Zm-1.05,5v-3.9h1v3.9Z"/><path class="cls-17" d="M342.72,33.46V38c0,.4,0,.83,0,1.1h-.88l0-.62h0a1.4,1.4,0,0,1-1.27.71,1.79,1.79,0,0,1-1.66-2,1.86,1.86,0,0,1,1.74-2.08,1.27,1.27,0,0,1,1.1.51h0v-2.2Zm-1,3.4a1.06,1.06,0,0,0,0-.25.86.86,0,0,0-.85-.7c-.63,0-1,.56-1,1.29s.35,1.23,1,1.23a.86.86,0,0,0,.85-.69.92.92,0,0,0,0-.29Z"/><path class="cls-15" d="M211.28,55.39c0,2.66-1.61,4.27-4,4.27s-3.81-1.82-3.81-4.12a3.93,3.93,0,0,1,3.94-4.25A3.78,3.78,0,0,1,211.28,55.39Zm-5.86.11c0,1.59.75,2.7,2,2.7s1.94-1.17,1.94-2.75-.69-2.71-2-2.71S205.42,53.92,205.42,55.5Z"/><path class="cls-15" d="M212.49,59.53V51.42h2.14l1.68,3a24.34,24.34,0,0,1,1.32,2.78h0a30.06,30.06,0,0,1-.16-3.38V51.42h1.69v8.11h-1.93l-1.73-3.13a30.4,30.4,0,0,1-1.41-2.86h0c.05,1.07.07,2.21.07,3.54v2.44Z"/><path class="cls-15" d="M220.79,51.42h1.84V58h3.22v1.54h-5.06Z"/><path class="cls-15" d="M228.78,51.42v8.11h-1.84V51.42Z"/><path class="cls-15" d="M230.37,59.53V51.42h2.14l1.68,3a24.34,24.34,0,0,1,1.32,2.78h0a30.06,30.06,0,0,1-.16-3.38V51.42h1.69v8.11h-1.93l-1.73-3.13A30.4,30.4,0,0,1,232,53.54h0c.05,1.07.07,2.21.07,3.54v2.44Z"/><path class="cls-15" d="M243.49,56.1h-3V58h3.33v1.5h-5.17V51.42h5v1.5h-3.16v1.69h3Z"/><path class="cls-15" d="M252.69,59.53c-.17-.18-.34-.36-.53-.58a3.57,3.57,0,0,1-2.23.71c-2,0-2.83-1.17-2.83-2.3A2.57,2.57,0,0,1,248.64,55v0a2.42,2.42,0,0,1-.61-1.56,2.23,2.23,0,0,1,2.43-2.14,2,2,0,0,1,2.2,1.9c0,.82-.48,1.51-1.6,2.08v0c.47.52,1,1.11,1.36,1.51a5.4,5.4,0,0,0,.69-2h1.63a6.12,6.12,0,0,1-1.35,3.08c.46.52.93,1.05,1.43,1.59Zm-1.39-1.6c-.5-.51-1.16-1.24-1.83-2a1.37,1.37,0,0,0-.63,1.12,1.27,1.27,0,0,0,1.34,1.28A1.63,1.63,0,0,0,251.3,57.93Zm-1.63-4.67a1.74,1.74,0,0,0,.55,1.17c.59-.41.89-.72.89-1.19a.74.74,0,0,0-.71-.81A.76.76,0,0,0,249.67,53.26Z"/><path class="cls-15" d="M259.21,53H257V51.42h6.23V53h-2.21v6.57h-1.84Z"/><path class="cls-15" d="M264.24,51.53a14.1,14.1,0,0,1,2.37-.17,4.45,4.45,0,0,1,2.39.46,1.76,1.76,0,0,1,1,1.59,1.83,1.83,0,0,1-1.34,1.73v0a2,2,0,0,1,1.61,2,2.15,2.15,0,0,1-.84,1.72,5.13,5.13,0,0,1-3.19.73,14.17,14.17,0,0,1-2-.12Zm1.81,3.1h.61c1,0,1.48-.39,1.48-1s-.47-.93-1.3-.93a6.17,6.17,0,0,0-.79,0Zm0,3.6a7,7,0,0,0,.71,0c.83,0,1.57-.31,1.57-1.16s-.74-1.15-1.65-1.15h-.63Z"/><path class="cls-15" d="M273.35,51.42v8.11h-1.84V51.42Z"/><path class="cls-15" d="M274.93,51.42h1.85V58H280v1.54h-5.07Z"/><path class="cls-15" d="M282.92,51.42v8.11h-1.84V51.42Z"/><path class="cls-15" d="M284.57,57.64a4.74,4.74,0,0,0,2,.51c.84,0,1.28-.35,1.28-.88s-.38-.8-1.36-1.15c-1.34-.46-2.22-1.21-2.22-2.39,0-1.38,1.15-2.44,3.07-2.44a4.88,4.88,0,0,1,2.06.41l-.4,1.48a3.85,3.85,0,0,0-1.7-.39c-.79,0-1.18.36-1.18.78s.46.75,1.5,1.15c1.44.53,2.11,1.27,2.11,2.41,0,1.36-1,2.52-3.27,2.52a5.36,5.36,0,0,1-2.3-.49Z"/><path class="cls-15" d="M292.85,51.42v8.11H291V51.42Z"/><path class="cls-15" d="M293.67,61a20.67,20.67,0,0,0,.87-3.42l1.86-.12a16.66,16.66,0,0,1-1.52,3.43Z"/><path class="cls-15" d="M206,67.34h0l-1.49.75-.26-1.16,2-1h1.29v8.11H206Z"/><path class="cls-15" d="M213.67,74.07V72H210V71L213.31,66h1.81v4.89h1V72h-1v2.06Zm0-3.22V68.64c0-.46,0-.94.05-1.41h-.05c-.25.51-.46.92-.71,1.37l-1.49,2.22v0Z"/><path class="cls-15" d="M220,70.21v1.06h-3.19V70.21Z"/><path class="cls-15" d="M223.31,67.34h0l-1.49.75-.26-1.16,2-1h1.29v8.11h-1.49Z"/><path class="cls-15" d="M232.54,67a5.78,5.78,0,0,0-.79,0A2.87,2.87,0,0,0,229,69.45h0a2.34,2.34,0,0,1,1.82-.79,2.44,2.44,0,0,1,2.48,2.65,2.82,2.82,0,0,1-2.86,2.9c-2,0-3-1.5-3-3.5a5,5,0,0,1,1.41-3.64,4.66,4.66,0,0,1,2.88-1.2,4.4,4.4,0,0,1,.77,0Zm-.73,4.36a1.42,1.42,0,0,0-1.41-1.61,1.49,1.49,0,0,0-1.32.83,1.12,1.12,0,0,0-.1.49c0,1.07.53,2,1.52,2C231.3,73.06,231.81,72.37,231.81,71.4Z"/><path class="cls-15" d="M244.67,69.78c0,2.82-1.7,4.43-4,4.43s-3.87-1.81-3.87-4.29,1.63-4.4,4-4.4S244.67,67.38,244.67,69.78Zm-6.27.12c0,1.71.86,3.07,2.33,3.07s2.32-1.37,2.32-3.13c0-1.59-.78-3.08-2.32-3.08S238.4,68.17,238.4,69.9Z"/><path class="cls-15" d="M252,73.82a5.27,5.27,0,0,1-2.17.37A4,4,0,0,1,245.56,70a4.23,4.23,0,0,1,4.49-4.44,4.94,4.94,0,0,1,2,.37l-.34,1.23a4,4,0,0,0-1.65-.33,2.8,2.8,0,0,0-2.94,3.1,2.76,2.76,0,0,0,2.93,3,4.25,4.25,0,0,0,1.67-.31Z"/><path class="cls-15" d="M255.19,66.94h-2.4V65.66h6.36v1.28h-2.42v7.13h-1.54Z"/><path class="cls-15" d="M267.24,69.78c0,2.82-1.71,4.43-4,4.43s-3.87-1.81-3.87-4.29,1.63-4.4,4-4.4S267.24,67.38,267.24,69.78ZM261,69.9c0,1.71.86,3.07,2.33,3.07s2.32-1.37,2.32-3.13c0-1.59-.79-3.08-2.32-3.08S261,68.17,261,69.9Z"/><path class="cls-15" d="M268.56,65.77a12.85,12.85,0,0,1,2.24-.18,4,4,0,0,1,2.41.54,1.77,1.77,0,0,1,.87,1.57,2,2,0,0,1-1.4,1.83v0a2.12,2.12,0,0,1,1.7,2.09,2.21,2.21,0,0,1-.81,1.73,4.71,4.71,0,0,1-3.12.79,14.65,14.65,0,0,1-1.89-.12Zm1.53,3.32h.78c1.06,0,1.66-.5,1.66-1.21s-.6-1.15-1.57-1.15a4.78,4.78,0,0,0-.87.06Zm0,3.87c.2,0,.46,0,.81,0,1,0,1.86-.37,1.86-1.41s-.85-1.37-1.91-1.37h-.76Z"/><path class="cls-15" d="M280.45,70.34h-3.17v2.47h3.55v1.26h-5.08V65.66h4.89v1.26h-3.36v2.17h3.17Z"/><path class="cls-15" d="M282.17,65.77a14.62,14.62,0,0,1,2.33-.18,3.84,3.84,0,0,1,2.59.68,2.13,2.13,0,0,1,.73,1.68,2.23,2.23,0,0,1-1.53,2.11v0a2.15,2.15,0,0,1,1.18,1.62,16.09,16.09,0,0,0,.66,2.35h-1.59a12.91,12.91,0,0,1-.56-2c-.24-1.09-.64-1.44-1.51-1.47h-.77v3.46h-1.53Zm1.53,3.72h.91c1,0,1.68-.55,1.68-1.39s-.65-1.34-1.64-1.34a4.35,4.35,0,0,0-.95.07Z"/><path class="cls-15" d="M293.17,64.71V77.19h-1.11V64.71Z"/><path class="cls-16" d="M297.37,74.07v-.94l1-.88c1.91-1.78,2.81-2.75,2.82-3.82a1.28,1.28,0,0,0-1.45-1.36,3,3,0,0,0-1.73.67l-.45-1.08a4,4,0,0,1,2.49-.84,2.41,2.41,0,0,1,2.67,2.46c0,1.42-1,2.57-2.43,3.88l-.71.61v0h3.33v1.27Z"/><path class="cls-16" d="M309.78,70c0,2.61-1,4.25-2.95,4.25S304,72.51,303.94,70s1.08-4.22,3-4.22S309.78,67.57,309.78,70Zm-4.29.08c0,2,.54,3,1.39,3s1.37-1.1,1.37-3-.45-3-1.37-3S305.48,68,305.49,70Z"/><path class="cls-16" d="M310.74,74.07v-.94l1-.88c1.91-1.78,2.81-2.75,2.82-3.82a1.27,1.27,0,0,0-1.44-1.36,3,3,0,0,0-1.74.67l-.45-1.08a4,4,0,0,1,2.5-.84,2.41,2.41,0,0,1,2.67,2.46c0,1.42-1,2.57-2.43,3.88l-.72.61v0h3.34v1.27Z"/><path class="cls-16" d="M317.43,74.07v-.94l1-.88c1.91-1.78,2.81-2.75,2.82-3.82a1.28,1.28,0,0,0-1.45-1.36,3,3,0,0,0-1.73.67l-.45-1.08a4,4,0,0,1,2.5-.84,2.41,2.41,0,0,1,2.67,2.46c0,1.42-1,2.57-2.44,3.88l-.71.61v0h3.33v1.27Z"/><polygon class="cls-14" points="190.77 20.41 188.53 20.41 188.53 3.5 205.92 3.5 205.92 5.74 190.77 5.74 190.77 20.41"/><path class="cls-15" d="M306.77,59.16a9.06,9.06,0,0,1-2.7.46,4.53,4.53,0,0,1-3.3-1.1,3.92,3.92,0,0,1-1.15-3c0-2.69,2-4.23,4.64-4.23a5.7,5.7,0,0,1,2.25.39l-.39,1.47a4.52,4.52,0,0,0-1.89-.35A2.65,2.65,0,1,0,305,58v-1.7h-1.25V54.89h3Z"/><path class="cls-15" d="M313,56.1h-3V58h3.34v1.5H308.2V51.42h5v1.51H310v1.68h3Z"/><path class="cls-15" d="M322.05,55.39c0,2.66-1.61,4.28-4,4.28s-3.82-1.82-3.82-4.13a3.93,3.93,0,0,1,3.95-4.25A3.78,3.78,0,0,1,322.05,55.39Zm-5.86.11c0,1.59.75,2.71,2,2.71s1.95-1.18,1.95-2.76-.69-2.7-2-2.7S316.19,53.92,316.19,55.5Z"/><path class="cls-15" d="M323.25,51.53a15.67,15.67,0,0,1,2.45-.17,4.12,4.12,0,0,1,2.62.64,2.05,2.05,0,0,1,.74,1.7,2.14,2.14,0,0,1-1.43,2v0a2.06,2.06,0,0,1,1.09,1.52,22.54,22.54,0,0,0,.66,2.28H327.5a10.18,10.18,0,0,1-.57-1.89c-.21-1-.56-1.28-1.31-1.3h-.55v3.19h-1.82ZM325.07,55h.72c.92,0,1.46-.46,1.46-1.17s-.51-1.12-1.35-1.13a4.94,4.94,0,0,0-.83.06Z"/><path class="cls-15" d="M337.11,59.16a9.06,9.06,0,0,1-2.7.46,4.53,4.53,0,0,1-3.3-1.1,3.87,3.87,0,0,1-1.14-3c0-2.69,2-4.23,4.63-4.23a5.66,5.66,0,0,1,2.25.39l-.39,1.47a4.52,4.52,0,0,0-1.89-.35,2.65,2.65,0,1,0,.77,5.17v-1.7h-1.25V54.89h3Z"/><path class="cls-15" d="M340.38,51.42v8.11h-1.84V51.42Z"/><path class="cls-15" d="M343.86,57.45l-.58,2.08h-1.9l2.48-8.11h2.41l2.51,8.11h-2l-.63-2.08Zm2.06-1.37-.51-1.72c-.14-.48-.29-1.08-.41-1.57h0c-.12.49-.24,1.1-.37,1.57l-.48,1.72Z"/></svg>