<svg width="184" height="132" viewBox="0 0 184 132" fill="none" xmlns="http://www.w3.org/2000/svg">
<path d="M177.793 72.5713V60.1578M171.586 66.3645H184H171.586Z" stroke="#8BD2BD" stroke-miterlimit="10"/>
<path d="M177.793 42.0149V29.6014M171.586 35.8081H184H171.586Z" stroke="#8BD2BD" stroke-miterlimit="10"/>
<path d="M177.793 12.4135V0M171.586 6.20677H184H171.586Z" stroke="#8BD2BD" stroke-miterlimit="10"/>
<path d="M177.793 72.5713V60.1578M171.586 66.3645H184H171.586Z" stroke="#1D262D" stroke-width="2" stroke-miterlimit="10"/>
<path d="M177.793 42.0149V29.6014M171.586 35.8081H184H171.586Z" stroke="#1D262D" stroke-width="2" stroke-miterlimit="10"/>
<path d="M177.793 12.4135V0M171.586 6.20677H184H171.586Z" stroke="#1D262D" stroke-width="2" stroke-miterlimit="10"/>
<path d="M149.147 72.5713V60.1578M142.94 66.3645H155.353H142.94Z" stroke="#8BD2BD" stroke-miterlimit="10"/>
<path d="M149.147 42.0149V29.6014M142.94 35.8081H155.353H142.94Z" stroke="#8BD2BD" stroke-miterlimit="10"/>
<path d="M149.146 12.4135V0M142.939 6.20677H155.353H142.939Z" stroke="#8BD2BD" stroke-miterlimit="10"/>
<path d="M149.147 72.5713V60.1578M142.94 66.3645H155.353H142.94Z" stroke="#1D262D" stroke-width="2" stroke-miterlimit="10"/>
<path d="M149.147 42.0149V29.6014M142.94 35.8081H155.353H142.94Z" stroke="#1D262D" stroke-width="2" stroke-miterlimit="10"/>
<path d="M149.146 12.4135V0M142.939 6.20677H155.353H142.939Z" stroke="#1D262D" stroke-width="2" stroke-miterlimit="10"/>
<path d="M120.5 42.0149V29.6014M114.293 35.8081H126.707H114.293Z" stroke="#8BD2BD" stroke-miterlimit="10"/>
<path d="M120.5 12.4135V0M114.293 6.20677H126.706H114.293Z" stroke="#8BD2BD" stroke-miterlimit="10"/>
<path d="M120.5 42.0149V29.6014M114.293 35.8081H126.707H114.293Z" stroke="#1D262D" stroke-width="2" stroke-miterlimit="10"/>
<path d="M120.5 12.4135V0M114.293 6.20677H126.706H114.293Z" stroke="#1D262D" stroke-width="2" stroke-miterlimit="10"/>
<path d="M91.8533 42.0149V29.6014M85.6465 35.8081H98.0601H85.6465Z" stroke="#8BD2BD" stroke-miterlimit="10"/>
<path d="M91.8533 12.4135V0M85.6465 6.20677H98.0601H85.6465Z" stroke="#8BD2BD" stroke-miterlimit="10"/>
<path d="M91.8533 42.0149V29.6014M85.6465 35.8081H98.0601H85.6465Z" stroke="#1D262D" stroke-width="2" stroke-miterlimit="10"/>
<path d="M91.8533 12.4135V0M85.6465 6.20677H98.0601H85.6465Z" stroke="#1D262D" stroke-width="2" stroke-miterlimit="10"/>
<path d="M63.2068 42.0149V29.6014M57 35.8081H69.4136H57Z" stroke="#8BD2BD" stroke-miterlimit="10"/>
<path d="M63.2068 12.4135V0M57 6.20677H69.4136H57Z" stroke="#8BD2BD" stroke-miterlimit="10"/>
<path d="M63.2068 42.0149V29.6014M57 35.8081H69.4136H57Z" stroke="#1D262D" stroke-width="2" stroke-miterlimit="10"/>
<path d="M63.2068 12.4135V0M57 6.20677H69.4136H57Z" stroke="#1D262D" stroke-width="2" stroke-miterlimit="10"/>
<path d="M120.793 131.571V119.158M114.586 125.365H127H114.586Z" stroke="#8BD2BD" stroke-miterlimit="10"/>
<path d="M120.793 101.015V88.6014M114.586 94.8081H127H114.586Z" stroke="#8BD2BD" stroke-miterlimit="10"/>
<path d="M120.793 71.4135V59M114.586 65.2068H127H114.586Z" stroke="#8BD2BD" stroke-miterlimit="10"/>
<path d="M120.793 131.571V119.158M114.586 125.365H127H114.586Z" stroke="#1D262D" stroke-width="2" stroke-miterlimit="10"/>
<path d="M120.793 101.015V88.6014M114.586 94.8081H127H114.586Z" stroke="#1D262D" stroke-width="2" stroke-miterlimit="10"/>
<path d="M120.793 71.4135V59M114.586 65.2068H127H114.586Z" stroke="#1D262D" stroke-width="2" stroke-miterlimit="10"/>
<path d="M92.1465 131.571V119.158M85.9397 125.365H98.3533H85.9397Z" stroke="#8BD2BD" stroke-miterlimit="10"/>
<path d="M92.1465 101.015V88.6014M85.9397 94.8081H98.3533H85.9397Z" stroke="#8BD2BD" stroke-miterlimit="10"/>
<path d="M92.146 71.4135V59M85.9392 65.2068H98.3528H85.9392Z" stroke="#8BD2BD" stroke-miterlimit="10"/>
<path d="M92.1465 131.571V119.158M85.9397 125.365H98.3533H85.9397Z" stroke="#1D262D" stroke-width="2" stroke-miterlimit="10"/>
<path d="M92.1465 101.015V88.6014M85.9397 94.8081H98.3533H85.9397Z" stroke="#1D262D" stroke-width="2" stroke-miterlimit="10"/>
<path d="M92.146 71.4135V59M85.9392 65.2068H98.3528H85.9392Z" stroke="#1D262D" stroke-width="2" stroke-miterlimit="10"/>
<path d="M63.5 101.015V88.6014M57.2933 94.8081H69.7068H57.2933Z" stroke="#8BD2BD" stroke-miterlimit="10"/>
<path d="M63.4995 71.4135V59M57.2928 65.2068H69.7063H57.2928Z" stroke="#8BD2BD" stroke-miterlimit="10"/>
<path d="M63.5 101.015V88.6014M57.2933 94.8081H69.7068H57.2933Z" stroke="#1D262D" stroke-width="2" stroke-miterlimit="10"/>
<path d="M63.4995 71.4135V59M57.2928 65.2068H69.7063H57.2928Z" stroke="#1D262D" stroke-width="2" stroke-miterlimit="10"/>
<path d="M34.8533 101.015V88.6014M28.6465 94.8081H41.0601H28.6465Z" stroke="#8BD2BD" stroke-miterlimit="10"/>
<path d="M34.8533 71.4135V59M28.6465 65.2068H41.0601H28.6465Z" stroke="#8BD2BD" stroke-miterlimit="10"/>
<path d="M34.8533 101.015V88.6014M28.6465 94.8081H41.0601H28.6465Z" stroke="#1D262D" stroke-width="2" stroke-miterlimit="10"/>
<path d="M34.8533 71.4135V59M28.6465 65.2068H41.0601H28.6465Z" stroke="#1D262D" stroke-width="2" stroke-miterlimit="10"/>
<path d="M6.20681 101.015V88.6014M3.96967e-05 94.8081H12.4136H3.96967e-05Z" stroke="#8BD2BD" stroke-miterlimit="10"/>
<path d="M6.20681 71.4135V59M3.96967e-05 65.2068H12.4136H3.96967e-05Z" stroke="#8BD2BD" stroke-miterlimit="10"/>
<path d="M6.20681 101.015V88.6014M3.96967e-05 94.8081H12.4136H3.96967e-05Z" stroke="#1D262D" stroke-width="2" stroke-miterlimit="10"/>
<path d="M6.20681 71.4135V59M3.96967e-05 65.2068H12.4136H3.96967e-05Z" stroke="#1D262D" stroke-width="2" stroke-miterlimit="10"/>
</svg>
